<svg id="Capa_1" data-name="Capa 1" xmlns="http://www.w3.org/2000/svg" viewBox="0 0 24.3 24.3"><defs><style>.cls-1{fill:#034b86;}.cls-2{fill:#032040;}.cls-3{fill:#c33;}.cls-4{fill:#fff;}.cls-5{fill:#323232;}</style></defs><g id="Capa_3" data-name="Capa 3"><circle class="cls-1" cx="12.5" cy="12.15" r="11.7"/></g><g id="Capa_1-2" data-name="Capa 1-2"><path class="cls-2" d="M12.2,24.3A12.15,12.15,0,1,1,24.3,12.1v.1h0A12,12,0,0,1,12.4,24.3h-.2ZM12.2,1A11.15,11.15,0,1,0,23.3,12.2h0A11,11,0,0,0,12.5,1h-.3Z" transform="translate(0 0)"/></g><path class="cls-3" d="M13.27,4.86" transform="translate(0 0)"/><path class="cls-3" d="M19.27,10.77" transform="translate(0 0)"/><path class="cls-3" d="M13.27,4.86" transform="translate(0 0)"/><path class="cls-3" d="M13.4,4.86" transform="translate(0 0)"/><path class="cls-4" d="M16.65,19.83a.6.6,0,0,0,.45-.47c0-.2.16-.29.32-.24s.21.17.16.37a1.1,1.1,0,0,1-1.11.87H6.68a1.12,1.12,0,0,1-1.22-1.22V7.55c0-.12,0-.25,0-.38a1.07,1.07,0,0,1,.82-1,.24.24,0,0,0,.2-.28,1.63,1.63,0,0,1,3-.84.15.15,0,0,0,.21.08L14.2,3.71a.29.29,0,0,1,.32,0,.26.26,0,0,1,.06.25c0,.12-.13.16-.24.19l-2.86.87L9,5.82a.2.2,0,0,0-.17.23c0,.92,0,1.83,0,2.74a1.17,1.17,0,0,1-2,.78s0-.11-.14-.08c.37,1.22.74,2.44,1.12,3.67l.06.22a.25.25,0,0,1-.18.33.26.26,0,0,1-.31-.19c-.09-.31-.18-.63-.28-.94l-1-3.31s0-.08,0-.13,0,.12,0,.17v9.85a.6.6,0,0,0,.47.67,3,3,0,0,0,.52,0H9.44c.24,0,.47-.05.71,0,2.1.09,4.21,0,6.31,0A.61.61,0,0,0,16.65,19.83Z" transform="translate(0 0)"/><path class="cls-4" d="M9.78,19.79A1.14,1.14,0,0,1,9,19L7.67,14.6c0-.16-.06-.3.1-.39s.31,0,.38.22L9,17.28c.15.51.3,1,.46,1.52a.62.62,0,0,0,.86.47l9.33-2.83a.61.61,0,0,0,.47-.85C19.37,13,18.59,10.5,17.82,8L16.68,4.19a.62.62,0,0,0-.83-.45l-.44.14a.26.26,0,0,1-.34-.17.25.25,0,0,1,.2-.32,2.3,2.3,0,0,1,1-.19,1.12,1.12,0,0,1,.93.85C17.56,5.36,18,6.66,18.35,8c.75,2.48,1.5,5,2.27,7.43a1.17,1.17,0,0,1-.83,1.54c-.69.19-1.36.41-2,.61a.16.16,0,0,0-.14.2v.57a.25.25,0,1,1-.5,0c0-.19,0-.37,0-.58l-6.74,2A.73.73,0,0,1,9.78,19.79Z" transform="translate(0 0)"/><path class="cls-4" d="M12.2,7.94a.87.87,0,0,0-.55,0c-.13.06-.25.14-.22.32a.29.29,0,0,0,.29.25l.61.07a.94.94,0,0,1,.82.75.87.87,0,0,1-.3,1,.16.16,0,0,0-.07.18.3.3,0,0,1-.2.39.31.31,0,0,1-.39-.2.15.15,0,0,0-.18-.11.91.91,0,0,1-.51-.14.32.32,0,0,1-.19-.33.26.26,0,0,1,.41-.24.69.69,0,0,0,.51.08c.24-.06.36-.18.35-.36a.43.43,0,0,0-.37-.44c-.19,0-.37,0-.56-.05a.88.88,0,0,1-.84-.82.81.81,0,0,1,.29-.74c.06,0,.11-.09.07-.2A.32.32,0,0,1,11.35,7a.32.32,0,0,1,.42.21.13.13,0,0,0,.16.08.94.94,0,0,1,.41,0,.29.29,0,0,1,.19.34A.28.28,0,0,1,12.2,7.94Z" transform="translate(0 0)"/><path class="cls-4" d="M17.05,10.75c0,.17-.12.24-.27.28l-2.07.63-4.9,1.48c-.28.09-.43,0-.48-.13s.06-.27.33-.35l6.88-2.09.22-.06A.25.25,0,0,1,17.05,10.75Z" transform="translate(0 0)"/><path class="cls-4" d="M10.86,17.37a.25.25,0,0,1-.26-.17.24.24,0,0,1,.12-.3l.16-.06,7-2.14c.24-.07.42.06.39.26s-.13.19-.25.23l-2.8.85L11,17.32Z" transform="translate(0 0)"/><path class="cls-4" d="M17.47,12.14c0,.16-.1.23-.25.27L15.36,13l-5,1.53-.24.07a.23.23,0,0,1-.31-.18.24.24,0,0,1,.18-.31l.71-.22L17,12l.19,0A.24.24,0,0,1,17.47,12.14Z" transform="translate(0 0)"/><path class="cls-4" d="M10.44,16c-.15,0-.25-.07-.27-.21a.24.24,0,0,1,.19-.29l1-.31,6-1.82.16,0a.24.24,0,0,1,.32.16.23.23,0,0,1-.18.32l-.51.16-6.58,2Z" transform="translate(0 0)"/><path class="cls-1" d="M7,7.3c0-.48,0-1,0-1.46a1.1,1.1,0,0,1,.77-1A1.11,1.11,0,0,1,9,5.11c.09.1.13.16-.05.21a.42.42,0,0,1-.44-.05.62.62,0,0,0-.7,0,.64.64,0,0,0-.37.6c0,.83,0,1.65,0,2.47,0,.2.1.32.25.32s.25-.11.26-.32V6c0-.09,0-.19.07-.25a.2.2,0,0,1,.22,0,.2.2,0,0,1,.12.2V8.74a.67.67,0,0,1-.43.66.63.63,0,0,1-.71-.16A.66.66,0,0,1,7,8.74V7.3Z" transform="translate(0 0)"/><path class="cls-1" d="M6.42,8.74c-.14-.46-.28-.91-.41-1.37a.57.57,0,0,1,.47-.76s0,.08,0,.12v2s0,.07,0,.06S6.43,8.76,6.42,8.74Z" transform="translate(0 0)"/><path class="cls-5" d="M6.42,8.74s.07.06.06,0V6.61s0,.07,0,.11V8.89A.13.13,0,0,1,6.5,9,.22.22,0,0,1,6.42,8.74Z" transform="translate(0 0)"/></svg>