<svg id="Capa_1" data-name="Capa 1" xmlns="http://www.w3.org/2000/svg" xmlns:xlink="http://www.w3.org/1999/xlink" viewBox="0 0 24.2 24.3"><defs><style>.cls-1{fill:#034b86;}.cls-2{fill:#032040;}.cls-3{fill:#c33;}.cls-4{fill:#fff;}.cls-5{fill:url(#Degradado_sin_nombre_6);}</style><linearGradient id="Degradado_sin_nombre_6" x1="4.56" y1="12.25" x2="19.56" y2="12.25" gradientUnits="userSpaceOnUse"><stop offset="0" stop-color="#fff"/><stop offset="1" stop-color="#034b86"/></linearGradient></defs><g id="Capa_3" data-name="Capa 3"><circle class="cls-1" cx="12.4" cy="12.3" r="11.7"/></g><g id="Capa_1-2" data-name="Capa 1-2"><path class="cls-2" d="M12.1,24.3A12.15,12.15,0,0,1,12.1,0,12.1,12.1,0,0,1,24.2,12.2h0A12,12,0,0,1,12.1,24.3ZM12.1,1A11.15,11.15,0,1,0,23.2,12.2h0A11,11,0,0,0,12.1,1Z" transform="translate(0 0)"/></g><path class="cls-3" d="M13.8,3.6h0Z" transform="translate(0 0)"/><path class="cls-3" d="M13.8,3.6Z" transform="translate(0 0)"/><path class="cls-3" d="M13.9,3.6Z" transform="translate(0 0)"/><path class="cls-4" d="M9.21,10.9H8.6a1,1,0,0,1,.27-.59A1,1,0,0,1,9.63,10a1,1,0,0,1,.68.26.8.8,0,0,1,.28.62.72.72,0,0,1-.12.4,1,1,0,0,1-.35.3.87.87,0,0,1,.47.31.88.88,0,0,1,.17.53,1,1,0,0,1-.33.76,1.21,1.21,0,0,1-.84.31,1.06,1.06,0,0,1-.78-.3,1.11,1.11,0,0,1-.34-.79H9.1a.55.55,0,0,0,.18.38.52.52,0,0,0,.35.13.48.48,0,0,0,.36-.15.45.45,0,0,0,.15-.34.47.47,0,0,0-.2-.38.85.85,0,0,0-.56-.16v-.55a.91.91,0,0,0,.34-.07.39.39,0,0,0,.17-.14.36.36,0,0,0,.06-.2.29.29,0,0,0-.09-.22.37.37,0,0,0-.25-.09.46.46,0,0,0-.25.08A.51.51,0,0,0,9.21,10.9Z" transform="translate(0 0)"/><path class="cls-4" d="M12.26,10l.54.27-.58,1.13a.94.94,0,0,1,.71.3,1,1,0,0,1-.73,1.79,1,1,0,0,1-.75-.32,1,1,0,0,1-.3-.71,1.1,1.1,0,0,1,0-.31c0-.1.11-.26.22-.48Zm-.08,2a.38.38,0,0,0-.29.12.45.45,0,0,0-.12.32.44.44,0,0,0,.12.32.4.4,0,0,0,.29.14.46.46,0,0,0,.31-.13.48.48,0,0,0,.12-.33.45.45,0,0,0-.12-.32A.43.43,0,0,0,12.18,12Z" transform="translate(0 0)"/><path class="cls-4" d="M14.79,10a1.11,1.11,0,0,1,.63.18,1.13,1.13,0,0,1,.4.54,2.84,2.84,0,0,1,.15,1,2.74,2.74,0,0,1-.15,1,1.15,1.15,0,0,1-.39.54,1,1,0,0,1-.62.18,1.07,1.07,0,0,1-.63-.18,1.12,1.12,0,0,1-.4-.53,2.66,2.66,0,0,1-.14-1,2.42,2.42,0,0,1,.28-1.33A1,1,0,0,1,14.79,10Zm0,.6a.48.48,0,0,0-.29.1.75.75,0,0,0-.19.36,3.3,3.3,0,0,0-.06.73,1.77,1.77,0,0,0,.15.87.45.45,0,0,0,.39.24.41.41,0,0,0,.36-.23,1.89,1.89,0,0,0,.16-.92,1.94,1.94,0,0,0-.14-.9A.44.44,0,0,0,14.81,10.6Z" transform="translate(0 0)"/><path class="cls-4" d="M17.8,10.78a.77.77,0,0,1-.78.77.74.74,0,0,1-.55-.22.77.77,0,0,1-.23-.56.74.74,0,0,1,.23-.54A.78.78,0,0,1,17,10a.79.79,0,0,1,.78.78Zm-.27,0a.5.5,0,0,0-.15-.37.43.43,0,0,0-.35-.16.51.51,0,0,0-.37.16.5.5,0,0,0-.15.37.49.49,0,0,0,.15.36.46.46,0,0,0,.36.16.49.49,0,0,0,.36-.15A.51.51,0,0,0,17.53,10.78Z" transform="translate(0 0)"/><path class="cls-4" d="M17.94,19.35c-2.57,2.27-7.28.93-10.53-3S3.61,7.42,6.18,5.15,13,4.09,16.24,7.59a12.85,12.85,0,0,0-4.48-2.52,6.84,6.84,0,0,0-2.39-.31,4.22,4.22,0,0,0-2.11.64A3.67,3.67,0,0,0,5.93,7a5.48,5.48,0,0,0-.37,2.2A8.35,8.35,0,0,0,6,11.58a10.84,10.84,0,0,0,1,2.24,12.38,12.38,0,0,0,1.41,2,12.37,12.37,0,0,0,1.74,1.73,9.07,9.07,0,0,0,4.26,2,4.66,4.66,0,0,0,2.23-.18A3.73,3.73,0,0,0,18.36,18,4.45,4.45,0,0,0,18.93,17a6.35,6.35,0,0,0,.32-1.23,9.47,9.47,0,0,0,0-2.66C19.91,15.59,19.5,18,17.94,19.35Z" transform="translate(0 0)"/><path class="cls-4" d="M19.72,17.19a5.46,5.46,0,0,1-.48,1.39,4.89,4.89,0,0,1-.89,1.23,4.56,4.56,0,0,1-1.23.89,5.81,5.81,0,0,1-2.91.58,8.47,8.47,0,0,1-2.82-.65A11.37,11.37,0,0,1,8.9,19.21a14,14,0,0,1-3.77-4.29A11.39,11.39,0,0,1,3.56,9.24a7,7,0,0,1,.7-3,5.26,5.26,0,0,1,.93-1.32,5.32,5.32,0,0,1,1.26-1,4.86,4.86,0,0,1,1.46-.5,5.67,5.67,0,0,1,1.48-.08,7.63,7.63,0,0,1,2.73.74,9.88,9.88,0,0,1,2.29,1.51,12.58,12.58,0,0,1,1,1,12.32,12.32,0,0,1,.85,1.06C13,4.09,8.62,3,6.18,5.15s-2,7.29,1.23,11.21,8,5.26,10.53,3c1.56-1.38,2-3.76,1.33-6.29a8.27,8.27,0,0,1,.4,1.31,7.89,7.89,0,0,1,.17,1.39A7,7,0,0,1,19.72,17.19Z" transform="translate(0 0)"/><polyline class="cls-4" points="18.78 11.34 17.8 14.57 19.3 13.28 21.24 13.57 18.78 11.34"/><path class="cls-4" d="M17.41,8.09a.72.72,0,0,1-.76.69.76.76,0,0,1,.11-1.51A.75.75,0,0,1,17.41,8.09Z" transform="translate(0 0)"/><path class="cls-4" d="M19.72,17.19a5.46,5.46,0,0,1-.48,1.39,4.89,4.89,0,0,1-.89,1.23,4.56,4.56,0,0,1-1.23.89,5.81,5.81,0,0,1-2.91.58,8.47,8.47,0,0,1-2.82-.65A11.37,11.37,0,0,1,8.9,19.21a14,14,0,0,1-3.77-4.29A11.39,11.39,0,0,1,3.56,9.24a7,7,0,0,1,.7-3,5.26,5.26,0,0,1,.93-1.32,5.32,5.32,0,0,1,1.26-1,4.86,4.86,0,0,1,1.46-.5,5.67,5.67,0,0,1,1.48-.08,7.63,7.63,0,0,1,2.73.74,9.88,9.88,0,0,1,2.29,1.51,12.58,12.58,0,0,1,1,1,12.32,12.32,0,0,1,.85,1.06C13,4.09,8.62,3,6.18,5.15s-2,7.29,1.23,11.21,8,5.26,10.53,3c1.56-1.38,2-3.76,1.33-6.29a8.27,8.27,0,0,1,.4,1.31,7.89,7.89,0,0,1,.17,1.39A7,7,0,0,1,19.72,17.19Z" transform="translate(0 0)"/><path class="cls-5" d="M17.94,19.35c-2.57,2.27-7.28.93-10.53-3S3.61,7.42,6.18,5.15,13,4.09,16.24,7.59a12.85,12.85,0,0,0-4.48-2.52,6.84,6.84,0,0,0-2.39-.31,4.22,4.22,0,0,0-2.11.64A3.67,3.67,0,0,0,5.93,7a5.48,5.48,0,0,0-.37,2.2A8.35,8.35,0,0,0,6,11.58a10.84,10.84,0,0,0,1,2.24,12.38,12.38,0,0,0,1.41,2,12.37,12.37,0,0,0,1.74,1.73,9.07,9.07,0,0,0,4.26,2,4.66,4.66,0,0,0,2.23-.18A3.73,3.73,0,0,0,18.36,18,4.45,4.45,0,0,0,18.93,17a6.35,6.35,0,0,0,.32-1.23,9.47,9.47,0,0,0,0-2.66C19.91,15.59,19.5,18,17.94,19.35Z" transform="translate(0 0)"/><polyline class="cls-4" points="18.78 11.34 17.8 14.57 19.3 13.28 21.24 13.57 18.78 11.34"/></svg>