<svg xmlns="http://www.w3.org/2000/svg" viewBox="0 0 25 25"><defs><style>.cls-1{fill:#034b86;}.cls-2{fill:#032040;}.cls-3{fill:#fff;}.cls-4{fill:#dadada;}</style></defs><g id="Capa_3" data-name="Capa 3"><circle class="cls-1" cx="12.74" cy="12.65" r="11.65"/></g><g id="Capa_1" data-name="Capa 1"><path class="cls-2" d="M12.71,24.65A12.15,12.15,0,1,1,24.85,12.5,12.16,12.16,0,0,1,12.71,24.65Zm0-23.3A11.15,11.15,0,1,0,23.85,12.5,11.16,11.16,0,0,0,12.71,1.35Z"/><polygon class="cls-3" points="12.5 14.03 4 9.15 12.5 4.96 21 9.15 12.5 14.03"/><polygon class="cls-4" points="17.86 12.02 20.09 13.12 12.5 17.47 4.91 13.12 7.14 12.02 6.24 11.5 3.09 13.06 12.5 18.46 21.91 13.06 18.76 11.5 17.86 12.02"/><path class="cls-1" d="M16.81,20a3.33,3.33,0,1,1,3.32-3.32A3.32,3.32,0,0,1,16.81,20Zm0-5.95a2.63,2.63,0,1,0,2.63,2.63A2.63,2.63,0,0,0,16.81,14.09Z"/><path class="cls-1" d="M16.81,14.09a2.63,2.63,0,1,0,2.63,2.63A2.63,2.63,0,0,0,16.81,14.09Z"/><path class="cls-3" d="M17.57,19.26h-.73a.21.21,0,0,1-.22-.21V17.31H14.88a.22.22,0,0,1-.22-.22v-.74a.22.22,0,0,1,.22-.22h1.74V14.39a.22.22,0,0,1,.22-.22h.73a.22.22,0,0,1,.22.22v1.74h1.74a.22.22,0,0,1,.22.22v.74a.22.22,0,0,1-.22.22H17.79v1.74A.21.21,0,0,1,17.57,19.26Z"/></g></svg>