<svg id="Capa_1" data-name="Capa 1" xmlns="http://www.w3.org/2000/svg" viewBox="0 0 24.2 24.3"><defs><style>.cls-1{fill:#034b86;}.cls-2{fill:#032040;}.cls-3{fill:#c33;}.cls-4{fill:#fff;}</style></defs><g id="Capa_3" data-name="Capa 3"><circle class="cls-1" cx="12.4" cy="12.3" r="11.7"/></g><g id="Capa_1-2" data-name="Capa 1-2"><path class="cls-2" d="M12.1,24.3A12.15,12.15,0,0,1,12.1,0,12.1,12.1,0,0,1,24.2,12.2h0A12,12,0,0,1,12.1,24.3ZM12.1,1A11.15,11.15,0,1,0,23.2,12.2h0A11,11,0,0,0,12.1,1Z"/></g><path class="cls-3" d="M21,11.1c-.1-.1-.1-.1,0-.2Z"/><path class="cls-3" d="M13.8,3.6h0Z"/><path class="cls-3" d="M21,10.7v0Z"/><path class="cls-3" d="M13.8,3.6Z"/><path class="cls-3" d="M13.9,3.6Z"/><path class="cls-4" d="M13.27,4.42a8.12,8.12,0,0,1,3.06,1.12A8,8,0,0,1,18.69,7.8l.16.22V7.83c0-.5,0-1,0-1.51a.62.62,0,1,1,1.24,0c0,.6,0,1.21,0,1.82a2,2,0,0,1-2,2H16.21a.63.63,0,0,1-.64-.63.62.62,0,0,1,.63-.62h1.7a5.58,5.58,0,0,0-.81-1.1,6.61,6.61,0,0,0-5.27-2.19A6.46,6.46,0,0,0,7.62,7.3a6.52,6.52,0,0,0-2.1,3.64,6.53,6.53,0,0,0,1.12,5.29,6.63,6.63,0,0,0,5.9,2.8,1.17,1.17,0,0,1,.37,0,.62.62,0,0,1-.08,1.22,8.09,8.09,0,0,1-7.62-3.92,8.52,8.52,0,0,1-1-5.43,7.82,7.82,0,0,1,.68-2.1A7.72,7.72,0,0,1,5.94,7.19a8.05,8.05,0,0,1,2.46-2,8.24,8.24,0,0,1,1.23-.52A9,9,0,0,1,11,4.36,8,8,0,0,1,13.27,4.42Z"/><path class="cls-4" d="M12.73,9.82v2.43a.75.75,0,0,1-.22.55l-2.39,2.39A.63.63,0,0,1,9,15a.6.6,0,0,1,.17-.62l.43-.43,1.74-1.74a.34.34,0,0,0,.11-.25c0-1.51,0-3,0-4.52a.64.64,0,0,1,.42-.65.62.62,0,0,1,.83.6c0,.74,0,1.48,0,2.21Z"/><path class="cls-4" d="M15.18,19.65a.64.64,0,0,1-.62-.48.61.61,0,0,1,.29-.68c.2-.11.41-.22.62-.31a.61.61,0,0,1,.81.29.61.61,0,0,1-.24.81c-.21.12-.42.22-.64.32A.44.44,0,0,1,15.18,19.65Z"/><path class="cls-4" d="M18.56,14.43a3.66,3.66,0,0,1,.23-.84A.62.62,0,0,1,20,14a4,4,0,0,1-.2.77.61.61,0,0,1-.73.37A.62.62,0,0,1,18.56,14.43Z"/><path class="cls-4" d="M17.66,17.81a.62.62,0,0,1-.55-.33.56.56,0,0,1,0-.63,5.18,5.18,0,0,1,.47-.58.62.62,0,0,1,1,.75,5,5,0,0,1-.5.62A.55.55,0,0,1,17.66,17.81Z"/></svg>