<svg xmlns="http://www.w3.org/2000/svg" viewBox="0 0 25 25"><defs><style>.cls-1{fill:#f6f6f6;}.cls-2{fill:#173558;}</style></defs><g id="Capa_1" data-name="Capa 1"><path class="cls-1" d="M12.5.47a12,12,0,1,0,12,12A12,12,0,0,0,12.5.47Z"/><path class="cls-2" d="M15.79,7.78a1.18,1.18,0,1,1,1.67,1.67l-3.34,3.34,3.34,3.34a1.18,1.18,0,1,1-1.67,1.67l-3.34-3.34L9.11,17.8a1.18,1.18,0,1,1-1.67-1.67l3.34-3.34L7.47,9.48a1.13,1.13,0,0,1-.35-.84A1.2,1.2,0,0,1,8.3,7.46a1.13,1.13,0,0,1,.84.35l3.31,3.31Z"/></g></svg>