<svg id="Capa_1" data-name="Capa 1" xmlns="http://www.w3.org/2000/svg" viewBox="0 0 24.2 24.3"><defs><style>.cls-1{fill:#034b86;}.cls-2{fill:#032040;}.cls-3{fill:#c33;}.cls-4{fill:#fff;}</style></defs><g id="Capa_3" data-name="Capa 3"><circle class="cls-1" cx="12.4" cy="12.3" r="11.7"/></g><g id="Capa_1-2" data-name="Capa 1-2"><path class="cls-2" d="M12.1,24.3A12.15,12.15,0,0,1,12.1,0,12.1,12.1,0,0,1,24.2,12.2h0A12,12,0,0,1,12.1,24.3ZM12.1,1A11.15,11.15,0,1,0,23.2,12.2h0A11,11,0,0,0,12.1,1Z"/></g><path class="cls-3" d="M13.8,3.6h0Z"/><path class="cls-3" d="M13.8,3.6Z"/><path class="cls-3" d="M13.9,3.6Z"/><path class="cls-4" d="M4.8,18.75c.24,0,.48,0,.73,0,.1,0,.13,0,.13-.13,0-1.35,0-2.71,0-4.07,0-.11,0-.14.15-.14H8.12c.11,0,.13,0,.13.13v4.07c0,.12,0,.15.14.14s.42,0,.63,0,.09,0,.09-.09,0-.32,0-.48q0-3.11,0-6.19c0-.12,0-.15.15-.15h2.3c.1,0,.13,0,.13.13q0,3.31,0,6.62c0,.13,0,.17.16.16a5.8,5.8,0,0,1,.59,0c.09,0,.11,0,.11-.12V13.68c0-.1,0-.13.13-.13H15c.11,0,.13,0,.13.13,0,1.65,0,3.29,0,4.93,0,.12,0,.15.15.14s.42,0,.63,0,.09,0,.08-.09V10.29c0-.13,0-.16.16-.16h2.3c.12,0,.14,0,.14.14v8.32c0,.13,0,.17.16.16s.4,0,.59,0,.11,0,.11.1c0,.25,0,.5,0,.76H4.93c-.11,0-.14,0-.14-.13C4.8,19.23,4.8,19,4.8,18.75Z"/><path class="cls-4" d="M17.94,5.85H16.07c-.1,0-.12,0-.12-.12s0-.41,0-.62S16,5,16.06,5h3.25c.08,0,.1,0,.1.11,0,1.07,0,2.15,0,3.22,0,.09,0,.1-.11.1h-.64c-.1,0-.11,0-.11-.12V6.47a.65.65,0,0,0-.12.11q-2.26,2.24-4.51,4.49c-.09.08-.13.08-.21,0L10.5,7.84c-.09-.09-.14-.08-.22,0L5.64,12.47c-.08.08-.13.1-.22,0A4.16,4.16,0,0,0,5,12.05c-.07-.07-.06-.1,0-.17L7.91,9c.79-.79,1.59-1.58,2.38-2.38.08-.08.12-.07.2,0,1.08,1.09,2.16,2.16,3.23,3.25.07.06.11.08.18,0l4-3.94Z"/></svg>