<svg id="Capa_1" data-name="Capa 1" xmlns="http://www.w3.org/2000/svg" viewBox="0 0 24.2 24.3"><defs><style>.cls-1{fill:#034b86;}.cls-2{fill:#032040;}.cls-3{fill:#c33;}.cls-4{fill:#fff;}</style></defs><g id="Capa_3" data-name="Capa 3"><circle class="cls-1" cx="12.4" cy="12.3" r="11.7"/></g><g id="Capa_1-2" data-name="Capa 1-2"><path class="cls-2" d="M12.1,24.3A12.15,12.15,0,0,1,12.1,0,12.1,12.1,0,0,1,24.2,12.2h0A12,12,0,0,1,12.1,24.3ZM12.1,1A11.15,11.15,0,1,0,23.2,12.2h0A11,11,0,0,0,12.1,1Z"/></g><path class="cls-3" d="M13.8,3.6h0Z"/><path class="cls-3" d="M13.8,3.6Z"/><path class="cls-3" d="M13.9,3.6Z"/><path class="cls-4" d="M19.19,15.5v2.73a.86.86,0,0,1-1,.95H12.77a.86.86,0,1,1,0-1.71h4.44c.24,0,.28-.07.27-.29,0-1.49,0-3,0-4.46a.86.86,0,1,1,1.71,0Z"/><path class="cls-4" d="M5.42,9.4v-3a.92.92,0,0,1,1-1h5.95a.92.92,0,1,1,0,1.84H7.54c-.21,0-.28,0-.28.27,0,1.61,0,3.23,0,4.85a.94.94,0,0,1-.5.88.87.87,0,0,1-.93,0,.9.9,0,0,1-.42-.81C5.43,11.4,5.42,10.4,5.42,9.4Z"/><path class="cls-4" d="M19.38,7.57a.87.87,0,0,1-.23.31l-.88.88c-.06.06-.09.08-.15,0L16,6.68c-.06-.06-.07-.09,0-.15l1-1a.62.62,0,0,1,.23-.14h.18a.52.52,0,0,1,.33.18c.48.49,1,1,1.45,1.45a.59.59,0,0,1,.19.33Z"/><path class="cls-4" d="M16.18,8s0,0,0,0l-.05.06L7.85,16.36c-.08.08-.13.08-.21,0s-.41-.42-.63-.62c-.07-.07-.07-.11,0-.19l6.67-6.66,1.6-1.61c.07-.07.1-.06.17,0l.67.68Z"/><path class="cls-4" d="M17.59,9.43l-.06.07L17,10,9.27,17.77c-.09.08-.13.09-.22,0s-.4-.42-.61-.62-.1-.12,0-.2l3-3L16.67,8.7c.09-.08.13-.09.21,0s.43.44.64.65Z"/><path class="cls-4" d="M6.5,16.43l1.86,1.86-1,.34-1.53.53c-.07,0-.14.05-.21,0s0-.13,0-.2C5.93,18.11,6.22,17.26,6.5,16.43Z"/></svg>