<svg xmlns="http://www.w3.org/2000/svg" viewBox="0 0 25 25"><defs><style>.cls-1{fill:#034b86;}.cls-2{fill:#032040;}.cls-3{fill:#fff;}</style></defs><g id="Capa_3" data-name="Capa 3"><circle class="cls-1" cx="12.74" cy="12.65" r="11.65"/></g><g id="Capa_1" data-name="Capa 1"><path class="cls-2" d="M12.71,24.65A12.15,12.15,0,1,1,24.85,12.5,12.16,12.16,0,0,1,12.71,24.65Zm0-23.3A11.15,11.15,0,1,0,23.85,12.5,11.16,11.16,0,0,0,12.71,1.35Z"/><path class="cls-3" d="M7.45,6.58a2.19,2.19,0,0,1,.25.2L9.61,8.69a.4.4,0,0,1,0,.66l-.24.23a.39.39,0,0,1-.64,0l-2-2-.16-.15c0,.09,0,.14,0,.19V9.22c0,.33-.13.46-.46.46H5.77c-.35,0-.48-.13-.48-.47V5.72c0-.32.13-.46.46-.46H9.28c.32,0,.44.14.45.46v.36a.38.38,0,0,1-.43.42H7.5Z"/><path class="cls-3" d="M17.47,18.25l-.16-.16-2-2a.4.4,0,0,1,0-.66l.27-.27a.38.38,0,0,1,.6,0l2,2a1.24,1.24,0,0,1,.14.18l.06,0a1.21,1.21,0,0,1,0-.19c0-.53,0-1.05,0-1.58,0-.32.13-.45.45-.45h.39a.38.38,0,0,1,.41.42V19c0,.34-.13.46-.46.46-1.17,0-2.33,0-3.5,0-.33,0-.46-.13-.46-.46v-.39a.36.36,0,0,1,.39-.38h1.68Z"/><path class="cls-3" d="M14.52,17.79H7.31a.45.45,0,0,1-.45-.45V10.39a.45.45,0,0,1,.45-.45.45.45,0,0,1,.45.45V16.9h6.76a.45.45,0,1,1,0,.89Z"/><path class="cls-3" d="M17.55,14.3a.41.41,0,0,1-.41-.41V7.63h-6a.42.42,0,0,1,0-.84h6.43a.42.42,0,0,1,.42.42v6.68A.41.41,0,0,1,17.55,14.3Z"/></g></svg>