<svg id="Capa_1" data-name="Capa 1" xmlns="http://www.w3.org/2000/svg" viewBox="0 0 24.2 24.3"><defs><style>.cls-1{fill:#034b86;}.cls-2{fill:#032040;}.cls-3{fill:#c33;}.cls-4{fill:#fff;}</style></defs><g id="Capa_3" data-name="Capa 3"><circle class="cls-1" cx="12.4" cy="12.3" r="11.7"/></g><g id="Capa_1-2" data-name="Capa 1-2"><path class="cls-2" d="M12.1,24.3A12.15,12.15,0,0,1,12.1,0,12.1,12.1,0,0,1,24.2,12.2h0A12,12,0,0,1,12.1,24.3ZM12.1,1A11.15,11.15,0,1,0,23.2,12.2h0A11,11,0,0,0,12.1,1Z"/></g><path class="cls-3" d="M21,11.1c-.1-.1-.1-.1,0-.2Z"/><path class="cls-3" d="M13.8,3.6h0Z"/><path class="cls-3" d="M21,10.7v0Z"/><path class="cls-3" d="M13.8,3.6Z"/><path class="cls-3" d="M13.9,3.6Z"/><path class="cls-4" d="M12.15,3.12a9.18,9.18,0,1,0,9.18,9.18h0A9.18,9.18,0,0,0,12.15,3.12Zm6.18,15.36A8.74,8.74,0,1,1,5.39,6.73c.19-.21.4-.42.61-.61L6.09,6A1.31,1.31,0,0,1,6,6.28c-.13.19-.35.27-.48.45a1.63,1.63,0,0,0-.27.6A1.63,1.63,0,0,1,5.16,8a1.27,1.27,0,0,0-.23.7c.36.1.2-.53.5-.56a2.09,2.09,0,0,1,0,.93c0,.35-.11.44.1.75s.23.4.55.43a.61.61,0,0,1,.54.46c.23.05.37.08.4.34.1.05.28.23.39.26s.4-.18.55,0-.31,1-.4,1.25a1,1,0,0,0,.18,1.17c.18.14.37.2.43.45a2.78,2.78,0,0,0,.11.63c.16.33.52.44.77.7a1.54,1.54,0,0,1,.31,1.24,8.45,8.45,0,0,0,.26,1.33c.06.47.2.91.3,1.36s.37.86.8.79c0-.16-.14-.29-.16-.45a3.38,3.38,0,0,1,0-.45.81.81,0,0,1,.15-.76c.07-.1.17-.17.25-.27s0-.13,0-.33.07-.13.22-.21a1.2,1.2,0,0,0,.23-.22,3.27,3.27,0,0,0,.44-.47c.12-.18.1-.44.22-.63s.33-.22.52-.36.14-.38.19-.63a2.78,2.78,0,0,1,.53-1.22c.33-.43.48-.79.07-1.19-.2-.21-.31-.15-.57-.22s-.39-.2-.6-.23H11.9c-.11,0-.09-.09-.2-.09s-.4.35-.54.13.16-.47.14-.63-.08-.54-.28-.65l-.34-.08a1.87,1.87,0,0,1-.31-.17,1.18,1.18,0,0,1-.43-.37c-.15,0-.26-.09-.42-.09s-.23.07-.39.05-.28-.12-.42-.1-.24.14-.33.18a1.91,1.91,0,0,1-.7.26c-.38.08-.44-.07-.42-.42l-.06-.11c.14-.39-.11-.42-.39-.52,0-.28.3-.47.16-.78-.29,0-.61.8-.85.45s.08-.89.23-1.08A2.06,2.06,0,0,1,7.25,8a.4.4,0,0,1,.43.22c.08.19,0,.36,0,.57.24-.06.18-.37.17-.54S8,8,8.12,7.79s.15-.39.31-.56a4,4,0,0,1,.41-.41c.16-.15.33-.14.5-.24s-.08-.47.28-.44c.13,0,.06.09.23,0L10.13,6c.35-.14.11-.18-.05-.36s.08-.19.29-.22.12-.08.25,0,.05.18.22.18c.33,0,.1-.34,0-.45s-.16-.31-.42-.32a.45.45,0,0,0,0-.28c-.22,0-.26-.13-.43-.19s-.23.12-.35.28-.34.14-.43.33,0,.37-.34.31a1,1,0,0,0,0-.41L8.6,4.8c0-.33.37-.36.62-.39s.37-.32.62-.37.4.33.69.11.08-.19,0-.31a.46.46,0,0,0-.12-.14h0l.67-.1c.06.12.12.24.19.36s.11.1.14.17-.05.18,0,.23.6-.45.71-.54.22-.17.19-.27a8.75,8.75,0,0,1,2.1.32l.16.21c.12.17.2.32.41.39s.53,0,.36.32-.32-.08-.4-.17-.42-.24-.41,0,.9.33.71.76c.1.06.31.17.28.32s-.29.07-.29.31a.56.56,0,0,0,.58.54.8.8,0,0,0,.15,0c.37-.14.09-.65.52-.71A.5.5,0,0,1,17,6c.12.1.2.32.37.3,0-.1-.07-.18-.08-.27a1,1,0,0,1,.47.31c.11.17.1.42.38.19a.61.61,0,0,0-.09-.13.78.78,0,0,1,.76.45c.34.69-.5.14-.54.5-.21-.06-.3-.23-.47-.33s-.24,0-.3,0-.07-.18-.15-.25c-.31-.25-1,.16-1.29.32-.08,0-.16,0-.22.13s0,.18,0,.32-.29.27-.36.43c-.18.36.19.89.14,1.29,0,.23-.27.47-.18.66s.18.15.23.25a2.59,2.59,0,0,0,.14.29,9.05,9.05,0,0,0,.75.89.53.53,0,0,0,.53.16,4.11,4.11,0,0,0,.6-.17c.21-.11.24-.25.46-.15s.34.3.55.11c.17.17,0,.46-.06.65a.81.81,0,0,0,.2.65.68.68,0,0,1,.18.62,3.89,3.89,0,0,1-.15.74c-.05.25-.21.42-.2.68a3.83,3.83,0,0,1,.08.68,5.52,5.52,0,0,1-.1.71c-.06.22-.22.42-.28.65a.75.75,0,0,0,.1.68c.16.18.32.08.51-.06a4,4,0,0,0,.77-1.13A8.28,8.28,0,0,0,20.43,15l.12-.25A8.73,8.73,0,0,1,18.33,18.48Z"/></svg>