<svg id="Capa_1" data-name="Capa 1" xmlns="http://www.w3.org/2000/svg" viewBox="0 0 24.3 24.3"><defs><style>.cls-1{fill:#c33;}.cls-2{fill:#034b86;}.cls-3{fill:#032040;}.cls-4{fill:#fff;}</style></defs><path class="cls-1" d="M13.82,4.07" transform="translate(0.06 0)"/><path class="cls-1" d="M13.82,4.07" transform="translate(0.06 0)"/><path class="cls-1" d="M13.92,4.07" transform="translate(0.06 0)"/><g id="Capa_3" data-name="Capa 3"><circle class="cls-2" cx="12.51" cy="12.3" r="11.7"/></g><g id="Capa_1-2" data-name="Capa 1-2"><path class="cls-3" d="M12.14,24.3a12.15,12.15,0,1,1,12.1-12.2v.1h0a12,12,0,0,1-11.9,12.1h-.2Zm0-23.3a11.15,11.15,0,1,0,11.1,11.2h0A11,11,0,0,0,12.45,1,1.61,1.61,0,0,0,12.14,1Z" transform="translate(0.06 0)"/></g><path class="cls-1" d="M13.84,3.6" transform="translate(0.06 0)"/><path class="cls-1" d="M13.84,3.6" transform="translate(0.06 0)"/><path class="cls-1" d="M13.94,3.6" transform="translate(0.06 0)"/><path class="cls-1" d="M13.8,5.33" transform="translate(0.06 0)"/><path class="cls-1" d="M13.8,5.33" transform="translate(0.06 0)"/><path class="cls-1" d="M13.88,5.33" transform="translate(0.06 0)"/><path class="cls-1" d="M13.82,4.91" transform="translate(0.06 0)"/><path class="cls-1" d="M13.82,4.91" transform="translate(0.06 0)"/><path class="cls-1" d="M13.91,4.91" transform="translate(0.06 0)"/><path class="cls-4" d="M13.59,5a.54.54,0,0,0,.25.06A1.8,1.8,0,0,1,15.2,6.82a1.8,1.8,0,0,1-1.39,1.65,2,2,0,0,1-2.15-.91,1.69,1.69,0,0,1,.68-2.27A1.68,1.68,0,0,1,13,5h.32a.19.19,0,0,0,.18,0Z" transform="translate(0.06 0)"/><path class="cls-4" d="M13.24,5a.28.28,0,0,1-.18,0h.18Z" transform="translate(0.06 0)"/><path class="cls-4" d="M13.56,5c-.06.06-.12,0-.18,0Z" transform="translate(0.06 0)"/><path class="cls-4" d="M8.58,11.69c.06-.28.12-.53.18-.78a.16.16,0,0,1,.1-.11,12,12,0,0,1,2-.66,3.25,3.25,0,0,1,2.06.21,1.91,1.91,0,0,1,1,1.81,14.59,14.59,0,0,1-.65,3c-.17.64-.38,1.26-.5,1.91a2.41,2.41,0,0,0,0,1,.6.6,0,0,0,.46.51,2.15,2.15,0,0,0,1.28,0l.49-.15c-.07.27-.13.54-.2.81,0,0,0,.05-.08.06a16.26,16.26,0,0,1-1.65.6,3.48,3.48,0,0,1-2.42-.14A1.77,1.77,0,0,1,9.58,18a6.9,6.9,0,0,1,.33-1.91c.28-1,.6-2,.82-3a2.65,2.65,0,0,0,0-1,.63.63,0,0,0-.52-.55,2.4,2.4,0,0,0-1.19,0Z" transform="translate(0.06 0)"/><circle class="cls-4" cx="13.21" cy="6.75" r="2.16"/></svg>