<svg xmlns="http://www.w3.org/2000/svg" viewBox="0 0 25 25"><defs><style>.cls-1{fill:#034b86;}.cls-2{fill:#032040;}.cls-3{fill:#fff;}.cls-4{fill:#f6f6f6;}.cls-5{fill:#b2b2b2;}</style></defs><g id="Capa_3" data-name="Capa 3"><circle class="cls-1" cx="12.74" cy="12.65" r="11.65"/></g><g id="Capa_1" data-name="Capa 1"><path class="cls-2" d="M12.71,24.65A12.15,12.15,0,1,1,24.85,12.5,12.16,12.16,0,0,1,12.71,24.65Zm0-23.3A11.15,11.15,0,1,0,23.85,12.5,11.16,11.16,0,0,0,12.71,1.35Z"/><polygon class="cls-3" points="12.5 12.59 4 7.72 12.5 3.52 21 7.72 12.5 12.59"/><polygon class="cls-4" points="17.86 10.58 20.09 11.68 12.5 16.03 4.91 11.68 7.14 10.58 6.24 10.06 3.09 11.62 12.5 17.02 21.91 11.62 18.76 10.06 17.86 10.58"/><polygon class="cls-5" points="17.65 14.93 20.09 16.14 12.5 20.49 4.91 16.14 7.35 14.93 6.45 14.42 3.09 16.08 12.5 21.48 21.91 16.08 18.55 14.42 17.65 14.93"/></g></svg>