<svg id="Capa_1" data-name="Capa 1" xmlns="http://www.w3.org/2000/svg" viewBox="0 0 24.34 24.37"><defs><style>.cls-1{fill:#034b86;}.cls-2{fill:#032040;}.cls-3{fill:#fff;}.cls-4{fill:#c33;}</style></defs><g id="Capa_3" data-name="Capa 3"><circle class="cls-1" cx="12.5" cy="12.51" r="11.7"/></g><g id="Capa_1-2" data-name="Capa 1-2"><path class="cls-2" d="M12.2,24.37A12.15,12.15,0,0,1,0,12.27H0a12.17,12.17,0,0,1,24.34-.2v.16h0a12,12,0,0,1-11.9,12.1H12.2Zm0-23.3A11.15,11.15,0,0,0,1,12.17H1a11.17,11.17,0,1,0,22.34.16v-.06h0a11,11,0,0,0-10.8-11.2H12.2Z" transform="translate(0 0)"/></g><path class="cls-3" d="M3.39,15.3" transform="translate(0 0)"/><path class="cls-3" d="M3.39,15.3" transform="translate(0 0)"/><path class="cls-4" d="M2.9,23.07" transform="translate(0 0)"/><path class="cls-3" d="M6.69,14.18H5.41c-.43,0-.5-.13-.5-.47V11.07c0-.32.16-.46.47-.46H8a.41.41,0,0,1,.46.35.24.24,0,0,1,0,.12v2.66c0,.32-.16.45-.47.45Z" transform="translate(0 0)"/><path class="cls-3" d="M6.76,18.74a1.87,1.87,0,0,1-1.89-1.85h0A1.89,1.89,0,0,1,6.75,15a2,2,0,0,1,1.91,1.9A1.91,1.91,0,0,1,6.76,18.74Z" transform="translate(0 0)"/><path class="cls-3" d="M6.65,9.54H5.28c-.45,0-.53-.22-.34-.58.45-.8.92-1.62,1.4-2.43.19-.33.44-.32.64,0,.47.8.94,1.6,1.39,2.41.2.35.06.56-.36.57S7.11,9.54,6.65,9.54Z" transform="translate(0 0)"/><rect class="cls-3" x="9.14" y="7.04" width="11.03" height="2.17" rx="1.09"/><rect class="cls-3" x="9.14" y="11.31" width="11.03" height="2.17" rx="1.09"/><rect class="cls-3" x="9.14" y="15.77" width="11.03" height="2.17" rx="1.09"/></svg>