<svg xmlns="http://www.w3.org/2000/svg" xmlns:xlink="http://www.w3.org/1999/xlink" viewBox="0 0 25 25"><defs><style>.cls-1{fill:none;}.cls-2{clip-path:url(#clip-path);}.cls-3{opacity:0.47;}.cls-4{fill:#036db2;}.cls-5{fill:#032040;}</style><clipPath id="clip-path"><rect class="cls-1" x="4.66" y="3.37" width="16.19" height="17.49"/></clipPath></defs><g id="Capa_1" data-name="Capa 1"><g class="cls-2"><g class="cls-3"><rect class="cls-4" x="6.25" y="10.35" width="2" height="27.48" transform="translate(-14.91 12.18) rotate(-45)"/><rect class="cls-4" x="7.97" y="7.83" width="2" height="27.48" transform="translate(-12.63 12.66) rotate(-45)"/><rect class="cls-4" x="9.7" y="5.32" width="2" height="27.48" transform="translate(-10.34 13.15) rotate(-45)"/><rect class="cls-4" x="11.43" y="2.8" width="2" height="27.48" transform="translate(-8.05 13.63) rotate(-45)"/><rect class="cls-4" x="13.15" y="0.28" width="2" height="27.48" transform="translate(-5.77 14.11) rotate(-45)"/><rect class="cls-4" x="14.88" y="-2.24" width="2" height="27.48" transform="translate(-3.48 14.6) rotate(-45)"/><rect class="cls-4" x="16.61" y="-4.76" width="2" height="27.48" transform="translate(-1.19 15.08) rotate(-45)"/><rect class="cls-4" x="18.34" y="-7.28" width="2" height="27.48" transform="translate(1.09 15.56) rotate(-45)"/><rect class="cls-4" x="20.06" y="-9.8" width="2" height="27.48" transform="translate(3.38 16.05) rotate(-45)"/><rect class="cls-4" x="21.79" y="-12.31" width="2" height="27.48" transform="translate(5.67 16.53) rotate(-45)"/></g></g><polygon class="cls-5" points="20.85 19.84 5.3 19.84 5.3 4.01 4.01 2.72 4.01 21.18 22.14 21.18 22.14 20.85 20.85 19.56 20.85 19.84"/><polygon class="cls-4" points="4.01 2.4 4.01 2.72 5.3 4.01 5.3 3.74 20.85 3.74 20.85 19.56 22.14 20.85 22.14 2.4 4.01 2.4"/><polygon class="cls-5" points="6.44 5.46 7.39 4.51 4.64 1.76 1.92 4.48 2.84 5.39 4.61 3.63 6.44 5.46"/><polygon class="cls-5" points="19.38 22.29 20.33 23.24 23.08 20.49 20.36 17.77 19.45 18.69 21.21 20.46 19.38 22.29"/></g></svg>