<svg xmlns="http://www.w3.org/2000/svg" xmlns:xlink="http://www.w3.org/1999/xlink" viewBox="0 0 25 25"><defs><style>.cls-1{fill:none;}.cls-2{clip-path:url(#clip-path);}.cls-3{opacity:0.47;}.cls-4{fill:#036db2;}</style><clipPath id="clip-path"><rect class="cls-1" x="4.66" y="-26.99" width="16.19" height="17.49"/></clipPath></defs><g id="Capa_1" data-name="Capa 1"><g class="cls-2"><g class="cls-3"><rect class="cls-4" x="6.25" y="-20" width="2" height="27.48" transform="translate(6.55 3.29) rotate(-45)"/><rect class="cls-4" x="7.97" y="-22.52" width="2" height="27.48" transform="translate(8.84 3.77) rotate(-45)"/></g></g><path class="cls-4" d="M23.27,18,7,1.73a1.36,1.36,0,0,0-1.94,0L1.73,5.07A1.36,1.36,0,0,0,1.73,7L18,23.27a1.36,1.36,0,0,0,1.94,0l3.34-3.34A1.36,1.36,0,0,0,23.27,18Zm-3.93,4.69a.53.53,0,0,1-.77,0L2.32,6.43a.53.53,0,0,1,0-.77L5.66,2.32a.53.53,0,0,1,.77,0L7.66,3.55l-.83.84a.54.54,0,0,0,0,.78.56.56,0,0,0,.79,0l.83-.84L9.5,5.39,7.78,7.1a.56.56,0,0,0,.79.79l1.72-1.71,1.05,1.05-.84.84a.53.53,0,0,0,0,.77.55.55,0,0,0,.78,0L12.12,8l1.05,1.05-.84.84a.56.56,0,0,0,.79.79L14,9.85l1,1.05L13.3,12.62a.54.54,0,0,0,0,.77.53.53,0,0,0,.77,0l1.72-1.72,1.06,1.06-.84.83a.56.56,0,0,0,.79.79l.83-.84,1.06,1.06-.84.83a.55.55,0,0,0,.78.78l.84-.83,1.05,1.05L18.8,18.13a.56.56,0,0,0,.79.78l1.72-1.71,1.37,1.37a.53.53,0,0,1,0,.77Z"/></g></svg>