<svg xmlns="http://www.w3.org/2000/svg" xmlns:xlink="http://www.w3.org/1999/xlink" viewBox="0 0 25 25"><defs><style>.cls-1{fill:none;}.cls-2{fill:#034b86;}.cls-3{fill:#032040;}.cls-4{fill:#fff;}.cls-5{clip-path:url(#clip-path);}.cls-6{opacity:0.47;}.cls-7{fill:#036db2;}</style><clipPath id="clip-path"><rect class="cls-1" x="4.66" y="34.43" width="16.19" height="17.49"/></clipPath></defs><g id="Capa_3" data-name="Capa 3"><circle class="cls-2" cx="12.74" cy="12.65" r="11.65"/></g><g id="Capa_1" data-name="Capa 1"><path class="cls-3" d="M12.71,24.65A12.15,12.15,0,1,1,24.85,12.5,12.16,12.16,0,0,1,12.71,24.65Zm0-23.3A11.15,11.15,0,1,0,23.85,12.5,11.16,11.16,0,0,0,12.71,1.35Z"/><path class="cls-4" d="M12.79,15.7,8.6,21.6,3.53,18.05c.49-.7,1-1.44,1.56-2.2l6.12-8.72a10.24,10.24,0,0,1,2.84-2.84,2.91,2.91,0,0,1,1.75-.61,2.06,2.06,0,0,1,1,.31c1.23.82,2.44,1.69,3.65,2.54a2.4,2.4,0,0,0,.26.18A2,2,0,0,1,21.75,9a7.84,7.84,0,0,1-.91,2.74A11.56,11.56,0,0,1,17,16.3a5.55,5.55,0,0,1-1.55.63,1.42,1.42,0,0,1-1.25-.3C13.71,16.29,13.24,16,12.79,15.7ZM13.93,5.28l.39.33-.42.65-.58-.38L12.33,7l1.58,1-.47.75L12,7.66l-.86,1.1.7.38-.45.83-.62-.57-.9,1.13,1.58,1-.47.73L9.46,11.15,8.6,12.29l.73.54-.44.63L8.2,13l-.86,1.08,1.52,1-.41.78L6.93,14.78,6.06,16l.71.35-.46.84-.67-.62-.93,1.32,3.7,2.6s0,0,.07-.07C10.65,17.26,12.84,14.15,15,11a10.85,10.85,0,0,1,4.46-4.21C18.36,6,17.3,5.28,16.21,4.55a.91.91,0,0,0-.74,0C15,4.72,14.47,5,13.93,5.28Zm.5,10c.11.78.44,1,1.08.85a3.07,3.07,0,0,0,.92-.42,11.08,11.08,0,0,0,4.39-6.08,3.66,3.66,0,0,0,.12-1.32c-.05-.69-.51-1-1.15-.7a7,7,0,0,0-1.67,1A11.7,11.7,0,0,0,15,12.82,5.16,5.16,0,0,0,14.43,15.27Zm-.84,0,.07-.77-.1-.06-.36.5Z"/><path class="cls-4" d="M13.59,15.24l-.39-.33.36-.5.1.06Z"/><path class="cls-4" d="M17,14a.88.88,0,0,1-1.16-1,4.27,4.27,0,0,1,1.24-2.48,4,4,0,0,1,1.07-.84c.81-.43,1.53.06,1.38,1a4.7,4.7,0,0,1-2.24,3.25A1.22,1.22,0,0,1,17,14Zm-.25-.77A3.44,3.44,0,0,0,18.7,10.4,3.27,3.27,0,0,0,16.75,13.27Z"/><g class="cls-5"><g class="cls-6"><rect class="cls-7" x="20.06" y="21.26" width="2" height="27.48" transform="translate(-18.58 25.15) rotate(-45)"/><rect class="cls-7" x="21.79" y="18.74" width="2" height="27.48" transform="translate(-16.29 25.63) rotate(-45)"/></g></g></g></svg>