<svg id="Capa_1" data-name="Capa 1" xmlns="http://www.w3.org/2000/svg" viewBox="0 0 24.2 24.3"><defs><style>.cls-1{fill:#034b86;}.cls-2{fill:#032040;}.cls-3{fill:#c33;}.cls-4{fill:#fff;}</style></defs><g id="Capa_3" data-name="Capa 3"><circle class="cls-1" cx="12.4" cy="12.3" r="11.7"/></g><g id="Capa_1-2" data-name="Capa 1-2"><path class="cls-2" d="M12.15,24.3a12.15,12.15,0,0,1,0-24.3,12.1,12.1,0,0,1,12.1,12.2h0A12,12,0,0,1,12.15,24.3Zm0-23.3a11.15,11.15,0,1,0,11.1,11.2h0A11,11,0,0,0,12.15,1Z" transform="translate(-0.05)"/></g><path class="cls-3" d="M13.85,3.6h0Z" transform="translate(-0.05)"/><path class="cls-3" d="M13.85,3.6Z" transform="translate(-0.05)"/><path class="cls-3" d="M14,3.6Z" transform="translate(-0.05)"/><path class="cls-4" d="M19.35,10.28c-.05,0,0,.1-.05.15a1.87,1.87,0,0,1-1.79,1.42H14.44A1.86,1.86,0,0,1,12.6,10V7a1.85,1.85,0,0,1,1.6-1.89l0,0h3.49a1.69,1.69,0,0,1,1,.41,1.64,1.64,0,0,1,.63,1.17s0,0,0,0Z" transform="translate(-0.05)"/><path class="cls-4" d="M10.07,5.1a3.38,3.38,0,0,1,.54.17A1.81,1.81,0,0,1,11.7,6.94c0,1,0,2,0,3.06a1.86,1.86,0,0,1-1.84,1.85H6.8A1.85,1.85,0,0,1,5,10C5,9,5,8,5,7A1.85,1.85,0,0,1,6.55,5.12l0,0Z" transform="translate(-0.05)"/><path class="cls-4" d="M19.35,16.52a.68.68,0,0,0-.08.31,3.38,3.38,0,1,1,.05-1.1s0,0,0,0Z" transform="translate(-0.05)"/><path class="cls-4" d="M11.7,16.12v1.49a1.85,1.85,0,0,1-1.87,1.88q-1.5,0-3,0A1.84,1.84,0,0,1,5,17.62c0-1,0-2,0-3a1.85,1.85,0,0,1,1.89-1.89h3a1.85,1.85,0,0,1,1.9,1.9Z" transform="translate(-0.05)"/><path class="cls-1" d="M13.5,8.48V7a1,1,0,0,1,1-1h2.95a1,1,0,0,1,1,1V10a1,1,0,0,1-1,1H14.5a1,1,0,0,1-1-1Z" transform="translate(-0.05)"/><path class="cls-4" d="M5.85,8.47V7a1,1,0,0,1,1-1h3a1,1,0,0,1,1,1v3a1,1,0,0,1-1,1h-3a1,1,0,0,1-1-1Z" transform="translate(-0.05)"/><path class="cls-1" d="M13.5,16.11A2.48,2.48,0,1,1,16,18.6,2.47,2.47,0,0,1,13.5,16.11Z" transform="translate(-0.05)"/><path class="cls-1" d="M5.85,16.12V14.65a1,1,0,0,1,1-1h3a1,1,0,0,1,1,1v3a1,1,0,0,1-1,1h-3a1,1,0,0,1-1-1Z" transform="translate(-0.05)"/></svg>