<svg id="Capa_1" data-name="Capa 1" xmlns="http://www.w3.org/2000/svg" xmlns:xlink="http://www.w3.org/1999/xlink" viewBox="0 0 24.2 24.3"><defs><style>.cls-1{fill:#034b86;}.cls-2{fill:#032040;}.cls-3{fill:#c33;}.cls-4{fill:#fff;}.cls-5{fill:url(#Degradado_sin_nombre_17);}</style><linearGradient id="Degradado_sin_nombre_17" x1="7.37" y1="16.1" x2="27.12" y2="16.12" gradientUnits="userSpaceOnUse"><stop offset="0" stop-color="#fff"/><stop offset="0.97" stop-color="#034b86"/></linearGradient></defs><g id="Capa_3" data-name="Capa 3"><circle class="cls-1" cx="12.4" cy="12.3" r="11.7"/></g><g id="Capa_1-2" data-name="Capa 1-2"><path class="cls-2" d="M12.1,24.3A12.15,12.15,0,0,1,12.1,0,12.1,12.1,0,0,1,24.2,12.2h0A12,12,0,0,1,12.1,24.3ZM12.1,1A11.15,11.15,0,1,0,23.2,12.2h0A11,11,0,0,0,12.1,1Z" transform="translate(0 0)"/></g><path class="cls-3" d="M13.8,3.6h0Z" transform="translate(0 0)"/><path class="cls-3" d="M13.8,3.6Z" transform="translate(0 0)"/><path class="cls-3" d="M13.9,3.6Z" transform="translate(0 0)"/><path class="cls-1" d="M8.57,7.47h.65a2.32,2.32,0,0,1,.76.09.79.79,0,0,1,.36.32.94.94,0,0,1,.14.52A.83.83,0,0,1,10.3,9a.85.85,0,0,1-.47.31,2.49,2.49,0,0,1-.65.05v1.36H8.57Zm.61,1.25h.2a1.09,1.09,0,0,0,.31,0,.42.42,0,0,0,.15-.11.35.35,0,0,0,.05-.18.3.3,0,0,0-.15-.28.87.87,0,0,0-.39-.06H9.18Z" transform="translate(0 0)"/><path class="cls-1" d="M12.21,7.38a1.6,1.6,0,0,1,1.17.5,1.67,1.67,0,0,1,.49,1.2,1.65,1.65,0,0,1-.49,1.19,1.59,1.59,0,0,1-1.17.48,1.57,1.57,0,0,1-1.2-.5,1.63,1.63,0,0,1-.48-1.18,1.67,1.67,0,0,1,.23-.85,1.56,1.56,0,0,1,.61-.61A1.66,1.66,0,0,1,12.21,7.38Zm0,.6a1,1,0,0,0-.75.31,1.09,1.09,0,0,0-.3.79,1,1,0,0,0,.38.84,1,1,0,0,0,.68.24A1,1,0,0,0,13,9.85,1.12,1.12,0,0,0,13,8.3,1,1,0,0,0,12.2,8Z" transform="translate(0 0)"/><path class="cls-1" d="M13.79,7.47h1.77v.6H15v2.6h-.62V8.07h-.57Z" transform="translate(0 0)"/><path class="cls-4" d="M20.56,15.58a.79.79,0,0,0-.08.31,3.92,3.92,0,0,1-.86,1.59,18.33,18.33,0,0,1-2.3,2.19l-.89.77a.49.49,0,0,1-.69,0c-.93-.81-1.9-1.58-2.76-2.47a5,5,0,0,1-1.21-1.84,2.78,2.78,0,0,1,1-3.18,2.31,2.31,0,0,1,3.17.56c.09.12.13.13.22,0a2.39,2.39,0,0,1,4.1.48,2.46,2.46,0,0,1,.24.84s0,0,0,.05Z" transform="translate(0 0)"/><path class="cls-4" d="M11.29,3.71a1.84,1.84,0,0,1,.73.47l6.12,5.68a1,1,0,1,1-1.28,1.51L12.4,7.21,11.25,6.13c-.09-.09-.14-.09-.24,0L6.29,10.51l-.91.85a1,1,0,0,1-1.43,0A1,1,0,0,1,4,9.94C5,9,6.08,8,7.12,7.06l3.22-3A1.67,1.67,0,0,1,11,3.71Z" transform="translate(0 0)"/><path class="cls-4" d="M12.26,18.58h-6c-.44,0-.62-.18-.62-.62V12.59a.31.31,0,0,1,.1-.24L11,7.48c.08-.08.13-.1.22,0l4.93,4.6,0,.06c-.09.11-.16.1-.28,0a3.33,3.33,0,0,0-4.16.35.45.45,0,0,1-.35.15H8.23c-.41,0-.59.19-.59.6V16a.51.51,0,0,0,.57.58h2.54c.07,0,.13,0,.17.08a5.76,5.76,0,0,0,1.21,1.76Z" transform="translate(0 0)"/><path class="cls-4" d="M17.56,8,16,6.52,14.68,5.33a.2.2,0,0,1-.06-.25.47.47,0,0,1,.45-.34h2a.47.47,0,0,1,.47.5C17.56,6.14,17.56,7,17.56,8Z" transform="translate(0 0)"/><path class="cls-4" d="M9.65,13.63h.87c.09,0,.12,0,.12.12q0,.87,0,1.74c0,.1,0,.12-.12.12H8.74c-.09,0-.12,0-.12-.11,0-.59,0-1.17,0-1.75,0-.09,0-.12.12-.12Z" transform="translate(0 0)"/><path class="cls-5" d="M16.59,17.69h0a.2.2,0,0,1-.18-.12L15.27,15.1l-1.1,1.21a.23.23,0,0,1-.15.07h-2.7a.22.22,0,0,1-.21-.21.21.21,0,0,1,.21-.21h2.6l1.26-1.37a.23.23,0,0,1,.19-.07.22.22,0,0,1,.15.12L16.6,17l1.12-2a.21.21,0,0,1,.37,0l.45,1.07h2.37a.2.2,0,0,1,.21.2.21.21,0,0,1-.21.21H18.4a.22.22,0,0,1-.19-.13l-.33-.79-1.11,2A.21.21,0,0,1,16.59,17.69Z" transform="translate(0 0)"/></svg>