<svg id="Capa_1" data-name="Capa 1" xmlns="http://www.w3.org/2000/svg" viewBox="0 0 24.2 24.3"><defs><style>.cls-1{fill:#034b86;}.cls-2{fill:#032040;}.cls-3{fill:#c33;}.cls-4{fill:#fff;}</style></defs><g id="Capa_3" data-name="Capa 3"><circle class="cls-1" cx="12.4" cy="12.3" r="11.7"/></g><g id="Capa_1-2" data-name="Capa 1-2"><path class="cls-2" d="M12.1,24.3A12.15,12.15,0,0,1,12.1,0,12.1,12.1,0,0,1,24.2,12.2h0A12,12,0,0,1,12.1,24.3ZM12.1,1A11.15,11.15,0,1,0,23.2,12.2h0A11,11,0,0,0,12.1,1Z" transform="translate(0 0)"/></g><path class="cls-3" d="M13.8,3.6h0Z" transform="translate(0 0)"/><path class="cls-3" d="M13.8,3.6Z" transform="translate(0 0)"/><path class="cls-3" d="M13.9,3.6Z" transform="translate(0 0)"/><path class="cls-1" d="M8.57,7.47h.65a2.32,2.32,0,0,1,.76.09.79.79,0,0,1,.36.32.94.94,0,0,1,.14.52A.83.83,0,0,1,10.3,9a.85.85,0,0,1-.47.31,2.49,2.49,0,0,1-.65.05v1.36H8.57Zm.61,1.25h.2a1.09,1.09,0,0,0,.31,0,.42.42,0,0,0,.15-.11.35.35,0,0,0,.05-.18.3.3,0,0,0-.15-.28.87.87,0,0,0-.39-.06H9.18Z" transform="translate(0 0)"/><path class="cls-1" d="M12.21,7.38a1.6,1.6,0,0,1,1.17.5,1.67,1.67,0,0,1,.49,1.2,1.65,1.65,0,0,1-.49,1.19,1.59,1.59,0,0,1-1.17.48,1.57,1.57,0,0,1-1.2-.5,1.63,1.63,0,0,1-.48-1.18,1.67,1.67,0,0,1,.23-.85,1.56,1.56,0,0,1,.61-.61A1.66,1.66,0,0,1,12.21,7.38Zm0,.6a1,1,0,0,0-.75.31,1.09,1.09,0,0,0-.3.79,1,1,0,0,0,.38.84,1,1,0,0,0,.68.24A1,1,0,0,0,13,9.85,1.12,1.12,0,0,0,13,8.3,1,1,0,0,0,12.2,8Z" transform="translate(0 0)"/><path class="cls-1" d="M13.79,7.47h1.77v.6H15v2.6h-.62V8.07h-.57Z" transform="translate(0 0)"/><path class="cls-4" d="M4.06,10.37a1.35,1.35,0,0,1,.49-.62l6.51-5.61A.92.92,0,0,1,12,3.88a1,1,0,0,1,.33.2L19,9.9a.76.76,0,0,1,.28.86.74.74,0,0,1-.69.55.81.81,0,0,1-.61-.22l-4.53-3.9c-.55-.47-1.11-.94-1.66-1.43-.11-.09-.16-.07-.25,0-2,1.76-4.1,3.51-6.13,5.28a.81.81,0,0,1-1.38-.35h0Z" transform="translate(0 0)"/><path class="cls-4" d="M15.93,9.89A4.62,4.62,0,0,0,11.18,12v-.87a.37.37,0,0,0,0-.23.4.4,0,0,0-.37-.22H9.21a.39.39,0,0,0-.41.44c0,.49,0,1,0,1.47a.42.42,0,0,0,.48.48h1.27c.13,0,.18,0,.13.16a3.09,3.09,0,0,0-.12.75c0,.12-.06.14-.17.13H9.26a.41.41,0,0,0-.46.47V16a.41.41,0,0,0,.46.46h1.45a.33.33,0,0,0,.17,0c.13-.08.18,0,.24.1A4.2,4.2,0,0,0,12.3,18l.11.09c0,.05-.09,0-.13,0H6.63c-.34,0-.49-.15-.49-.49V11.33a.56.56,0,0,1,.21-.47l5-4.34c.24-.2.41-.21.62,0l3.88,3.34Z" transform="translate(0 0)"/><path class="cls-4" d="M15.08,10.61a3.75,3.75,0,0,1,3,6,.12.12,0,0,0,0,.19c.13.12.23.22.43.19a.65.65,0,0,1,.57.24l1,1a.77.77,0,0,1,0,1.12.77.77,0,0,1-1.12,0c-.35-.34-.69-.68-1-1a.82.82,0,0,1-.25-.71c0-.17-.16-.23-.25-.33s-.12,0-.17.07a3.75,3.75,0,1,1-3.67-6.49A4,4,0,0,1,15.08,10.61Z" transform="translate(0 0)"/><path class="cls-1" d="M18,14.36a3,3,0,1,1-3-3A3,3,0,0,1,18,14.36Z" transform="translate(0 0)"/></svg>