<svg xmlns="http://www.w3.org/2000/svg" xmlns:xlink="http://www.w3.org/1999/xlink" viewBox="0 0 24.2 24.3"><defs><style>.cls-1,.cls-319{fill:none;}.cls-2{isolation:isolate;}.cls-3{fill:#034b86;}.cls-4{fill:#032040;}.cls-5{fill:#c33;}.cls-6{fill:#fff;}.cls-7{opacity:0.81;}.cls-8{opacity:0.79;}.cls-9{mix-blend-mode:multiply;}.cls-10{clip-path:url(#clip-path);}.cls-11{fill:#fffffe;}.cls-12{fill:#fffefe;}.cls-13{fill:#fefefe;}.cls-14{fill:#fefefd;}.cls-15{fill:#fefdfd;}.cls-16{fill:#fefdfc;}.cls-17{fill:#fefdfb;}.cls-18{fill:#fdfdfb;}.cls-19{fill:#fdfcfb;}.cls-20{fill:#fdfcfa;}.cls-21{fill:#fdfcf9;}.cls-22{fill:#fdfbf9;}.cls-23{fill:#fcfbf9;}.cls-24{fill:#fcfbf8;}.cls-25{fill:#fcfaf8;}.cls-26{fill:#fcfaf7;}.cls-27{fill:#fbfaf6;}.cls-28{fill:#fbf9f6;}.cls-29{fill:#fbf9f5;}.cls-30{fill:#fbf8f5;}.cls-31{fill:#fbf8f4;}.cls-32{fill:#faf8f4;}.cls-33{fill:#faf8f3;}.cls-34{fill:#faf7f3;}.cls-35{fill:#faf7f2;}.cls-36{fill:#f9f6f1;}.cls-37{fill:#f9f6f0;}.cls-38{fill:#f9f5f0;}.cls-39{fill:#f9f5ef;}.cls-40{fill:#f8f5ef;}.cls-41{fill:#f8f5ee;}.cls-42{fill:#f8f4ee;}.cls-43{fill:#f8f4ed;}.cls-44{fill:#f7f3ec;}.cls-45{fill:#f7f3eb;}.cls-46{fill:#f7f2eb;}.cls-47{fill:#f7f2ea;}.cls-48{fill:#f6f2ea;}.cls-49{fill:#f6f1e9;}.cls-50{fill:#f6f1e8;}.cls-51{fill:#f6f0e8;}.cls-52{fill:#f5f0e8;}.cls-53{fill:#f5f0e7;}.cls-54{fill:#f5efe6;}.cls-55{fill:#f4efe5;}.cls-56{fill:#f4eee5;}.cls-57{fill:#f4eee4;}.cls-58{fill:#f4eee3;}.cls-59{fill:#f4ede3;}.cls-60{fill:#f3ede3;}.cls-61{fill:#f3ede2;}.cls-62{fill:#f3ece1;}.cls-63{fill:#f3ece0;}.cls-64{fill:#f2ece0;}.cls-65{fill:#f2ebe0;}.cls-66{fill:#f2ebdf;}.cls-67{fill:#f2ebde;}.cls-68{fill:#f1eade;}.cls-69{fill:#f1eadd;}.cls-70{fill:#f1e9dc;}.cls-71{fill:#f0e9db;}.cls-72{fill:#f0e8db;}.cls-73{fill:#f0e8da;}.cls-74{fill:#f0e7d9;}.cls-75{fill:#efe7d9;}.cls-76{fill:#efe7d8;}.cls-77{fill:#efe6d8;}.cls-78{fill:#efe6d7;}.cls-79{fill:#eee6d6;}.cls-80{fill:#eee5d6;}.cls-81{fill:#eee5d5;}.cls-82{fill:#eee4d5;}.cls-83{fill:#ede4d4;}.cls-84{fill:#ede4d3;}.cls-85{fill:#ede3d3;}.cls-86{fill:#ede3d2;}.cls-87{fill:#ece2d1;}.cls-88{fill:#ece2d0;}.cls-89{fill:#ece1d0;}.cls-90{fill:#ebe1cf;}.cls-91{fill:#ebe0ce;}.cls-92{fill:#ebe0cd;}.cls-93{fill:#eae0cd;}.cls-94{fill:#eadfcc;}.cls-95{fill:#eadfcb;}.cls-96{fill:#eadecb;}.cls-97{fill:#e9deca;}.cls-98{fill:#e9ddc9;}.cls-99{fill:#e9ddc8;}.cls-100{fill:#e8dcc8;}.cls-101{fill:#e8dcc7;}.cls-102{fill:#e8dcc6;}.cls-103{fill:#e8dbc6;}.cls-104{fill:#e7dbc5;}.cls-105{fill:#e7dac4;}.cls-106{fill:#e7dac3;}.cls-107{fill:#e6d9c3;}.cls-108{fill:#e6d9c2;}.cls-109{fill:#e6d8c1;}.cls-110{fill:#e5d8c1;}.cls-111{fill:#e5d8c0;}.cls-112{fill:#e5d7bf;}.cls-113{fill:#e5d7be;}.cls-114{fill:#e4d6be;}.cls-115{fill:#e4d6bd;}.cls-116{fill:#e4d5bd;}.cls-117{fill:#e4d5bc;}.cls-118{fill:#e3d5bc;}.cls-119{fill:#e3d4bb;}.cls-120{fill:#e3d4ba;}.cls-121{fill:#e2d3b9;}.cls-122{fill:#e2d3b8;}.cls-123{fill:#e2d2b8;}.cls-124{fill:#e1d2b7;}.cls-125{fill:#e1d2b6;}.cls-126{fill:#e1d1b6;}.cls-127{fill:#e1d1b5;}.cls-128{fill:#e1d0b5;}.cls-129{fill:#e0d0b4;}.cls-130{fill:#e0d0b3;}.cls-131{fill:#e0cfb3;}.cls-132{fill:#e0cfb2;}.cls-133{fill:#dfceb2;}.cls-134{fill:#dfceb1;}.cls-135{fill:#dfceb0;}.cls-136{fill:#dfcdb0;}.cls-137{fill:#decdaf;}.cls-138{fill:#decdae;}.cls-139{fill:#deccae;}.cls-140{fill:#ddccad;}.cls-141{fill:#ddcbad;}.cls-142{fill:#ddcbac;}.cls-143{fill:#ddcbab;}.cls-144{fill:#dccaab;}.cls-145{fill:#dccaaa;}.cls-146{fill:#dcc9a9;}.cls-147{fill:#dbc9a8;}.cls-148{fill:#dbc8a7;}.cls-149{fill:#dbc7a6;}.cls-150{fill:#dac7a5;}.cls-151{fill:#dac6a5;}.cls-152{fill:#dac6a4;}.cls-153{fill:#d9c6a3;}.cls-154{fill:#d9c5a3;}.cls-155{fill:#d9c5a2;}.cls-156{fill:#d9c4a1;}.cls-157{fill:#d8c4a1;}.cls-158{fill:#d8c3a0;}.cls-159{fill:#d8c39f;}.cls-160{fill:#d7c29e;}.cls-161{fill:#d7c29d;}.cls-162{fill:#d7c19c;}.cls-163{fill:#d6c19c;}.cls-164{fill:#d6c09b;}.cls-165{fill:#d6c09a;}.cls-166{fill:#d5bf9a;}.cls-167{fill:#d5bf99;}.cls-168{fill:#d5bf98;}.cls-169{fill:#d5be97;}.cls-170{fill:#d4be97;}.cls-171{fill:#d4bd96;}.cls-172{fill:#d4bd95;}.cls-173{fill:#d3bc95;}.cls-174{fill:#d3bc94;}.cls-175{fill:#d3bb93;}.cls-176{fill:#d2bb92;}.cls-177{fill:#d2ba92;}.cls-178{fill:#d2ba91;}.cls-179{fill:#d2ba90;}.cls-180{fill:#d1b98f;}.cls-181{fill:#d1b88e;}.cls-182{fill:#d0b88d;}.cls-183{fill:#d0b78c;}.cls-184{fill:#d0b78b;}.cls-185{fill:#cfb68b;}.cls-186{fill:#cfb68a;}.cls-187{fill:#cfb589;}.cls-188{fill:#ceb588;}.cls-189{fill:#ceb488;}.cls-190{fill:#ceb487;}.cls-191{fill:#cdb386;}.cls-192{fill:#cdb385;}.cls-193{fill:#cdb284;}.cls-194{fill:#ccb284;}.cls-195{fill:#ccb183;}.cls-196{fill:#ccb182;}.cls-197{fill:#cbb081;}.cls-198{fill:#cbb080;}.cls-199{fill:#cbaf80;}.cls-200{fill:#caaf7f;}.cls-201{fill:#caae7e;}.cls-202{fill:#caae7d;}.cls-203{fill:#c9ad7c;}.cls-204{fill:#c9ad7b;}.cls-205{fill:#c9ac7b;}.cls-206{fill:#c8ac7a;}.cls-207{fill:#c8ab79;}.cls-208{fill:#c8aa78;}.cls-209{fill:#c7aa77;}.cls-210{fill:#c7a976;}.cls-211{fill:#c6a875;}.cls-212{fill:#c6a874;}.cls-213{fill:#c6a773;}.cls-214{fill:#c5a772;}.cls-215{fill:#c5a671;}.cls-216{fill:#c5a670;}.cls-217{fill:#c4a570;}.cls-218{fill:#c4a56f;}.cls-219{fill:#c4a46e;}.cls-220{fill:#c3a36d;}.cls-221{fill:#c3a36c;}.cls-222{fill:#c2a26b;}.cls-223{fill:#c2a26a;}.cls-224{fill:#c2a169;}.cls-225{fill:#c1a168;}.cls-226{fill:#c1a068;}.cls-227{fill:#c1a067;}.cls-228{fill:#c09f66;}.cls-229{fill:#c09e65;}.cls-230{fill:#bf9e64;}.cls-231{fill:#bf9d63;}.cls-232{fill:#bf9d62;}.cls-233{fill:#be9c61;}.cls-234{fill:#be9c60;}.cls-235{fill:#be9b5f;}.cls-236{fill:#bd9a5e;}.cls-237{fill:#bd9a5d;}.cls-238{fill:#bc995c;}.cls-239{fill:#bc985b;}.cls-240{fill:#bb975a;}.cls-241{fill:#bb9759;}.cls-242{fill:#ba9658;}.cls-243{fill:#ba9657;}.cls-244{fill:#ba9556;}.cls-245{fill:#b99455;}.cls-246{fill:#b99454;}.cls-247{fill:#b99353;}.cls-248{fill:#b89352;}.cls-249{fill:#b89251;}.cls-250{fill:#b79150;}.cls-251{fill:#b7914f;}.cls-252{fill:#b7904e;}.cls-253{fill:#b6904d;}.cls-254{fill:#b68f4c;}.cls-255{fill:#b58e4b;}.cls-256{fill:#b58e4a;}.cls-257{fill:#b48d49;}.cls-258{fill:#b48c48;}.cls-259{fill:#b48c47;}.cls-260{fill:#b38b46;}.cls-261{fill:#b38b45;}.cls-262{fill:#b28a44;}.cls-263{fill:#b28943;}.cls-264{fill:#b28942;}.cls-265{fill:#b18841;}.cls-266{fill:#b18740;}.cls-267{fill:#b0873f;}.cls-268{fill:#b0863e;}.cls-269{fill:#af853d;}.cls-270{fill:#af853c;}.cls-271{fill:#af843b;}.cls-272{fill:#ae833a;}.cls-273{fill:#ae8339;}.cls-274{fill:#ad8238;}.cls-275{fill:#ad8137;}.cls-276{fill:#ac8135;}.cls-277{fill:#ac8034;}.cls-278{fill:#ac7f33;}.cls-279{fill:#ab7f32;}.cls-280{fill:#ab7e31;}.cls-281{fill:#aa7d30;}.cls-282{fill:#aa7d2f;}.cls-283{fill:#a97c2e;}.cls-284{fill:#a97b2d;}.cls-285{fill:#a87b2c;}.cls-286{fill:#a87a2b;}.cls-287{fill:#a8792a;}.cls-288{fill:#a77929;}.cls-289{fill:#a77827;}.cls-290{fill:#a67726;}.cls-291{fill:#a67725;}.cls-292{fill:#a57624;}.cls-293{fill:#a57523;}.cls-294{fill:#a47422;}.cls-295{fill:#a47421;}.cls-296{fill:#a37320;}.cls-297{fill:#a3721e;}.cls-298{fill:#a3721d;}.cls-299{fill:#a2711c;}.cls-300{fill:#a2701b;}.cls-301{fill:#a16f1a;}.cls-302{fill:#a16f19;}.cls-303{fill:#a06e18;}.cls-304{fill:#a06d16;}.cls-305{fill:#9f6d15;}.cls-306{fill:#9f6c14;}.cls-307{fill:#9e6b13;}.cls-308{fill:#9e6a12;}.cls-309{fill:#9d6a11;}.cls-310{fill:#9d690f;}.cls-311{fill:#9c680e;}.cls-312{fill:#9c670d;}.cls-313{fill:#9b670c;}.cls-314{fill:#9b660b;}.cls-315{fill:#9a650a;}.cls-316{fill:#9a6408;}.cls-317{fill:#996407;}.cls-318{fill:#996306;}.cls-319{stroke:#fff;stroke-miterlimit:10;}.cls-320{fill:url(#Degradado_sin_nombre_6);}</style><clipPath id="clip-path" transform="translate(0 0)"><path class="cls-1" d="M15,19.73c0,.24-1.28.43-2.86.43S9.29,20,9.29,19.73s1.28-.43,2.86-.43S15,19.5,15,19.73Z"/></clipPath><linearGradient id="Degradado_sin_nombre_6" x1="8.25" y1="9.28" x2="16.05" y2="9.28" gradientTransform="translate(19.13 -4.32) rotate(79.76)" gradientUnits="userSpaceOnUse"><stop offset="0" stop-color="#fff"/><stop offset="1" stop-color="#034b86"/></linearGradient></defs><g class="cls-2"><g id="Capa_1" data-name="Capa 1"><g id="Capa_3" data-name="Capa 3"><circle class="cls-3" cx="12.4" cy="12.3" r="11.7"/></g><g id="Capa_1-2" data-name="Capa 1-2"><path class="cls-4" d="M12.1,24.3A12.15,12.15,0,0,1,12.1,0,12.1,12.1,0,0,1,24.2,12.2h0A12,12,0,0,1,12.1,24.3ZM12.1,1A11.15,11.15,0,1,0,23.2,12.2h0A11,11,0,0,0,12.1,1Z" transform="translate(0 0)"/></g><path class="cls-5" d="M13.8,3.6h0Z" transform="translate(0 0)"/><path class="cls-5" d="M13.8,3.6Z" transform="translate(0 0)"/><path class="cls-5" d="M13.9,3.6Z" transform="translate(0 0)"/><path class="cls-6" d="M9.93,21.23H9.87l-.06,0-.06,0-.05,0H9.64l-.05,0-.06,0h0l-.1,0,0,0H9.29l0,0,0,0-.09-.05.47-.18.08,0,0,0,0,0,.08,0,.09,0h0l.05,0,0,0h.05l.05,0,0,0h.05l0,0-.36.24m.23-1.16-.48.09-.17,0-2.37.44a1.8,1.8,0,0,0,.08.21,1.28,1.28,0,0,0,.14.21,1.94,1.94,0,0,0,.2.21,2,2,0,0,0,.26.21c.1.06.2.13.32.19a3.54,3.54,0,0,0,.39.19L9,22l.5.14.56.13.6.09.62.06.64,0h1l.27,0,.31,0,.31,0,.3-.05.28-.05-.74-.85h0l-.25.05-.26,0-.27,0-.27,0H11.47l.12-.31h1.14l.23,0,.22,0,.21,0h0l-.21-.24H13l0,0-.1,0h-.79V20.9h.49l.25,0,.23,0-.21-.24h-.24l-.13,0h-1l-.13,0-.13,0-.12,0-.13,0-.11,0-.11,0-.1,0-.1,0-.09,0-.09,0-.07-.05-.07,0-.06-.05,0,0-.05-.05h0" transform="translate(0 0)"/><path class="cls-6" d="M9.65,19.22l-.34-.06.14-.07L9.6,19,9.76,19l.16-.06.26.09-.14.05-.14.06-.13.05-.12.06m2.54-.91h-.46l-.33,0-.33,0-.32,0-.32,0-.32,0-.31.07-.3.07-.3.08-.28.1-.28.1L8.38,19l-.25.13,1.65.23h.05l0,0h0l0,0h.22l-.06,0-.06,0-.06,0-.05,0,.39.05.1-.06.1-.06.11,0,.12-.05h.35l.1,0,.09,0,.1,0h.1l.07.06h.76l0-.07h.28l.08-.13h-.93l-.2,0-.19,0-.2,0h0l0,0h1v0h.55l.07-.1H11.44l-.14,0-.15,0-.14,0-.15,0-.16-.11.16,0,.17,0,.16,0h.17l.16,0h1.33l.19-.28h-.85" transform="translate(0 0)"/><path class="cls-6" d="M14.78,19.28l-1,.17h0l.19,0,0,0,0,0,0,0,0,0-.21,0s0,0,0,0,0,0,0,0,0,0,0,0,0,0,0,0v0a.06.06,0,0,1,0,0v0a.08.08,0,0,0,0,0l.23,0V20l0,0s0,0,0,0l-.23,0h0l.71.12a.36.36,0,0,0,0-.09l0-.09v-.09a.29.29,0,0,0,0-.09h.16s0,.05,0,.08v.07a.19.19,0,0,1,0,.08.24.24,0,0,1,0,.08h-.06v.08l.47.07h0v0l0,0h0V20h0v0h0v0h0v0h0l0-.07a.43.43,0,0,0,0-.07l-.06-.07L15,19.48,15,19.43l-.06-.05-.07-.05-.07,0m1.29-.2-.92.15.08.05.08,0,.08.06.07.06.08.07.06.08a.42.42,0,0,1,.06.08l.05.08h0v0h0v0h0V20h0v.11h0v0l0,0v0h0l1.42.23s0-.07,0-.11v-.1s0-.07,0-.11a.19.19,0,0,0,0-.1l0-.1a.47.47,0,0,1,0-.1L17,19.8l-.07-.09-.08-.09-.09-.09-.09-.08-.1-.08-.11-.08-.12-.07a.35.35,0,0,0-.12-.07l-.12-.07" transform="translate(0 0)"/><g class="cls-7"><g class="cls-2"><g class="cls-8"><path class="cls-6" d="M9.61,19.76l0-.1.06-.09,0,0,0-.05.06,0a.1.1,0,0,1,.05,0l.05,0,.06,0,.06,0,.06,0H9.92l0,0h0l0,0H9.72l0,0h0l0,0h.05l-.05,0,0,.05,0,0,0,.05H9.5l0,.08a.19.19,0,0,0,0,.07s0,.05,0,.08V20h0v0h0v0h0v0h0l.17,0,0-.05s0,0,0-.05,0,0,0-.06a.43.43,0,0,1,0-.05v-.1A.29.29,0,0,1,9.61,19.76Z" transform="translate(0 0)"/><path class="cls-6" d="M13.36,18.93h-1.2v0h-1l0,0h0l.2,0,.19,0,.2,0h1l.2,0,.19,0,.19,0,.18,0,.17.05.16.05.16.06.14.06h.11l-.11,0L14,19.12l-.13-.05-.13,0,0,0-.09,0-.09,0-.09,0-.1,0h0Z" transform="translate(0 0)"/><path class="cls-6" d="M14.68,20a.36.36,0,0,1,0,.09h0l-.08.1-.11.09-.13.1-.16.08L14,20.6l-.21.07-.23.07-.24.05h-.14l-.23,0-.25,0h-.49V21H13l.1,0,0,0h.15l.1,0,.1,0,.1,0,.1,0,0,0,.1,0,.09,0,.09,0,.08,0,.08,0,.08,0,.07,0,.07,0,0,0h.09l.06,0h0l0,0,0,0h.07l0,0,0,0,0,0,0,0h0l0,0,0,0,0,0,0,0v-.08h.06a.24.24,0,0,0,0-.08.19.19,0,0,0,0-.08v-.07s0,0,0-.08h-.16a.29.29,0,0,1,0,.09v.09Z" transform="translate(0 0)"/><polygon class="cls-6" points="9.13 19.65 9.13 19.65 9.13 19.64 9.14 19.64 9.14 19.63 9.15 19.62 9.16 19.61 9.16 19.6 9.17 19.59 8.73 19.57 8.72 19.59 8.71 19.6 8.7 19.61 8.69 19.62 8.68 19.63 8.68 19.63 8.68 19.64 8.67 19.64 8.65 19.67 8.64 19.69 8.63 19.7 8.63 19.7 8.63 19.71 8.62 19.71 8.59 19.76 8.59 19.77 8.59 19.77 8.59 19.77 8.59 19.77 8.58 19.79 8.57 19.81 8.56 19.84 8.55 19.84 8.55 19.85 8.55 19.86 8.55 19.86 8.53 19.91 8.52 19.96 9.02 19.93 9.02 19.88 9.04 19.84 9.04 19.84 9.04 19.83 9.04 19.82 9.04 19.82 9.05 19.8 9.06 19.78 9.06 19.77 9.06 19.76 9.06 19.76 9.07 19.76 9.07 19.75 9.09 19.71 9.09 19.71 9.09 19.7 9.1 19.7 9.1 19.69 9.11 19.67 9.13 19.65"/><path class="cls-6" d="M9.77,19.16l.13-.05.14-.06.14-.05-.26-.09L9.76,19,9.6,19l-.15.06-.14.07.34.06Z" transform="translate(0 0)"/><path class="cls-6" d="M10.19,21l0,0-.05,0H10l0,0-.05,0h0l-.09,0-.08,0,0,0,0,0-.08,0-.47.18.09.05,0,0,0,0h.07l0,0,.1,0h0l.06,0,.05,0H9.7l.05,0,.06,0,.06,0h.06l.36-.24,0,0Z" transform="translate(0 0)"/><path class="cls-6" d="M15.78,20h0v-.07h0v0h0v0h0l-.05-.08a.42.42,0,0,0-.06-.08l-.06-.08-.08-.07-.07-.06-.08-.06-.08,0-.08-.05,0,0h-.06L15,19.12l-.12-.06-.13,0L14.56,19l-.13-.05-.15,0-.14,0-.15,0h-.08l-.08,0H11.52l-.16,0h-.17l-.16,0-.17,0-.16,0,.16.11.15,0,.14,0,.15,0,.14,0h2.34l.13,0L14,19l.12,0,.12,0,.12,0,.11.05.1.05.1,0h.07l.07,0,.07.05.06.05.06.05.06.07.06.07a.43.43,0,0,1,0,.07l0,.07h0v0h0v0h0v0h0v.08h0l0,0v0h0l0,0h0v0l0,0h0l0,0,0,0,0,0,0,0h0l0,0,0,0h0l0,0-.05,0-.06,0-.06,0-.06,0-.06,0,0,0h0l-.07,0h-.08l-.07,0h-.17L14,21l-.19.05-.19,0-.2,0h0l-.21,0-.22,0-.23,0H11.59l-.12.31h1.11l.27,0,.27,0,.26,0,.25-.05h0l.24-.05.22-.05.22-.07.2-.06h.05l.05,0h.1l.09,0,0,0h0L15,21h0l0,0,.08-.05.06,0,.07,0,.06-.05.06,0,0-.05h0l0,0,0,0h0l0,0,0,0,0,0,0,0h0v0h0l0,0h0v0l0,0v0h0V20Z" transform="translate(0 0)"/><path class="cls-6" d="M13,19.06l-.17,0-.18,0h-.28l0,.07,0,.07h.21l.2,0a.63.63,0,0,1,.19,0l.18,0,.22-.12-.16,0Z" transform="translate(0 0)"/><path class="cls-6" d="M14.13,19.56l0,0,0,0,0,0,0,0-.19,0-.2,0,0,0,0,0,0,0,0,0h.22Z" transform="translate(0 0)"/><path class="cls-6" d="M14.16,20s0,0,0,0l0,0V19.9l-.23,0-.24,0v.08l0,0,.23,0Z" transform="translate(0 0)"/><path class="cls-6" d="M11.72,20.63h.84l.13,0h.24l.1,0,.1,0,.1,0,.09,0h.22l.05,0,0,0,0,0,.05,0,.08,0,.08,0,.07-.05.06,0-.44-.11-.05,0,0,0-.06,0-.07,0h0l0,0h0l0,0H13l-.09,0-.09,0h-.1l-.1,0H11.52l-.09,0-.09,0-.09,0-.09,0-.08,0-.07,0-.07,0-.07,0-.06,0-.05,0,0,0,0,0,0,0,0,0,0,0s0,0,0,0,0,0,0,0a.08.08,0,0,0,0,0v0s0,0,0,0a.06.06,0,0,1,0,0,0,0,0,0,1,0,0l0,0,0,0s0,0,0,0l.07-.07.09-.06.1-.05.12-.06h.28l.07,0h.08l.08,0h.08l-.07-.07-.07-.06h-.1l-.1,0-.09,0-.1,0h-.35l-.12.05-.11,0-.1.06-.1.06,0,0h0l0,0,0,0,0,0,0,.05,0,0,0,.05s0,0,0,.05a.43.43,0,0,0,0,.05v.09l0,.05,0,0s0,0,0,.05l0,0h0l.05.05,0,0,.06.05.07,0,.07.05.09,0,.09,0,.1,0,.1,0,.11,0,.11,0,.13,0,.12,0,.13,0,.13,0Z" transform="translate(0 0)"/></g></g></g><path class="cls-6" d="M10,19.25h.08l0,0-.06,0,0,0-.05,0-.06,0,0,0-.05.05,0,.05-.07.09a.36.36,0,0,0,0,.09.44.44,0,0,0,0,.1.17.17,0,0,0,0,.1s0,0,0,.06,0,0,0,0l0,.05,0,0-.14,0h0v0h0v0h0v0h0v0a.25.25,0,0,1,0-.08s0-.05,0-.08a.19.19,0,0,1,0-.07l0-.07h.06l0-.05,0-.05,0,0,.05-.05h0l0,0h.1l0,0h0l0,0H10m0,0H9.92l0,0h0l0,0H9.72l0,0h0l0,0h.05l-.05,0,0,.05,0,0,0,.05H9.5l0,.08a.19.19,0,0,0,0,.07s0,.05,0,.08V20h0v0h0v0h0v0h0l.17,0,0-.05s0,0,0-.05,0,0,0-.06a.43.43,0,0,1,0-.05v-.1a.29.29,0,0,1,0-.09l0-.1.06-.09,0,0,0-.05.06,0a.1.1,0,0,1,.05,0l.05,0,.06,0,.06,0,.06,0H10Z" transform="translate(0 0)"/><path class="cls-6" d="M12.17,18.83h1.21l.09,0,.1,0,.09,0,.09,0h0l.13,0,.12,0,.12.05.08,0h-.08L14,19.17l-.15-.06-.17-.05-.17,0-.18,0-.19,0-.19,0-.2,0h-1l-.2,0-.19,0-.19,0h1m0,0v0h-1l0,0h0l.2,0,.19,0,.2,0h1l.2,0,.19,0,.19,0,.18,0,.17.05.16.05.16.06.14.06h.11l-.11,0L14,19.12l-.13-.05-.13,0,0,0-.09,0-.09,0-.09,0-.1,0H12.16Z" transform="translate(0 0)"/><path class="cls-6" d="M14.71,19.76h.13a.64.64,0,0,0,0,.07v.07a.22.22,0,0,1,0,.08.25.25,0,0,1,0,.07h-.06v0h0v0l0,0,0,0,0,0,0,0,0,0h.06l0,0,0,0h-.09l0,0,0,0h0l-.05,0h-.1l0,0-.07,0-.08,0-.07,0-.08,0-.09,0-.08,0-.09,0-.09,0,0,0h0l-.1,0-.1,0-.1,0-.11,0H13v0h-.86v-.07h.49l.24,0,.23,0h.14l.25-.05.22-.07.21-.07.19-.09.16-.08.13-.1.11-.09.08-.1h0a.36.36,0,0,0,0-.09.32.32,0,0,0,0-.09v-.09s0-.05,0-.08m0,0a.29.29,0,0,1,0,.09v.09l0,.09a.36.36,0,0,1,0,.09h0l-.08.1-.11.09-.13.1-.16.08L14,20.6l-.21.07-.23.07-.24.05h-.14l-.23,0-.25,0h-.49V21H13l.1,0,0,0h.15l.1,0,.1,0,.1,0,.1,0,0,0,.1,0,.09,0,.09,0,.08,0,.08,0,.08,0,.07,0,.07,0,0,0h.09l.06,0h0l0,0,0,0h.07l0,0,0,0,0,0,0,0h0l0,0,0,0,0,0,0,0v-.08h.06a.24.24,0,0,0,0-.08.19.19,0,0,0,0-.08v-.07s0,0,0-.08h-.16Z" transform="translate(0 0)"/><path class="cls-6" d="M8.73,19.59h.39l0,0v0h0l0,0h0v0H9l0,0H9v0l-.48,0v0l0-.05h0v-.05h0l0-.05h0v0l0,0h.05m0,0H8.67l0,0v0h0l0,.05h0v.07h0l0,.05V20l.5,0v-.05l0,0H9v0h0l0-.05h0v0l0,0h-.4Z" transform="translate(0 0)"/><path class="cls-6" d="M9.92,18.92l.23.08L10,19l-.13.06-.13,0-.12.06-.31-.06.12,0L9.61,19,9.76,19l.16-.06m0,0L9.76,19,9.6,19l-.15.06-.14.07.34.06.12-.06.13-.05.14-.06.14-.05-.26-.09Z" transform="translate(0 0)"/><path class="cls-6" d="M9.58,20.71l.07,0,0,0h0l0,0,.08,0,.09,0h0l0,0,0,0h.05l.05,0h0l0,0h.08l-.34.23H9.87l0,0-.06,0H9.64l-.05,0-.05,0H9.48l-.1,0,0,0H9.29l0,0,0,0-.06,0,.44-.18m0,0-.47.18.09.05,0,0,0,0h.07l0,0,.1,0h0l.06,0,.05,0H9.7l.05,0,.06,0,.06,0h.06l.36-.24,0,0h-.05l0,0-.05,0H10l0,0-.05,0h0l-.09,0-.08,0,0,0,0,0-.08,0Z" transform="translate(0 0)"/><path class="cls-6" d="M12.18,18.61h1.5l.07,0h.08l.08,0H14l.14,0,.15,0,.14,0,.14,0,.13.05.13.05.12.06.12.06h.06l0,0,.09.05.08.05.07.06.07.06.08.07.07.08a18463534072625.77,18463534072625.77,0,0,0,.1.16h0v0h0l0,0h0V20h0v.08h0v0h0l0,.05v0h0l0,.05h0v.05h0l0,.05,0,0,0,0,0,.05h0l0,0,0,0h0l-.06,0-.05,0-.06.05-.07,0-.07,0-.07.05,0,0h0l-.08,0h0l0,0-.09,0h-.09l-.05,0h-.05l-.2.06-.22.07-.23,0-.24.05h0l-.25.05-.26,0-.27,0H11.49l.1-.28h1.14l.23,0,.22,0,.21,0h0l.2,0,.2,0L14,21l.17,0h.17l.08,0h.07l.07,0h0l0,0,.07,0h0l.06,0,.06,0,0,0,.05,0,0,0h0l0,0,0,0h0l0,0,0,0h0v0l0,0h0v0l0,0h0l0,0h0v0l0,0h0v0h0V20h0v-.06h0v0h0v0h0l0-.07-.05-.07-.05-.07-.06-.07-.06,0-.06-.05a.18.18,0,0,1-.07-.05l-.07,0h0l0,0h0l-.1-.05-.11-.05-.11-.05-.11,0-.12,0L14,19l-.13,0-.13,0H11.44l-.15,0-.14,0-.15,0-.13,0-.14-.09.13,0,.17,0,.16,0h.17l.16,0h.66m0,0h-.66l-.16,0h-.17l-.16,0-.17,0-.16,0,.16.11.15,0,.14,0,.15,0,.14,0h2.34l.13,0L14,19l.12,0,.12,0,.12,0,.11.05.1.05.1,0h.07l.07,0,.07.05.06.05.06.05.06.07.06.07a.43.43,0,0,1,0,.07l0,.07h0v0h0v0h0v0h0v.08h0l0,0v0h0l0,0h0v0l0,0h0l0,0,0,0,0,0,0,0h0l0,0,0,0h0l0,0-.05,0-.06,0-.06,0-.06,0-.06,0,0,0h0l-.07,0h-.08l-.07,0h-.17L14,21l-.19.05-.19,0-.2,0h0l-.21,0-.22,0-.23,0H11.59l-.12.31h1.11l.27,0,.27,0,.26,0,.25-.05h0l.24-.05.22-.05.22-.07.2-.06h.05l.05,0h.1l.09,0,0,0h0L15,21h0l0,0,.08-.05.06,0,.07,0,.06-.05.06,0,0-.05h0l0,0,0,0h0l0,0,0,0,0,0,0,0h0v0h0l0,0h0v0l0,0v0h0V20h0v-.07h0v0h0v0h0l-.05-.08a.42.42,0,0,0-.06-.08l-.06-.08-.08-.07-.07-.06-.08-.06-.08,0-.08-.05,0,0h-.06L15,19.12l-.12-.06-.13,0L14.56,19l-.13-.05-.15,0-.14,0-.15,0h-.08l-.08,0H12.18Z" transform="translate(0 0)"/><path class="cls-6" d="M12.33,19h.27l.18,0,.17,0,.17,0,.13,0-.19.11-.18,0-.19,0-.2,0H12.3v-.06l0-.05m0,0,0,.07,0,.07h.21l.2,0a.63.63,0,0,1,.19,0l.18,0,.22-.12-.16,0-.17,0-.17,0-.18,0h-.28Z" transform="translate(0 0)"/><path class="cls-6" d="M14,19.46l0,0,0,0,0,0h0l-.19,0h-.2l0,0,0,0,0,0h0l.18,0,.19,0m0,0-.19,0-.2,0,0,0,0,0,0,0,0,0h.22l.21,0,0,0,0,0,0,0,0,0Z" transform="translate(0 0)"/><path class="cls-6" d="M13.76,19.87l.23,0,.22,0h0v0l0,0v0l-.23,0-.21,0h0v-.05h0m0,0v.08l0,0,.23,0,.23,0s0,0,0,0l0,0V19.9l-.23,0-.24,0Z" transform="translate(0 0)"/><path class="cls-6" d="M11.47,19.06l.06.06.05.05h-.05l-.08,0h-.08l-.07,0H11l-.12.06-.11.05-.09.07-.07.06,0,0,0,0,0,0s0,0,0,0v0s0,0,0,0v0a.08.08,0,0,1,0,0s0,0,0,0a.05.05,0,0,0,0,0,.08.08,0,0,0,0,0l0,0,0,0s0,0,0,0a.1.1,0,0,1,.05,0l.06,0,.06,0,.06,0,.07,0,.08,0,.08,0,.09,0,.08,0,.1,0,.09,0h1.14l.1,0h.1l.09,0,.09,0h.17l0,0h0l0,0h0l.07,0,.06,0,.06,0,0,0,.41.1,0,0-.07.05-.07,0-.09,0,0,0,0,0-.05,0-.05,0h-.1l-.06,0h0l-.1,0-.09,0-.1,0-.1,0h-.24l-.13,0h-.84l-.14,0h-.13l-.13,0-.12,0-.12,0-.12,0-.11,0-.1,0-.1,0-.09,0-.08,0-.08,0-.06,0-.06,0,0,0-.05-.05h0l0-.05,0,0s0,0,0,0a.09.09,0,0,1,0-.05.07.07,0,0,1,0-.05v0s0,0,0-.05a.43.43,0,0,0,0-.05l0,0,0-.05,0,0,0,0,0,0,0,0h0l0,0,.09-.06.1-.06.12-.05.12-.05h.35l.09,0,.1,0h.09l.1,0m0,0h-.1l-.1,0-.09,0-.1,0h-.35l-.12.05-.11,0-.1.06-.1.06,0,0h0l0,0,0,0,0,0,0,.05,0,0,0,.05s0,0,0,.05a.43.43,0,0,0,0,.05v.09l0,.05,0,0s0,0,0,.05l0,0h0l.05.05,0,0,.06.05.07,0,.07.05.09,0,.09,0,.1,0,.1,0,.11,0,.11,0,.13,0,.12,0,.13,0,.13,0h1l.13,0h.24l.1,0,.1,0,.1,0,.09,0h.22l.05,0,0,0,0,0,.05,0,.08,0,.08,0,.07-.05.06,0-.44-.11-.05,0,0,0-.06,0-.07,0h0l0,0h0l0,0H13l-.09,0-.09,0h-.1l-.1,0H11.52l-.09,0-.09,0-.09,0-.09,0-.08,0-.07,0-.07,0-.07,0-.06,0-.05,0,0,0,0,0,0,0,0,0,0,0s0,0,0,0,0,0,0,0a.08.08,0,0,0,0,0v0s0,0,0,0a.06.06,0,0,1,0,0,0,0,0,0,1,0,0l0,0,0,0s0,0,0,0l.07-.07.09-.06.1-.05.12-.06h.28l.07,0h.08l.08,0h.08l-.07-.07-.07-.06Z" transform="translate(0 0)"/><g class="cls-9"><g class="cls-10"><rect class="cls-6" x="9.29" y="19.3" width="5.72" height="0.86"/><path class="cls-6" d="M14.19,19.73a4.94,4.94,0,0,1-2,.22,4.94,4.94,0,0,1-2-.22,5,5,0,0,1,2-.21A5,5,0,0,1,14.19,19.73Z" transform="translate(0 0)"/><path class="cls-6" d="M14.19,19.73a4.94,4.94,0,0,1-2,.22,4.94,4.94,0,0,1-2-.22,5,5,0,0,1,2-.21A5,5,0,0,1,14.19,19.73Z" transform="translate(0 0)"/><path class="cls-6" d="M14.18,19.73a4.91,4.91,0,0,1-2,.22,4.91,4.91,0,0,1-2-.22,5,5,0,0,1,2-.21A5,5,0,0,1,14.18,19.73Z" transform="translate(0 0)"/><path class="cls-6" d="M14.18,19.73a4.91,4.91,0,0,1-2,.22,4.91,4.91,0,0,1-2-.22,5,5,0,0,1,2-.21A5,5,0,0,1,14.18,19.73Z" transform="translate(0 0)"/><path class="cls-6" d="M14.18,19.73a5,5,0,0,1-2,.21,5,5,0,0,1-2-.21,5,5,0,0,1,2-.21A5,5,0,0,1,14.18,19.73Z" transform="translate(0 0)"/><path class="cls-6" d="M14.17,19.73a4.94,4.94,0,0,1-2,.21,4.94,4.94,0,0,1-2-.21,5.15,5.15,0,0,1,2-.21A5.15,5.15,0,0,1,14.17,19.73Z" transform="translate(0 0)"/><path class="cls-6" d="M14.17,19.73a5,5,0,0,1-2,.21,5,5,0,0,1-2-.21,5.19,5.19,0,0,1,2-.21A5.19,5.19,0,0,1,14.17,19.73Z" transform="translate(0 0)"/><path class="cls-6" d="M14.16,19.73a4.91,4.91,0,0,1-2,.21,4.91,4.91,0,0,1-2-.21,5.12,5.12,0,0,1,2-.21A5.12,5.12,0,0,1,14.16,19.73Z" transform="translate(0 0)"/><path class="cls-6" d="M14.16,19.73a4.91,4.91,0,0,1-2,.21,4.91,4.91,0,0,1-2-.21,5.12,5.12,0,0,1,2-.21A5.12,5.12,0,0,1,14.16,19.73Z" transform="translate(0 0)"/><path class="cls-6" d="M14.15,19.73a4.84,4.84,0,0,1-2,.21,4.84,4.84,0,0,1-2-.21,5,5,0,0,1,2-.21A5,5,0,0,1,14.15,19.73Z" transform="translate(0 0)"/><path class="cls-6" d="M14.15,19.73a4.88,4.88,0,0,1-2,.21,4.88,4.88,0,0,1-2-.21,5.09,5.09,0,0,1,2-.21A5.09,5.09,0,0,1,14.15,19.73Z" transform="translate(0 0)"/><path class="cls-6" d="M14.15,19.73a4.88,4.88,0,0,1-2,.21,4.88,4.88,0,0,1-2-.21,5.09,5.09,0,0,1,2-.21A5.09,5.09,0,0,1,14.15,19.73Z" transform="translate(0 0)"/><path class="cls-6" d="M14.14,19.73a4.81,4.81,0,0,1-2,.21,4.81,4.81,0,0,1-2-.21,5,5,0,0,1,2-.21A5,5,0,0,1,14.14,19.73Z" transform="translate(0 0)"/><path class="cls-6" d="M14.14,19.73a4.81,4.81,0,0,1-2,.21,4.81,4.81,0,0,1-2-.21,5,5,0,0,1,2-.21A5,5,0,0,1,14.14,19.73Z" transform="translate(0 0)"/><path class="cls-6" d="M14.13,19.73a4.75,4.75,0,0,1-2,.21,4.75,4.75,0,0,1-2-.21,5,5,0,0,1,2-.21A5,5,0,0,1,14.13,19.73Z" transform="translate(0 0)"/><path class="cls-6" d="M14.13,19.73a4.78,4.78,0,0,1-2,.21,4.78,4.78,0,0,1-2-.21,5,5,0,0,1,2-.21A5,5,0,0,1,14.13,19.73Z" transform="translate(0 0)"/><path class="cls-6" d="M14.13,19.73a4.78,4.78,0,0,1-2,.21,4.78,4.78,0,0,1-2-.21,5.1,5.1,0,0,1,2-.2A5.1,5.1,0,0,1,14.13,19.73Z" transform="translate(0 0)"/><path class="cls-6" d="M14.12,19.73a4.72,4.72,0,0,1-2,.21,4.72,4.72,0,0,1-2-.21,5,5,0,0,1,2-.2A5,5,0,0,1,14.12,19.73Z" transform="translate(0 0)"/><path class="cls-6" d="M14.12,19.73a4.72,4.72,0,0,1-2,.21,4.72,4.72,0,0,1-2-.21,5,5,0,0,1,2-.2A5,5,0,0,1,14.12,19.73Z" transform="translate(0 0)"/><path class="cls-6" d="M14.11,19.73a4.69,4.69,0,0,1-2,.21,4.69,4.69,0,0,1-2-.21,5,5,0,0,1,2-.2A5,5,0,0,1,14.11,19.73Z" transform="translate(0 0)"/><path class="cls-6" d="M14.11,19.73a4.69,4.69,0,0,1-2,.21,4.69,4.69,0,0,1-2-.21,5,5,0,0,1,2-.2A5,5,0,0,1,14.11,19.73Z" transform="translate(0 0)"/><path class="cls-6" d="M14.1,19.73a4.62,4.62,0,0,1-1.95.21,4.62,4.62,0,0,1-2-.21,4.92,4.92,0,0,1,2-.2A4.92,4.92,0,0,1,14.1,19.73Z" transform="translate(0 0)"/><path class="cls-6" d="M14.1,19.73a4.62,4.62,0,0,1-1.95.21,4.62,4.62,0,0,1-2-.21,4.92,4.92,0,0,1,2-.2A4.92,4.92,0,0,1,14.1,19.73Z" transform="translate(0 0)"/><path class="cls-6" d="M14.1,19.73a4.66,4.66,0,0,1-1.95.21,4.66,4.66,0,0,1-2-.21,5,5,0,0,1,2-.2A5,5,0,0,1,14.1,19.73Z" transform="translate(0 0)"/><path class="cls-6" d="M14.09,19.73a4.79,4.79,0,0,1-1.94.21,4.79,4.79,0,0,1-1.94-.21,4.89,4.89,0,0,1,1.94-.2A4.89,4.89,0,0,1,14.09,19.73Z" transform="translate(0 0)"/><path class="cls-6" d="M14.09,19.73a4.79,4.79,0,0,1-1.94.21,4.79,4.79,0,0,1-1.94-.21,4.89,4.89,0,0,1,1.94-.2A4.89,4.89,0,0,1,14.09,19.73Z" transform="translate(0 0)"/><path class="cls-6" d="M14.08,19.73a4.72,4.72,0,0,1-1.93.21,4.72,4.72,0,0,1-1.93-.21,4.82,4.82,0,0,1,1.93-.2A4.82,4.82,0,0,1,14.08,19.73Z" transform="translate(0 0)"/><path class="cls-6" d="M14.08,19.73a4.82,4.82,0,0,1-1.93.2,4.82,4.82,0,0,1-1.93-.2,4.82,4.82,0,0,1,1.93-.2A4.82,4.82,0,0,1,14.08,19.73Z" transform="translate(0 0)"/><path class="cls-6" d="M14.08,19.73a4.86,4.86,0,0,1-1.93.2,4.86,4.86,0,0,1-1.93-.2,4.86,4.86,0,0,1,1.93-.2A4.86,4.86,0,0,1,14.08,19.73Z" transform="translate(0 0)"/><path class="cls-6" d="M14.07,19.73a4.79,4.79,0,0,1-1.92.2,4.79,4.79,0,0,1-1.92-.2,4.79,4.79,0,0,1,1.92-.2A4.79,4.79,0,0,1,14.07,19.73Z" transform="translate(0 0)"/><path class="cls-6" d="M14.07,19.73a4.79,4.79,0,0,1-1.92.2,4.79,4.79,0,0,1-1.92-.2,4.79,4.79,0,0,1,1.92-.2A4.79,4.79,0,0,1,14.07,19.73Z" transform="translate(0 0)"/><path class="cls-6" d="M14.06,19.73a4.72,4.72,0,0,1-1.91.2,4.72,4.72,0,0,1-1.91-.2,4.72,4.72,0,0,1,1.91-.2A4.72,4.72,0,0,1,14.06,19.73Z" transform="translate(0 0)"/><path class="cls-6" d="M14.06,19.73a4.76,4.76,0,0,1-1.91.2,4.76,4.76,0,0,1-1.91-.2,4.76,4.76,0,0,1,1.91-.2A4.76,4.76,0,0,1,14.06,19.73Z" transform="translate(0 0)"/><path class="cls-6" d="M14.05,19.73a4.69,4.69,0,0,1-1.9.2,4.69,4.69,0,0,1-1.9-.2,4.69,4.69,0,0,1,1.9-.2A4.69,4.69,0,0,1,14.05,19.73Z" transform="translate(0 0)"/><path class="cls-6" d="M14.05,19.73a4.69,4.69,0,0,1-1.9.2,4.69,4.69,0,0,1-1.9-.2,4.69,4.69,0,0,1,1.9-.2A4.69,4.69,0,0,1,14.05,19.73Z" transform="translate(0 0)"/><path class="cls-11" d="M14.05,19.73a4.69,4.69,0,0,1-1.9.2,4.69,4.69,0,0,1-1.9-.2,4.69,4.69,0,0,1,1.9-.2A4.69,4.69,0,0,1,14.05,19.73Z" transform="translate(0 0)"/><path class="cls-11" d="M14,19.73a4.66,4.66,0,0,1-1.89.2,4.66,4.66,0,0,1-1.89-.2,4.66,4.66,0,0,1,1.89-.2A4.66,4.66,0,0,1,14,19.73Z" transform="translate(0 0)"/><path class="cls-11" d="M14,19.73a4.66,4.66,0,0,1-1.89.2,4.66,4.66,0,0,1-1.89-.2,4.66,4.66,0,0,1,1.89-.2A4.66,4.66,0,0,1,14,19.73Z" transform="translate(0 0)"/><path class="cls-11" d="M14,19.73a4.59,4.59,0,0,1-1.88.2,4.59,4.59,0,0,1-1.88-.2,4.59,4.59,0,0,1,1.88-.2A4.59,4.59,0,0,1,14,19.73Z" transform="translate(0 0)"/><path class="cls-11" d="M14,19.73a4.59,4.59,0,0,1-1.88.2,4.59,4.59,0,0,1-1.88-.2,4.7,4.7,0,0,1,1.88-.19A4.7,4.7,0,0,1,14,19.73Z" transform="translate(0 0)"/><path class="cls-11" d="M14,19.73a4.53,4.53,0,0,1-1.87.2,4.53,4.53,0,0,1-1.87-.2,4.63,4.63,0,0,1,1.87-.19A4.63,4.63,0,0,1,14,19.73Z" transform="translate(0 0)"/><path class="cls-11" d="M14,19.73a4.56,4.56,0,0,1-1.87.2,4.56,4.56,0,0,1-1.87-.2,4.67,4.67,0,0,1,1.87-.19A4.67,4.67,0,0,1,14,19.73Z" transform="translate(0 0)"/><path class="cls-11" d="M14,19.73a4.56,4.56,0,0,1-1.87.2,4.56,4.56,0,0,1-1.87-.2,4.67,4.67,0,0,1,1.87-.19A4.67,4.67,0,0,1,14,19.73Z" transform="translate(0 0)"/><path class="cls-12" d="M14,19.73a4.5,4.5,0,0,1-1.86.2,4.5,4.5,0,0,1-1.86-.2,4.6,4.6,0,0,1,1.86-.19A4.6,4.6,0,0,1,14,19.73Z" transform="translate(0 0)"/><path class="cls-12" d="M14,19.73a4.5,4.5,0,0,1-1.86.2,4.5,4.5,0,0,1-1.86-.2,4.6,4.6,0,0,1,1.86-.19A4.6,4.6,0,0,1,14,19.73Z" transform="translate(0 0)"/><path class="cls-12" d="M14,19.73a4.47,4.47,0,0,1-1.85.2,4.47,4.47,0,0,1-1.85-.2,4.57,4.57,0,0,1,1.85-.19A4.57,4.57,0,0,1,14,19.73Z" transform="translate(0 0)"/><path class="cls-12" d="M14,19.73a4.47,4.47,0,0,1-1.85.2,4.47,4.47,0,0,1-1.85-.2,4.78,4.78,0,0,1,1.85-.19A4.78,4.78,0,0,1,14,19.73Z" transform="translate(0 0)"/><path class="cls-12" d="M14,19.73a4.47,4.47,0,0,1-1.85.2,4.47,4.47,0,0,1-1.85-.2,4.78,4.78,0,0,1,1.85-.19A4.78,4.78,0,0,1,14,19.73Z" transform="translate(0 0)"/><path class="cls-12" d="M14,19.73a4.4,4.4,0,0,1-1.84.2,4.4,4.4,0,0,1-1.84-.2,4.71,4.71,0,0,1,1.84-.19A4.71,4.71,0,0,1,14,19.73Z" transform="translate(0 0)"/><path class="cls-12" d="M14,19.73a4.44,4.44,0,0,1-1.84.2,4.44,4.44,0,0,1-1.84-.2,4.75,4.75,0,0,1,1.84-.19A4.75,4.75,0,0,1,14,19.73Z" transform="translate(0 0)"/><path class="cls-12" d="M14,19.73a4.47,4.47,0,0,1-1.83.19,4.47,4.47,0,0,1-1.83-.19,4.68,4.68,0,0,1,1.83-.19A4.68,4.68,0,0,1,14,19.73Z" transform="translate(0 0)"/><path class="cls-13" d="M14,19.73a4.47,4.47,0,0,1-1.83.19,4.47,4.47,0,0,1-1.83-.19,4.68,4.68,0,0,1,1.83-.19A4.68,4.68,0,0,1,14,19.73Z" transform="translate(0 0)"/><path class="cls-13" d="M14,19.73a4.4,4.4,0,0,1-1.82.19,4.4,4.4,0,0,1-1.82-.19,4.61,4.61,0,0,1,1.82-.19A4.61,4.61,0,0,1,14,19.73Z" transform="translate(0 0)"/><path class="cls-13" d="M14,19.73a4.4,4.4,0,0,1-1.82.19,4.4,4.4,0,0,1-1.82-.19,4.61,4.61,0,0,1,1.82-.19A4.61,4.61,0,0,1,14,19.73Z" transform="translate(0 0)"/><path class="cls-13" d="M14,19.73a4.44,4.44,0,0,1-1.82.19,4.44,4.44,0,0,1-1.82-.19,4.65,4.65,0,0,1,1.82-.19A4.65,4.65,0,0,1,14,19.73Z" transform="translate(0 0)"/><path class="cls-13" d="M14,19.73a4.37,4.37,0,0,1-1.81.19,4.37,4.37,0,0,1-1.81-.19,4.58,4.58,0,0,1,1.81-.19A4.58,4.58,0,0,1,14,19.73Z" transform="translate(0 0)"/><path class="cls-14" d="M14,19.73a4.37,4.37,0,0,1-1.81.19,4.37,4.37,0,0,1-1.81-.19,4.58,4.58,0,0,1,1.81-.19A4.58,4.58,0,0,1,14,19.73Z" transform="translate(0 0)"/><path class="cls-14" d="M14,19.73a4.31,4.31,0,0,1-1.8.19,4.31,4.31,0,0,1-1.8-.19,4.51,4.51,0,0,1,1.8-.19A4.51,4.51,0,0,1,14,19.73Z" transform="translate(0 0)"/><path class="cls-14" d="M14,19.73a4.34,4.34,0,0,1-1.8.19,4.34,4.34,0,0,1-1.8-.19,4.55,4.55,0,0,1,1.8-.19A4.55,4.55,0,0,1,14,19.73Z" transform="translate(0 0)"/><path class="cls-14" d="M14,19.73a4.34,4.34,0,0,1-1.8.19,4.34,4.34,0,0,1-1.8-.19,4.55,4.55,0,0,1,1.8-.19A4.55,4.55,0,0,1,14,19.73Z" transform="translate(0 0)"/><path class="cls-14" d="M13.94,19.73a4.28,4.28,0,0,1-1.79.19,4.28,4.28,0,0,1-1.79-.19,4.48,4.48,0,0,1,1.79-.19A4.48,4.48,0,0,1,13.94,19.73Z" transform="translate(0 0)"/><path class="cls-14" d="M13.94,19.73a4.28,4.28,0,0,1-1.79.19,4.28,4.28,0,0,1-1.79-.19,4.48,4.48,0,0,1,1.79-.19A4.48,4.48,0,0,1,13.94,19.73Z" transform="translate(0 0)"/><path class="cls-14" d="M13.93,19.73a4.25,4.25,0,0,1-1.78.19,4.25,4.25,0,0,1-1.78-.19,4.56,4.56,0,0,1,1.78-.18A4.56,4.56,0,0,1,13.93,19.73Z" transform="translate(0 0)"/><path class="cls-14" d="M13.93,19.73a4.25,4.25,0,0,1-1.78.19,4.25,4.25,0,0,1-1.78-.19,4.56,4.56,0,0,1,1.78-.18A4.56,4.56,0,0,1,13.93,19.73Z" transform="translate(0 0)"/><path class="cls-14" d="M13.92,19.73a4.18,4.18,0,0,1-1.77.19,4.18,4.18,0,0,1-1.77-.19,4.48,4.48,0,0,1,1.77-.18A4.48,4.48,0,0,1,13.92,19.73Z" transform="translate(0 0)"/><path class="cls-14" d="M13.92,19.73a4.38,4.38,0,0,1-1.77.19,4.38,4.38,0,0,1-1.77-.19,4.48,4.48,0,0,1,1.77-.18A4.48,4.48,0,0,1,13.92,19.73Z" transform="translate(0 0)"/><path class="cls-14" d="M13.92,19.73a4.38,4.38,0,0,1-1.77.19,4.38,4.38,0,0,1-1.77-.19,4.48,4.48,0,0,1,1.77-.18A4.48,4.48,0,0,1,13.92,19.73Z" transform="translate(0 0)"/><path class="cls-14" d="M13.91,19.73a4.35,4.35,0,0,1-1.76.19,4.35,4.35,0,0,1-1.76-.19,4.45,4.45,0,0,1,1.76-.18A4.45,4.45,0,0,1,13.91,19.73Z" transform="translate(0 0)"/><path class="cls-15" d="M13.91,19.73a4.35,4.35,0,0,1-1.76.19,4.35,4.35,0,0,1-1.76-.19,4.45,4.45,0,0,1,1.76-.18A4.45,4.45,0,0,1,13.91,19.73Z" transform="translate(0 0)"/><path class="cls-16" d="M13.9,19.73a4.28,4.28,0,0,1-1.75.19,4.28,4.28,0,0,1-1.75-.19,4.38,4.38,0,0,1,1.75-.18A4.38,4.38,0,0,1,13.9,19.73Z" transform="translate(0 0)"/><path class="cls-16" d="M13.9,19.73a4.28,4.28,0,0,1-1.75.19,4.28,4.28,0,0,1-1.75-.19,4.38,4.38,0,0,1,1.75-.18A4.38,4.38,0,0,1,13.9,19.73Z" transform="translate(0 0)"/><path class="cls-16" d="M13.9,19.73a4.32,4.32,0,0,1-1.75.19,4.32,4.32,0,0,1-1.75-.19,4.42,4.42,0,0,1,1.75-.18A4.42,4.42,0,0,1,13.9,19.73Z" transform="translate(0 0)"/><path class="cls-16" d="M13.89,19.73a4.25,4.25,0,0,1-1.74.19,4.25,4.25,0,0,1-1.74-.19,4.35,4.35,0,0,1,1.74-.18A4.35,4.35,0,0,1,13.89,19.73Z" transform="translate(0 0)"/><path class="cls-16" d="M13.89,19.73a4.35,4.35,0,0,1-1.74.18,4.35,4.35,0,0,1-1.74-.18,4.35,4.35,0,0,1,1.74-.18A4.35,4.35,0,0,1,13.89,19.73Z" transform="translate(0 0)"/><path class="cls-16" d="M13.88,19.73a4.28,4.28,0,0,1-1.73.18,4.28,4.28,0,0,1-1.73-.18,4.28,4.28,0,0,1,1.73-.18A4.28,4.28,0,0,1,13.88,19.73Z" transform="translate(0 0)"/><path class="cls-16" d="M13.88,19.73a4.32,4.32,0,0,1-1.73.18,4.32,4.32,0,0,1-1.73-.18,4.32,4.32,0,0,1,1.73-.18A4.32,4.32,0,0,1,13.88,19.73Z" transform="translate(0 0)"/><path class="cls-16" d="M13.87,19.73a4.25,4.25,0,0,1-1.72.18,4.25,4.25,0,0,1-1.72-.18,4.25,4.25,0,0,1,1.72-.18A4.25,4.25,0,0,1,13.87,19.73Z" transform="translate(0 0)"/><path class="cls-16" d="M13.87,19.73a4.25,4.25,0,0,1-1.72.18,4.25,4.25,0,0,1-1.72-.18,4.25,4.25,0,0,1,1.72-.18A4.25,4.25,0,0,1,13.87,19.73Z" transform="translate(0 0)"/><path class="cls-16" d="M13.87,19.73a4.25,4.25,0,0,1-1.72.18,4.25,4.25,0,0,1-1.72-.18,4.25,4.25,0,0,1,1.72-.18A4.25,4.25,0,0,1,13.87,19.73Z" transform="translate(0 0)"/><path class="cls-16" d="M13.86,19.73a4.18,4.18,0,0,1-1.71.18,4.18,4.18,0,0,1-1.71-.18,4.18,4.18,0,0,1,1.71-.18A4.18,4.18,0,0,1,13.86,19.73Z" transform="translate(0 0)"/><path class="cls-17" d="M13.86,19.73a4.22,4.22,0,0,1-1.71.18,4.22,4.22,0,0,1-1.71-.18,4.22,4.22,0,0,1,1.71-.18A4.22,4.22,0,0,1,13.86,19.73Z" transform="translate(0 0)"/><path class="cls-18" d="M13.85,19.73a4.15,4.15,0,0,1-1.7.18,4.15,4.15,0,0,1-1.7-.18,4.15,4.15,0,0,1,1.7-.18A4.15,4.15,0,0,1,13.85,19.73Z" transform="translate(0 0)"/><path class="cls-18" d="M13.85,19.73a4.15,4.15,0,0,1-1.7.18,4.15,4.15,0,0,1-1.7-.18,4.15,4.15,0,0,1,1.7-.18A4.15,4.15,0,0,1,13.85,19.73Z" transform="translate(0 0)"/><path class="cls-18" d="M13.84,19.73a4.09,4.09,0,0,1-1.69.18,4.09,4.09,0,0,1-1.69-.18,4.09,4.09,0,0,1,1.69-.18A4.09,4.09,0,0,1,13.84,19.73Z" transform="translate(0 0)"/><path class="cls-19" d="M13.84,19.73a4.12,4.12,0,0,1-1.69.18,4.12,4.12,0,0,1-1.69-.18,4.12,4.12,0,0,1,1.69-.18A4.12,4.12,0,0,1,13.84,19.73Z" transform="translate(0 0)"/><path class="cls-19" d="M13.84,19.73a4.12,4.12,0,0,1-1.69.18,4.12,4.12,0,0,1-1.69-.18,4.23,4.23,0,0,1,1.69-.17A4.23,4.23,0,0,1,13.84,19.73Z" transform="translate(0 0)"/><path class="cls-19" d="M13.83,19.73a4.06,4.06,0,0,1-1.68.18,4.06,4.06,0,0,1-1.68-.18,4.16,4.16,0,0,1,1.68-.17A4.16,4.16,0,0,1,13.83,19.73Z" transform="translate(0 0)"/><path class="cls-19" d="M13.83,19.73a4.06,4.06,0,0,1-1.68.18,4.06,4.06,0,0,1-1.68-.18,4.38,4.38,0,0,1,1.68-.17A4.38,4.38,0,0,1,13.83,19.73Z" transform="translate(0 0)"/><path class="cls-19" d="M13.82,19.73a4,4,0,0,1-1.67.18,4,4,0,0,1-1.67-.18,4.35,4.35,0,0,1,1.67-.17A4.35,4.35,0,0,1,13.82,19.73Z" transform="translate(0 0)"/><path class="cls-20" d="M13.82,19.73a4,4,0,0,1-1.67.18,4,4,0,0,1-1.67-.18,4.35,4.35,0,0,1,1.67-.17A4.35,4.35,0,0,1,13.82,19.73Z" transform="translate(0 0)"/><path class="cls-20" d="M13.82,19.73a4,4,0,0,1-1.67.18,4,4,0,0,1-1.67-.18,4.35,4.35,0,0,1,1.67-.17A4.35,4.35,0,0,1,13.82,19.73Z" transform="translate(0 0)"/><path class="cls-20" d="M13.81,19.73a4,4,0,0,1-1.66.18,4,4,0,0,1-1.66-.18,4.27,4.27,0,0,1,1.66-.17A4.27,4.27,0,0,1,13.81,19.73Z" transform="translate(0 0)"/><path class="cls-20" d="M13.81,19.73a4,4,0,0,1-1.66.18,4,4,0,0,1-1.66-.18,4.27,4.27,0,0,1,1.66-.17A4.27,4.27,0,0,1,13.81,19.73Z" transform="translate(0 0)"/><path class="cls-20" d="M13.8,19.73a3.93,3.93,0,0,1-1.65.18,3.93,3.93,0,0,1-1.65-.18,4.24,4.24,0,0,1,1.65-.17A4.24,4.24,0,0,1,13.8,19.73Z" transform="translate(0 0)"/><path class="cls-20" d="M13.8,19.73a3.93,3.93,0,0,1-1.65.18,3.93,3.93,0,0,1-1.65-.18,4.24,4.24,0,0,1,1.65-.17A4.24,4.24,0,0,1,13.8,19.73Z" transform="translate(0 0)"/><path class="cls-20" d="M13.79,19.73a4,4,0,0,1-1.64.17,4,4,0,0,1-1.64-.17,4.17,4.17,0,0,1,1.64-.17A4.17,4.17,0,0,1,13.79,19.73Z" transform="translate(0 0)"/><path class="cls-21" d="M13.79,19.73a4,4,0,0,1-1.64.17,4,4,0,0,1-1.64-.17,4.17,4.17,0,0,1,1.64-.17A4.17,4.17,0,0,1,13.79,19.73Z" transform="translate(0 0)"/><path class="cls-22" d="M13.79,19.73a4,4,0,0,1-1.64.17,4,4,0,0,1-1.64-.17,4.21,4.21,0,0,1,1.64-.17A4.21,4.21,0,0,1,13.79,19.73Z" transform="translate(0 0)"/><path class="cls-22" d="M13.78,19.73a3.93,3.93,0,0,1-1.63.17,3.93,3.93,0,0,1-1.63-.17,4.14,4.14,0,0,1,1.63-.17A4.14,4.14,0,0,1,13.78,19.73Z" transform="translate(0 0)"/><path class="cls-22" d="M13.78,19.73a3.93,3.93,0,0,1-1.63.17,3.93,3.93,0,0,1-1.63-.17,4.14,4.14,0,0,1,1.63-.17A4.14,4.14,0,0,1,13.78,19.73Z" transform="translate(0 0)"/><path class="cls-22" d="M13.77,19.73a3.87,3.87,0,0,1-1.62.17,3.87,3.87,0,0,1-1.62-.17,4.07,4.07,0,0,1,1.62-.17A4.07,4.07,0,0,1,13.77,19.73Z" transform="translate(0 0)"/><path class="cls-23" d="M13.77,19.73a3.9,3.9,0,0,1-1.62.17,3.9,3.9,0,0,1-1.62-.17,4.11,4.11,0,0,1,1.62-.17A4.11,4.11,0,0,1,13.77,19.73Z" transform="translate(0 0)"/><path class="cls-23" d="M13.77,19.73a3.9,3.9,0,0,1-1.62.17,3.9,3.9,0,0,1-1.62-.17,4.11,4.11,0,0,1,1.62-.17A4.11,4.11,0,0,1,13.77,19.73Z" transform="translate(0 0)"/><path class="cls-24" d="M13.76,19.73a3.84,3.84,0,0,1-1.61.17,3.84,3.84,0,0,1-1.61-.17,4,4,0,0,1,1.61-.17A4,4,0,0,1,13.76,19.73Z" transform="translate(0 0)"/><path class="cls-24" d="M13.76,19.73a3.84,3.84,0,0,1-1.61.17,3.84,3.84,0,0,1-1.61-.17,4,4,0,0,1,1.61-.17A4,4,0,0,1,13.76,19.73Z" transform="translate(0 0)"/><ellipse class="cls-24" cx="12.15" cy="19.73" rx="1.6" ry="0.17"/><path class="cls-24" d="M13.75,19.73a3.81,3.81,0,0,1-1.6.17,3.81,3.81,0,0,1-1.6-.17,4,4,0,0,1,1.6-.17A4,4,0,0,1,13.75,19.73Z" transform="translate(0 0)"/><path class="cls-24" d="M13.74,19.73a3.94,3.94,0,0,1-1.59.17,3.94,3.94,0,0,1-1.59-.17,4,4,0,0,1,1.59-.16A4,4,0,0,1,13.74,19.73Z" transform="translate(0 0)"/><path class="cls-25" d="M13.74,19.73a3.94,3.94,0,0,1-1.59.17,3.94,3.94,0,0,1-1.59-.17,4,4,0,0,1,1.59-.16A4,4,0,0,1,13.74,19.73Z" transform="translate(0 0)"/><path class="cls-25" d="M13.74,19.73a3.94,3.94,0,0,1-1.59.17,3.94,3.94,0,0,1-1.59-.17,4,4,0,0,1,1.59-.16A4,4,0,0,1,13.74,19.73Z" transform="translate(0 0)"/><path class="cls-26" d="M13.73,19.73a3.91,3.91,0,0,1-1.58.17,3.91,3.91,0,0,1-1.58-.17,4,4,0,0,1,1.58-.16A4,4,0,0,1,13.73,19.73Z" transform="translate(0 0)"/><path class="cls-26" d="M13.73,19.73a3.91,3.91,0,0,1-1.58.17,3.91,3.91,0,0,1-1.58-.17,4,4,0,0,1,1.58-.16A4,4,0,0,1,13.73,19.73Z" transform="translate(0 0)"/><path class="cls-26" d="M13.72,19.73a3.84,3.84,0,0,1-1.57.17,3.84,3.84,0,0,1-1.57-.17,3.94,3.94,0,0,1,1.57-.16A3.94,3.94,0,0,1,13.72,19.73Z" transform="translate(0 0)"/><path class="cls-26" d="M13.72,19.73a3.84,3.84,0,0,1-1.57.17,3.84,3.84,0,0,1-1.57-.17,3.94,3.94,0,0,1,1.57-.16A3.94,3.94,0,0,1,13.72,19.73Z" transform="translate(0 0)"/><path class="cls-26" d="M13.72,19.73a3.88,3.88,0,0,1-1.57.17,3.88,3.88,0,0,1-1.57-.17,4,4,0,0,1,1.57-.16A4,4,0,0,1,13.72,19.73Z" transform="translate(0 0)"/><path class="cls-26" d="M13.71,19.73a3.81,3.81,0,0,1-1.56.17,3.81,3.81,0,0,1-1.56-.17,3.91,3.91,0,0,1,1.56-.16A3.91,3.91,0,0,1,13.71,19.73Z" transform="translate(0 0)"/><path class="cls-27" d="M13.71,19.73a3.81,3.81,0,0,1-1.56.17,3.81,3.81,0,0,1-1.56-.17,3.91,3.91,0,0,1,1.56-.16A3.91,3.91,0,0,1,13.71,19.73Z" transform="translate(0 0)"/><path class="cls-27" d="M13.7,19.73a3.74,3.74,0,0,1-1.55.17,3.74,3.74,0,0,1-1.55-.17,3.84,3.84,0,0,1,1.55-.16A3.84,3.84,0,0,1,13.7,19.73Z" transform="translate(0 0)"/><path class="cls-28" d="M13.7,19.73a3.84,3.84,0,0,1-1.55.16,3.84,3.84,0,0,1-1.55-.16,3.84,3.84,0,0,1,1.55-.16A3.84,3.84,0,0,1,13.7,19.73Z" transform="translate(0 0)"/><path class="cls-28" d="M13.69,19.73a3.81,3.81,0,0,1-1.54.16,3.81,3.81,0,0,1-1.54-.16,3.81,3.81,0,0,1,1.54-.16A3.81,3.81,0,0,1,13.69,19.73Z" transform="translate(0 0)"/><ellipse class="cls-28" cx="12.15" cy="19.73" rx="1.54" ry="0.16"/><path class="cls-28" d="M13.69,19.73a3.81,3.81,0,0,1-1.54.16,3.81,3.81,0,0,1-1.54-.16,3.81,3.81,0,0,1,1.54-.16A3.81,3.81,0,0,1,13.69,19.73Z" transform="translate(0 0)"/><path class="cls-29" d="M13.68,19.73a3.74,3.74,0,0,1-1.53.16,3.74,3.74,0,0,1-1.53-.16,3.74,3.74,0,0,1,1.53-.16A3.74,3.74,0,0,1,13.68,19.73Z" transform="translate(0 0)"/><path class="cls-29" d="M13.68,19.73a3.78,3.78,0,0,1-1.53.16,3.78,3.78,0,0,1-1.53-.16,3.78,3.78,0,0,1,1.53-.16A3.78,3.78,0,0,1,13.68,19.73Z" transform="translate(0 0)"/><path class="cls-29" d="M13.67,19.73a3.71,3.71,0,0,1-1.52.16,3.71,3.71,0,0,1-1.52-.16,3.71,3.71,0,0,1,1.52-.16A3.71,3.71,0,0,1,13.67,19.73Z" transform="translate(0 0)"/><path class="cls-29" d="M13.67,19.73a3.71,3.71,0,0,1-1.52.16,3.71,3.71,0,0,1-1.52-.16,3.71,3.71,0,0,1,1.52-.16A3.71,3.71,0,0,1,13.67,19.73Z" transform="translate(0 0)"/><path class="cls-30" d="M13.67,19.73a3.71,3.71,0,0,1-1.52.16,3.71,3.71,0,0,1-1.52-.16,3.71,3.71,0,0,1,1.52-.16A3.71,3.71,0,0,1,13.67,19.73Z" transform="translate(0 0)"/><path class="cls-31" d="M13.66,19.73a3.68,3.68,0,0,1-1.51.16,3.68,3.68,0,0,1-1.51-.16,3.68,3.68,0,0,1,1.51-.16A3.68,3.68,0,0,1,13.66,19.73Z" transform="translate(0 0)"/><path class="cls-31" d="M13.66,19.73a3.68,3.68,0,0,1-1.51.16,3.68,3.68,0,0,1-1.51-.16,3.9,3.9,0,0,1,1.51-.16A3.9,3.9,0,0,1,13.66,19.73Z" transform="translate(0 0)"/><path class="cls-32" d="M13.65,19.73a3.62,3.62,0,0,1-1.5.16,3.62,3.62,0,0,1-1.5-.16,3.82,3.82,0,0,1,1.5-.16A3.82,3.82,0,0,1,13.65,19.73Z" transform="translate(0 0)"/><path class="cls-32" d="M13.65,19.73a3.62,3.62,0,0,1-1.5.16,3.62,3.62,0,0,1-1.5-.16,3.94,3.94,0,0,1,1.5-.15A3.94,3.94,0,0,1,13.65,19.73Z" transform="translate(0 0)"/><path class="cls-32" d="M13.64,19.73a3.55,3.55,0,0,1-1.49.16,3.55,3.55,0,0,1-1.49-.16,3.87,3.87,0,0,1,1.49-.15A3.87,3.87,0,0,1,13.64,19.73Z" transform="translate(0 0)"/><path class="cls-33" d="M13.64,19.73a3.59,3.59,0,0,1-1.49.16,3.59,3.59,0,0,1-1.49-.16,3.91,3.91,0,0,1,1.49-.15A3.91,3.91,0,0,1,13.64,19.73Z" transform="translate(0 0)"/><path class="cls-33" d="M13.64,19.73a3.59,3.59,0,0,1-1.49.16,3.59,3.59,0,0,1-1.49-.16,3.91,3.91,0,0,1,1.49-.15A3.91,3.91,0,0,1,13.64,19.73Z" transform="translate(0 0)"/><path class="cls-34" d="M13.63,19.73a3.52,3.52,0,0,1-1.48.16,3.52,3.52,0,0,1-1.48-.16,3.83,3.83,0,0,1,1.48-.15A3.83,3.83,0,0,1,13.63,19.73Z" transform="translate(0 0)"/><ellipse class="cls-34" cx="12.15" cy="19.73" rx="1.48" ry="0.16"/><path class="cls-34" d="M13.62,19.73a3.49,3.49,0,0,1-1.47.16,3.49,3.49,0,0,1-1.47-.16,3.8,3.8,0,0,1,1.47-.15A3.8,3.8,0,0,1,13.62,19.73Z" transform="translate(0 0)"/><path class="cls-35" d="M13.62,19.73a3.49,3.49,0,0,1-1.47.16,3.49,3.49,0,0,1-1.47-.16,3.8,3.8,0,0,1,1.47-.15A3.8,3.8,0,0,1,13.62,19.73Z" transform="translate(0 0)"/><path class="cls-35" d="M13.61,19.73a3.43,3.43,0,0,1-1.46.16,3.43,3.43,0,0,1-1.46-.16,3.73,3.73,0,0,1,1.46-.15A3.73,3.73,0,0,1,13.61,19.73Z" transform="translate(0 0)"/><path class="cls-35" d="M13.61,19.73a3.43,3.43,0,0,1-1.46.16,3.43,3.43,0,0,1-1.46-.16,3.73,3.73,0,0,1,1.46-.15A3.73,3.73,0,0,1,13.61,19.73Z" transform="translate(0 0)"/><path class="cls-35" d="M13.61,19.73a3.46,3.46,0,0,1-1.46.16,3.46,3.46,0,0,1-1.46-.16,3.77,3.77,0,0,1,1.46-.15A3.77,3.77,0,0,1,13.61,19.73Z" transform="translate(0 0)"/><path class="cls-36" d="M13.6,19.73a3.49,3.49,0,0,1-1.45.15,3.49,3.49,0,0,1-1.45-.15,3.7,3.7,0,0,1,1.45-.15A3.7,3.7,0,0,1,13.6,19.73Z" transform="translate(0 0)"/><path class="cls-36" d="M13.6,19.73a3.49,3.49,0,0,1-1.45.15,3.49,3.49,0,0,1-1.45-.15,3.7,3.7,0,0,1,1.45-.15A3.7,3.7,0,0,1,13.6,19.73Z" transform="translate(0 0)"/><path class="cls-36" d="M13.59,19.73a3.43,3.43,0,0,1-1.44.15,3.43,3.43,0,0,1-1.44-.15,3.63,3.63,0,0,1,1.44-.15A3.63,3.63,0,0,1,13.59,19.73Z" transform="translate(0 0)"/><path class="cls-36" d="M13.59,19.73a3.43,3.43,0,0,1-1.44.15,3.43,3.43,0,0,1-1.44-.15,3.63,3.63,0,0,1,1.44-.15A3.63,3.63,0,0,1,13.59,19.73Z" transform="translate(0 0)"/><path class="cls-37" d="M13.59,19.73a3.46,3.46,0,0,1-1.44.15,3.46,3.46,0,0,1-1.44-.15,3.67,3.67,0,0,1,1.44-.15A3.67,3.67,0,0,1,13.59,19.73Z" transform="translate(0 0)"/><path class="cls-37" d="M13.58,19.73a3.4,3.4,0,0,1-1.43.15,3.4,3.4,0,0,1-1.43-.15,3.6,3.6,0,0,1,1.43-.15A3.6,3.6,0,0,1,13.58,19.73Z" transform="translate(0 0)"/><path class="cls-37" d="M13.58,19.73a3.4,3.4,0,0,1-1.43.15,3.4,3.4,0,0,1-1.43-.15,3.6,3.6,0,0,1,1.43-.15A3.6,3.6,0,0,1,13.58,19.73Z" transform="translate(0 0)"/><path class="cls-38" d="M13.57,19.73a3.53,3.53,0,0,1-1.42.15,3.53,3.53,0,0,1-1.42-.15,3.53,3.53,0,0,1,1.42-.15A3.53,3.53,0,0,1,13.57,19.73Z" transform="translate(0 0)"/><path class="cls-38" d="M13.57,19.73a3.57,3.57,0,0,1-1.42.15,3.57,3.57,0,0,1-1.42-.15,3.57,3.57,0,0,1,1.42-.15A3.57,3.57,0,0,1,13.57,19.73Z" transform="translate(0 0)"/><ellipse class="cls-39" cx="12.15" cy="19.73" rx="1.41" ry="0.15"/><path class="cls-40" d="M13.56,19.73a3.5,3.5,0,0,1-1.41.15,3.5,3.5,0,0,1-1.41-.15,3.5,3.5,0,0,1,1.41-.15A3.5,3.5,0,0,1,13.56,19.73Z" transform="translate(0 0)"/><path class="cls-40" d="M13.56,19.73a3.5,3.5,0,0,1-1.41.15,3.5,3.5,0,0,1-1.41-.15,3.5,3.5,0,0,1,1.41-.15A3.5,3.5,0,0,1,13.56,19.73Z" transform="translate(0 0)"/><path class="cls-40" d="M13.55,19.73a3.47,3.47,0,0,1-1.4.15,3.47,3.47,0,0,1-1.4-.15,3.57,3.57,0,0,1,1.4-.14A3.57,3.57,0,0,1,13.55,19.73Z" transform="translate(0 0)"/><path class="cls-41" d="M13.55,19.73a3.47,3.47,0,0,1-1.4.15,3.47,3.47,0,0,1-1.4-.15,3.57,3.57,0,0,1,1.4-.14A3.57,3.57,0,0,1,13.55,19.73Z" transform="translate(0 0)"/><path class="cls-42" d="M13.54,19.73a3.4,3.4,0,0,1-1.39.15,3.4,3.4,0,0,1-1.39-.15,3.5,3.5,0,0,1,1.39-.14A3.5,3.5,0,0,1,13.54,19.73Z" transform="translate(0 0)"/><path class="cls-42" d="M13.54,19.73a3.4,3.4,0,0,1-1.39.15,3.4,3.4,0,0,1-1.39-.15,3.5,3.5,0,0,1,1.39-.14A3.5,3.5,0,0,1,13.54,19.73Z" transform="translate(0 0)"/><path class="cls-42" d="M13.54,19.73a3.4,3.4,0,0,1-1.39.15,3.4,3.4,0,0,1-1.39-.15,3.5,3.5,0,0,1,1.39-.14A3.5,3.5,0,0,1,13.54,19.73Z" transform="translate(0 0)"/><path class="cls-43" d="M13.53,19.73a3.37,3.37,0,0,1-1.38.15,3.37,3.37,0,0,1-1.38-.15,3.47,3.47,0,0,1,1.38-.14A3.47,3.47,0,0,1,13.53,19.73Z" transform="translate(0 0)"/><path class="cls-43" d="M13.53,19.73a3.37,3.37,0,0,1-1.38.15,3.37,3.37,0,0,1-1.38-.15,3.47,3.47,0,0,1,1.38-.14A3.47,3.47,0,0,1,13.53,19.73Z" transform="translate(0 0)"/><path class="cls-43" d="M13.52,19.73a3.3,3.3,0,0,1-1.37.15,3.3,3.3,0,0,1-1.37-.15,3.4,3.4,0,0,1,1.37-.14A3.4,3.4,0,0,1,13.52,19.73Z" transform="translate(0 0)"/><path class="cls-44" d="M13.52,19.73a3.3,3.3,0,0,1-1.37.15,3.3,3.3,0,0,1-1.37-.15,3.4,3.4,0,0,1,1.37-.14A3.4,3.4,0,0,1,13.52,19.73Z" transform="translate(0 0)"/><path class="cls-44" d="M13.51,19.73a3.27,3.27,0,0,1-1.36.15,3.27,3.27,0,0,1-1.36-.15,3.37,3.37,0,0,1,1.36-.14A3.37,3.37,0,0,1,13.51,19.73Z" transform="translate(0 0)"/><path class="cls-44" d="M13.51,19.73a3.27,3.27,0,0,1-1.36.15,3.27,3.27,0,0,1-1.36-.15,3.37,3.37,0,0,1,1.36-.14A3.37,3.37,0,0,1,13.51,19.73Z" transform="translate(0 0)"/><path class="cls-44" d="M13.51,19.73a3.37,3.37,0,0,1-1.36.14,3.37,3.37,0,0,1-1.36-.14,3.37,3.37,0,0,1,1.36-.14A3.37,3.37,0,0,1,13.51,19.73Z" transform="translate(0 0)"/><ellipse class="cls-45" cx="12.15" cy="19.73" rx="1.35" ry="0.14"/><path class="cls-45" d="M13.5,19.73a3.34,3.34,0,0,1-1.35.14,3.34,3.34,0,0,1-1.35-.14,3.34,3.34,0,0,1,1.35-.14A3.34,3.34,0,0,1,13.5,19.73Z" transform="translate(0 0)"/><path class="cls-46" d="M13.49,19.73a3.27,3.27,0,0,1-1.34.14,3.27,3.27,0,0,1-1.34-.14,3.27,3.27,0,0,1,1.34-.14A3.27,3.27,0,0,1,13.49,19.73Z" transform="translate(0 0)"/><path class="cls-47" d="M13.49,19.73a3.27,3.27,0,0,1-1.34.14,3.27,3.27,0,0,1-1.34-.14,3.27,3.27,0,0,1,1.34-.14A3.27,3.27,0,0,1,13.49,19.73Z" transform="translate(0 0)"/><path class="cls-48" d="M13.49,19.73a3.27,3.27,0,0,1-1.34.14,3.27,3.27,0,0,1-1.34-.14,3.49,3.49,0,0,1,1.34-.14A3.49,3.49,0,0,1,13.49,19.73Z" transform="translate(0 0)"/><path class="cls-48" d="M13.48,19.73a3.21,3.21,0,0,1-1.33.14,3.21,3.21,0,0,1-1.33-.14,3.42,3.42,0,0,1,1.33-.14A3.42,3.42,0,0,1,13.48,19.73Z" transform="translate(0 0)"/><path class="cls-48" d="M13.48,19.73a3.24,3.24,0,0,1-1.33.14,3.24,3.24,0,0,1-1.33-.14,3.46,3.46,0,0,1,1.33-.14A3.46,3.46,0,0,1,13.48,19.73Z" transform="translate(0 0)"/><path class="cls-49" d="M13.47,19.73a3.18,3.18,0,0,1-1.32.14,3.18,3.18,0,0,1-1.32-.14,3.38,3.38,0,0,1,1.32-.14A3.38,3.38,0,0,1,13.47,19.73Z" transform="translate(0 0)"/><path class="cls-49" d="M13.47,19.73a3.18,3.18,0,0,1-1.32.14,3.18,3.18,0,0,1-1.32-.14,3.38,3.38,0,0,1,1.32-.14A3.38,3.38,0,0,1,13.47,19.73Z" transform="translate(0 0)"/><path class="cls-49" d="M13.46,19.73a3.11,3.11,0,0,1-1.31.14,3.11,3.11,0,0,1-1.31-.14,3.31,3.31,0,0,1,1.31-.14A3.31,3.31,0,0,1,13.46,19.73Z" transform="translate(0 0)"/><path class="cls-50" d="M13.46,19.73a3.15,3.15,0,0,1-1.31.14,3.15,3.15,0,0,1-1.31-.14,3.35,3.35,0,0,1,1.31-.14A3.35,3.35,0,0,1,13.46,19.73Z" transform="translate(0 0)"/><path class="cls-50" d="M13.46,19.73a3.15,3.15,0,0,1-1.31.14,3.15,3.15,0,0,1-1.31-.14,3.47,3.47,0,0,1,1.31-.13A3.47,3.47,0,0,1,13.46,19.73Z" transform="translate(0 0)"/><path class="cls-51" d="M13.45,19.73a3.08,3.08,0,0,1-1.3.14,3.08,3.08,0,0,1-1.3-.14,3.4,3.4,0,0,1,1.3-.13A3.4,3.4,0,0,1,13.45,19.73Z" transform="translate(0 0)"/><path class="cls-52" d="M13.45,19.73a3.08,3.08,0,0,1-1.3.14,3.08,3.08,0,0,1-1.3-.14,3.4,3.4,0,0,1,1.3-.13A3.4,3.4,0,0,1,13.45,19.73Z" transform="translate(0 0)"/><path class="cls-53" d="M13.44,19.73a3.05,3.05,0,0,1-1.29.14,3.05,3.05,0,0,1-1.29-.14,3.36,3.36,0,0,1,1.29-.13A3.36,3.36,0,0,1,13.44,19.73Z" transform="translate(0 0)"/><ellipse class="cls-53" cx="12.15" cy="19.73" rx="1.29" ry="0.14"/><path class="cls-53" d="M13.43,19.73a3,3,0,0,1-1.28.14,3,3,0,0,1-1.28-.14,3.29,3.29,0,0,1,1.28-.13A3.29,3.29,0,0,1,13.43,19.73Z" transform="translate(0 0)"/><path class="cls-54" d="M13.43,19.73a3,3,0,0,1-1.28.14,3,3,0,0,1-1.28-.14,3.29,3.29,0,0,1,1.28-.13A3.29,3.29,0,0,1,13.43,19.73Z" transform="translate(0 0)"/><path class="cls-54" d="M13.43,19.73a3,3,0,0,1-1.28.14,3,3,0,0,1-1.28-.14,3.33,3.33,0,0,1,1.28-.13A3.33,3.33,0,0,1,13.43,19.73Z" transform="translate(0 0)"/><path class="cls-54" d="M13.42,19.73a3,3,0,0,1-1.27.14,3,3,0,0,1-1.27-.14,3.26,3.26,0,0,1,1.27-.13A3.26,3.26,0,0,1,13.42,19.73Z" transform="translate(0 0)"/><path class="cls-55" d="M13.42,19.73a3,3,0,0,1-1.27.14,3,3,0,0,1-1.27-.14,3.26,3.26,0,0,1,1.27-.13A3.26,3.26,0,0,1,13.42,19.73Z" transform="translate(0 0)"/><path class="cls-55" d="M13.41,19.73a2.89,2.89,0,0,1-1.26.14,2.89,2.89,0,0,1-1.26-.14,3.19,3.19,0,0,1,1.26-.13A3.19,3.19,0,0,1,13.41,19.73Z" transform="translate(0 0)"/><path class="cls-56" d="M13.41,19.73a3,3,0,0,1-1.26.13,3,3,0,0,1-1.26-.13,3.19,3.19,0,0,1,1.26-.13A3.19,3.19,0,0,1,13.41,19.73Z" transform="translate(0 0)"/><path class="cls-57" d="M13.41,19.73a3,3,0,0,1-1.26.13,3,3,0,0,1-1.26-.13,3.23,3.23,0,0,1,1.26-.13A3.23,3.23,0,0,1,13.41,19.73Z" transform="translate(0 0)"/><path class="cls-57" d="M13.4,19.73a3.16,3.16,0,0,1-1.25.13,3.16,3.16,0,0,1-1.25-.13,3.16,3.16,0,0,1,1.25-.13A3.16,3.16,0,0,1,13.4,19.73Z" transform="translate(0 0)"/><path class="cls-57" d="M13.4,19.73a3.16,3.16,0,0,1-1.25.13,3.16,3.16,0,0,1-1.25-.13,3.16,3.16,0,0,1,1.25-.13A3.16,3.16,0,0,1,13.4,19.73Z" transform="translate(0 0)"/><path class="cls-58" d="M13.39,19.73a3.09,3.09,0,0,1-1.24.13,3.09,3.09,0,0,1-1.24-.13,3.09,3.09,0,0,1,1.24-.13A3.09,3.09,0,0,1,13.39,19.73Z" transform="translate(0 0)"/><path class="cls-59" d="M13.39,19.73a3.13,3.13,0,0,1-1.24.13,3.13,3.13,0,0,1-1.24-.13,3.13,3.13,0,0,1,1.24-.13A3.13,3.13,0,0,1,13.39,19.73Z" transform="translate(0 0)"/><path class="cls-60" d="M13.38,19.73a3.06,3.06,0,0,1-1.23.13,3.06,3.06,0,0,1-1.23-.13,3.06,3.06,0,0,1,1.23-.13A3.06,3.06,0,0,1,13.38,19.73Z" transform="translate(0 0)"/><path class="cls-61" d="M13.38,19.73a3.06,3.06,0,0,1-1.23.13,3.06,3.06,0,0,1-1.23-.13,3.06,3.06,0,0,1,1.23-.13A3.06,3.06,0,0,1,13.38,19.73Z" transform="translate(0 0)"/><ellipse class="cls-61" cx="12.15" cy="19.73" rx="1.23" ry="0.13"/><path class="cls-61" d="M13.37,19.73a3,3,0,0,1-1.22.13,3,3,0,0,1-1.22-.13,3,3,0,0,1,1.22-.13A3,3,0,0,1,13.37,19.73Z" transform="translate(0 0)"/><path class="cls-62" d="M13.37,19.73a3,3,0,0,1-1.22.13,3,3,0,0,1-1.22-.13,3,3,0,0,1,1.22-.13A3,3,0,0,1,13.37,19.73Z" transform="translate(0 0)"/><path class="cls-62" d="M13.36,19.73a3,3,0,0,1-1.21.13,3,3,0,0,1-1.21-.13,3.06,3.06,0,0,1,1.21-.12A3.06,3.06,0,0,1,13.36,19.73Z" transform="translate(0 0)"/><path class="cls-63" d="M13.36,19.73a3,3,0,0,1-1.21.13,3,3,0,0,1-1.21-.13,3.06,3.06,0,0,1,1.21-.12A3.06,3.06,0,0,1,13.36,19.73Z" transform="translate(0 0)"/><path class="cls-64" d="M13.36,19.73a3,3,0,0,1-1.21.13,3,3,0,0,1-1.21-.13,3.06,3.06,0,0,1,1.21-.12A3.06,3.06,0,0,1,13.36,19.73Z" transform="translate(0 0)"/><path class="cls-65" d="M13.35,19.73a2.93,2.93,0,0,1-1.2.13,2.93,2.93,0,0,1-1.2-.13,3,3,0,0,1,1.2-.12A3,3,0,0,1,13.35,19.73Z" transform="translate(0 0)"/><path class="cls-66" d="M13.35,19.73a2.93,2.93,0,0,1-1.2.13,2.93,2.93,0,0,1-1.2-.13,3,3,0,0,1,1.2-.12A3,3,0,0,1,13.35,19.73Z" transform="translate(0 0)"/><path class="cls-66" d="M13.34,19.73a2.86,2.86,0,0,1-1.19.13A2.86,2.86,0,0,1,11,19.73a3,3,0,0,1,1.19-.12A3,3,0,0,1,13.34,19.73Z" transform="translate(0 0)"/><path class="cls-66" d="M13.34,19.73a2.86,2.86,0,0,1-1.19.13A2.86,2.86,0,0,1,11,19.73a3,3,0,0,1,1.19-.12A3,3,0,0,1,13.34,19.73Z" transform="translate(0 0)"/><path class="cls-67" d="M13.33,19.73a2.83,2.83,0,0,1-1.18.13A2.83,2.83,0,0,1,11,19.73a2.93,2.93,0,0,1,1.18-.12A2.93,2.93,0,0,1,13.33,19.73Z" transform="translate(0 0)"/><path class="cls-68" d="M13.33,19.73a2.83,2.83,0,0,1-1.18.13A2.83,2.83,0,0,1,11,19.73a2.93,2.93,0,0,1,1.18-.12A2.93,2.93,0,0,1,13.33,19.73Z" transform="translate(0 0)"/><path class="cls-68" d="M13.33,19.73a2.83,2.83,0,0,1-1.18.13A2.83,2.83,0,0,1,11,19.73a2.93,2.93,0,0,1,1.18-.12A2.93,2.93,0,0,1,13.33,19.73Z" transform="translate(0 0)"/><path class="cls-69" d="M13.32,19.73a2.76,2.76,0,0,1-1.17.13A2.76,2.76,0,0,1,11,19.73a2.86,2.86,0,0,1,1.17-.12A2.86,2.86,0,0,1,13.32,19.73Z" transform="translate(0 0)"/><path class="cls-69" d="M13.32,19.73a2.9,2.9,0,0,1-1.17.12A2.9,2.9,0,0,1,11,19.73a2.9,2.9,0,0,1,1.17-.12A2.9,2.9,0,0,1,13.32,19.73Z" transform="translate(0 0)"/><ellipse class="cls-70" cx="12.15" cy="19.73" rx="1.16" ry="0.12"/><path class="cls-70" d="M13.31,19.73a2.83,2.83,0,0,1-1.16.12A2.83,2.83,0,0,1,11,19.73a3.05,3.05,0,0,1,1.16-.12A3.05,3.05,0,0,1,13.31,19.73Z" transform="translate(0 0)"/><path class="cls-70" d="M13.31,19.73a2.83,2.83,0,0,1-1.16.12A2.83,2.83,0,0,1,11,19.73a3.05,3.05,0,0,1,1.16-.12A3.05,3.05,0,0,1,13.31,19.73Z" transform="translate(0 0)"/><path class="cls-71" d="M13.3,19.73a2.77,2.77,0,0,1-1.15.12A2.77,2.77,0,0,1,11,19.73a3,3,0,0,1,1.15-.12A3,3,0,0,1,13.3,19.73Z" transform="translate(0 0)"/><path class="cls-72" d="M13.3,19.73a2.8,2.8,0,0,1-1.15.12A2.8,2.8,0,0,1,11,19.73a3,3,0,0,1,1.15-.12A3,3,0,0,1,13.3,19.73Z" transform="translate(0 0)"/><path class="cls-73" d="M13.29,19.73a2.74,2.74,0,0,1-1.14.12A2.74,2.74,0,0,1,11,19.73a3,3,0,0,1,1.14-.12A3,3,0,0,1,13.29,19.73Z" transform="translate(0 0)"/><path class="cls-73" d="M13.29,19.73a2.74,2.74,0,0,1-1.14.12A2.74,2.74,0,0,1,11,19.73a3,3,0,0,1,1.14-.12A3,3,0,0,1,13.29,19.73Z" transform="translate(0 0)"/><path class="cls-73" d="M13.28,19.73a2.67,2.67,0,0,1-1.13.12A2.67,2.67,0,0,1,11,19.73a2.87,2.87,0,0,1,1.13-.12A2.87,2.87,0,0,1,13.28,19.73Z" transform="translate(0 0)"/><path class="cls-74" d="M13.28,19.73a2.71,2.71,0,0,1-1.13.12A2.71,2.71,0,0,1,11,19.73a2.91,2.91,0,0,1,1.13-.12A2.91,2.91,0,0,1,13.28,19.73Z" transform="translate(0 0)"/><path class="cls-75" d="M13.28,19.73a2.71,2.71,0,0,1-1.13.12A2.71,2.71,0,0,1,11,19.73a2.91,2.91,0,0,1,1.13-.12A2.91,2.91,0,0,1,13.28,19.73Z" transform="translate(0 0)"/><path class="cls-76" d="M13.27,19.73a2.64,2.64,0,0,1-1.12.12A2.64,2.64,0,0,1,11,19.73a2.84,2.84,0,0,1,1.12-.12A2.84,2.84,0,0,1,13.27,19.73Z" transform="translate(0 0)"/><path class="cls-76" d="M13.27,19.73a2.64,2.64,0,0,1-1.12.12A2.64,2.64,0,0,1,11,19.73a3,3,0,0,1,1.12-.11A3,3,0,0,1,13.27,19.73Z" transform="translate(0 0)"/><path class="cls-77" d="M13.26,19.73a2.61,2.61,0,0,1-1.11.12A2.61,2.61,0,0,1,11,19.73a2.93,2.93,0,0,1,1.11-.11A2.93,2.93,0,0,1,13.26,19.73Z" transform="translate(0 0)"/><path class="cls-78" d="M13.26,19.73a2.61,2.61,0,0,1-1.11.12A2.61,2.61,0,0,1,11,19.73a2.93,2.93,0,0,1,1.11-.11A2.93,2.93,0,0,1,13.26,19.73Z" transform="translate(0 0)"/><path class="cls-78" d="M13.25,19.73a2.55,2.55,0,0,1-1.1.12,2.55,2.55,0,0,1-1.1-.12,2.85,2.85,0,0,1,1.1-.11A2.85,2.85,0,0,1,13.25,19.73Z" transform="translate(0 0)"/><ellipse class="cls-79" cx="12.15" cy="19.73" rx="1.1" ry="0.12"/><path class="cls-80" d="M13.25,19.73a2.55,2.55,0,0,1-1.1.12,2.55,2.55,0,0,1-1.1-.12,2.85,2.85,0,0,1,1.1-.11A2.85,2.85,0,0,1,13.25,19.73Z" transform="translate(0 0)"/><path class="cls-81" d="M13.24,19.73a2.52,2.52,0,0,1-1.09.12,2.52,2.52,0,0,1-1.09-.12,2.82,2.82,0,0,1,1.09-.11A2.82,2.82,0,0,1,13.24,19.73Z" transform="translate(0 0)"/><path class="cls-81" d="M13.24,19.73a2.52,2.52,0,0,1-1.09.12,2.52,2.52,0,0,1-1.09-.12,2.82,2.82,0,0,1,1.09-.11A2.82,2.82,0,0,1,13.24,19.73Z" transform="translate(0 0)"/><path class="cls-82" d="M13.23,19.73a2.45,2.45,0,0,1-1.08.12,2.45,2.45,0,0,1-1.08-.12,2.75,2.75,0,0,1,1.08-.11A2.75,2.75,0,0,1,13.23,19.73Z" transform="translate(0 0)"/><path class="cls-83" d="M13.23,19.73a2.64,2.64,0,0,1-1.08.12,2.64,2.64,0,0,1-1.08-.12,2.75,2.75,0,0,1,1.08-.11A2.75,2.75,0,0,1,13.23,19.73Z" transform="translate(0 0)"/><path class="cls-83" d="M13.23,19.73a2.68,2.68,0,0,1-1.08.12,2.68,2.68,0,0,1-1.08-.12,2.79,2.79,0,0,1,1.08-.11A2.79,2.79,0,0,1,13.23,19.73Z" transform="translate(0 0)"/><path class="cls-84" d="M13.22,19.73a2.72,2.72,0,0,1-1.07.11,2.72,2.72,0,0,1-1.07-.11,2.72,2.72,0,0,1,1.07-.11A2.72,2.72,0,0,1,13.22,19.73Z" transform="translate(0 0)"/><path class="cls-85" d="M13.22,19.73a2.72,2.72,0,0,1-1.07.11,2.72,2.72,0,0,1-1.07-.11,2.72,2.72,0,0,1,1.07-.11A2.72,2.72,0,0,1,13.22,19.73Z" transform="translate(0 0)"/><path class="cls-86" d="M13.21,19.73a2.65,2.65,0,0,1-1.06.11,2.65,2.65,0,0,1-1.06-.11,2.65,2.65,0,0,1,1.06-.11A2.65,2.65,0,0,1,13.21,19.73Z" transform="translate(0 0)"/><path class="cls-86" d="M13.21,19.73a2.69,2.69,0,0,1-1.06.11,2.69,2.69,0,0,1-1.06-.11,2.69,2.69,0,0,1,1.06-.11A2.69,2.69,0,0,1,13.21,19.73Z" transform="translate(0 0)"/><path class="cls-87" d="M13.2,19.73a2.62,2.62,0,0,1-1,.11,2.62,2.62,0,0,1-1.05-.11,2.62,2.62,0,0,1,1.05-.11A2.62,2.62,0,0,1,13.2,19.73Z" transform="translate(0 0)"/><path class="cls-87" d="M13.2,19.73a2.62,2.62,0,0,1-1,.11,2.62,2.62,0,0,1-1.05-.11,2.62,2.62,0,0,1,1.05-.11A2.62,2.62,0,0,1,13.2,19.73Z" transform="translate(0 0)"/><path class="cls-87" d="M13.2,19.73a2.62,2.62,0,0,1-1,.11,2.62,2.62,0,0,1-1.05-.11,2.62,2.62,0,0,1,1.05-.11A2.62,2.62,0,0,1,13.2,19.73Z" transform="translate(0 0)"/><path class="cls-88" d="M13.19,19.73a2.55,2.55,0,0,1-1,.11,2.55,2.55,0,0,1-1-.11,2.55,2.55,0,0,1,1-.11A2.55,2.55,0,0,1,13.19,19.73Z" transform="translate(0 0)"/><ellipse class="cls-89" cx="12.15" cy="19.73" rx="1.04" ry="0.11"/><path class="cls-90" d="M13.18,19.73a2.52,2.52,0,0,1-1,.11,2.52,2.52,0,0,1-1-.11,2.52,2.52,0,0,1,1-.11A2.52,2.52,0,0,1,13.18,19.73Z" transform="translate(0 0)"/><path class="cls-90" d="M13.18,19.73a2.52,2.52,0,0,1-1,.11,2.52,2.52,0,0,1-1-.11,2.52,2.52,0,0,1,1-.11A2.52,2.52,0,0,1,13.18,19.73Z" transform="translate(0 0)"/><path class="cls-91" d="M13.18,19.73a2.52,2.52,0,0,1-1,.11,2.52,2.52,0,0,1-1-.11,2.52,2.52,0,0,1,1-.11A2.52,2.52,0,0,1,13.18,19.73Z" transform="translate(0 0)"/><path class="cls-91" d="M13.17,19.73a2.49,2.49,0,0,1-1,.11,2.49,2.49,0,0,1-1-.11,2.59,2.59,0,0,1,1-.1A2.59,2.59,0,0,1,13.17,19.73Z" transform="translate(0 0)"/><path class="cls-92" d="M13.17,19.73a2.49,2.49,0,0,1-1,.11,2.49,2.49,0,0,1-1-.11,2.59,2.59,0,0,1,1-.1A2.59,2.59,0,0,1,13.17,19.73Z" transform="translate(0 0)"/><path class="cls-93" d="M13.16,19.73a2.42,2.42,0,0,1-1,.11,2.42,2.42,0,0,1-1-.11,2.52,2.52,0,0,1,1-.1A2.52,2.52,0,0,1,13.16,19.73Z" transform="translate(0 0)"/><path class="cls-94" d="M13.16,19.73a2.42,2.42,0,0,1-1,.11,2.42,2.42,0,0,1-1-.11,2.52,2.52,0,0,1,1-.1A2.52,2.52,0,0,1,13.16,19.73Z" transform="translate(0 0)"/><path class="cls-94" d="M13.15,19.73a2.39,2.39,0,0,1-1,.11,2.39,2.39,0,0,1-1-.11,2.49,2.49,0,0,1,1-.1A2.49,2.49,0,0,1,13.15,19.73Z" transform="translate(0 0)"/><path class="cls-95" d="M13.15,19.73a2.39,2.39,0,0,1-1,.11,2.39,2.39,0,0,1-1-.11,2.49,2.49,0,0,1,1-.1A2.49,2.49,0,0,1,13.15,19.73Z" transform="translate(0 0)"/><path class="cls-96" d="M13.15,19.73a2.39,2.39,0,0,1-1,.11,2.39,2.39,0,0,1-1-.11,2.49,2.49,0,0,1,1-.1A2.49,2.49,0,0,1,13.15,19.73Z" transform="translate(0 0)"/><path class="cls-97" d="M13.14,19.73a2.32,2.32,0,0,1-1,.11,2.32,2.32,0,0,1-1-.11,2.42,2.42,0,0,1,1-.1A2.42,2.42,0,0,1,13.14,19.73Z" transform="translate(0 0)"/><path class="cls-97" d="M13.14,19.73a2.32,2.32,0,0,1-1,.11,2.32,2.32,0,0,1-1-.11,2.65,2.65,0,0,1,1-.1A2.65,2.65,0,0,1,13.14,19.73Z" transform="translate(0 0)"/><path class="cls-98" d="M13.13,19.73a2.3,2.3,0,0,1-1,.11,2.3,2.3,0,0,1-1-.11,2.61,2.61,0,0,1,1-.1A2.61,2.61,0,0,1,13.13,19.73Z" transform="translate(0 0)"/><path class="cls-98" d="M13.13,19.73a2.3,2.3,0,0,1-1,.11,2.3,2.3,0,0,1-1-.11,2.61,2.61,0,0,1,1-.1A2.61,2.61,0,0,1,13.13,19.73Z" transform="translate(0 0)"/><ellipse class="cls-99" cx="12.15" cy="19.73" rx="0.98" ry="0.1"/><path class="cls-100" d="M13.12,19.73a2.33,2.33,0,0,1-1,.1,2.33,2.33,0,0,1-1-.1,2.54,2.54,0,0,1,1-.1A2.54,2.54,0,0,1,13.12,19.73Z" transform="translate(0 0)"/><path class="cls-101" d="M13.12,19.73a2.36,2.36,0,0,1-1,.1,2.36,2.36,0,0,1-1-.1,2.58,2.58,0,0,1,1-.1A2.58,2.58,0,0,1,13.12,19.73Z" transform="translate(0 0)"/><path class="cls-101" d="M13.11,19.73a2.3,2.3,0,0,1-1,.1,2.3,2.3,0,0,1-1-.1,2.51,2.51,0,0,1,1-.1A2.51,2.51,0,0,1,13.11,19.73Z" transform="translate(0 0)"/><path class="cls-102" d="M13.11,19.73a2.3,2.3,0,0,1-1,.1,2.3,2.3,0,0,1-1-.1,2.51,2.51,0,0,1,1-.1A2.51,2.51,0,0,1,13.11,19.73Z" transform="translate(0 0)"/><path class="cls-103" d="M13.1,19.73a2.23,2.23,0,0,1-.95.1,2.23,2.23,0,0,1-1-.1,2.43,2.43,0,0,1,1-.1A2.43,2.43,0,0,1,13.1,19.73Z" transform="translate(0 0)"/><path class="cls-104" d="M13.1,19.73a2.27,2.27,0,0,1-.95.1,2.27,2.27,0,0,1-1-.1,2.48,2.48,0,0,1,1-.1A2.48,2.48,0,0,1,13.1,19.73Z" transform="translate(0 0)"/><path class="cls-104" d="M13.1,19.73a2.27,2.27,0,0,1-.95.1,2.27,2.27,0,0,1-1-.1,2.48,2.48,0,0,1,1-.1A2.48,2.48,0,0,1,13.1,19.73Z" transform="translate(0 0)"/><path class="cls-105" d="M13.09,19.73a2.2,2.2,0,0,1-.94.1,2.2,2.2,0,0,1-.94-.1,2.4,2.4,0,0,1,.94-.1A2.4,2.4,0,0,1,13.09,19.73Z" transform="translate(0 0)"/><path class="cls-105" d="M13.09,19.73a2.2,2.2,0,0,1-.94.1,2.2,2.2,0,0,1-.94-.1,2.4,2.4,0,0,1,.94-.1A2.4,2.4,0,0,1,13.09,19.73Z" transform="translate(0 0)"/><path class="cls-106" d="M13.08,19.73a2.14,2.14,0,0,1-.93.1,2.14,2.14,0,0,1-.93-.1,2.33,2.33,0,0,1,.93-.1A2.33,2.33,0,0,1,13.08,19.73Z" transform="translate(0 0)"/><path class="cls-107" d="M13.08,19.73a2.17,2.17,0,0,1-.93.1,2.17,2.17,0,0,1-.93-.1,2.37,2.37,0,0,1,.93-.1A2.37,2.37,0,0,1,13.08,19.73Z" transform="translate(0 0)"/><path class="cls-108" d="M13.07,19.73a2.11,2.11,0,0,1-.92.1,2.11,2.11,0,0,1-.92-.1,2.41,2.41,0,0,1,.92-.09A2.41,2.41,0,0,1,13.07,19.73Z" transform="translate(0 0)"/><path class="cls-108" d="M13.07,19.73a2.11,2.11,0,0,1-.92.1,2.11,2.11,0,0,1-.92-.1,2.41,2.41,0,0,1,.92-.09A2.41,2.41,0,0,1,13.07,19.73Z" transform="translate(0 0)"/><path class="cls-109" d="M13.07,19.73a2.11,2.11,0,0,1-.92.1,2.11,2.11,0,0,1-.92-.1,2.41,2.41,0,0,1,.92-.09A2.41,2.41,0,0,1,13.07,19.73Z" transform="translate(0 0)"/><ellipse class="cls-110" cx="12.15" cy="19.73" rx="0.91" ry="0.1"/><path class="cls-111" d="M13.06,19.73a2.08,2.08,0,0,1-.91.1,2.08,2.08,0,0,1-.91-.1,2.38,2.38,0,0,1,.91-.09A2.38,2.38,0,0,1,13.06,19.73Z" transform="translate(0 0)"/><path class="cls-112" d="M13.05,19.73a2.2,2.2,0,0,1-.9.1,2.2,2.2,0,0,1-.9-.1,2.31,2.31,0,0,1,.9-.09A2.31,2.31,0,0,1,13.05,19.73Z" transform="translate(0 0)"/><path class="cls-112" d="M13.05,19.73a2.2,2.2,0,0,1-.9.1,2.2,2.2,0,0,1-.9-.1,2.31,2.31,0,0,1,.9-.09A2.31,2.31,0,0,1,13.05,19.73Z" transform="translate(0 0)"/><path class="cls-113" d="M13.05,19.73a2.24,2.24,0,0,1-.9.1,2.24,2.24,0,0,1-.9-.1,2.35,2.35,0,0,1,.9-.09A2.35,2.35,0,0,1,13.05,19.73Z" transform="translate(0 0)"/><path class="cls-114" d="M13,19.73a2.17,2.17,0,0,1-.89.1,2.17,2.17,0,0,1-.89-.1,2.28,2.28,0,0,1,.89-.09A2.28,2.28,0,0,1,13,19.73Z" transform="translate(0 0)"/><path class="cls-115" d="M13,19.73a2.17,2.17,0,0,1-.89.1,2.17,2.17,0,0,1-.89-.1,2.28,2.28,0,0,1,.89-.09A2.28,2.28,0,0,1,13,19.73Z" transform="translate(0 0)"/><path class="cls-116" d="M13,19.73a2.1,2.1,0,0,1-.88.1,2.1,2.1,0,0,1-.88-.1,2.21,2.21,0,0,1,.88-.09A2.21,2.21,0,0,1,13,19.73Z" transform="translate(0 0)"/><path class="cls-117" d="M13,19.73a2.21,2.21,0,0,1-.88.09,2.21,2.21,0,0,1-.88-.09,2.21,2.21,0,0,1,.88-.09A2.21,2.21,0,0,1,13,19.73Z" transform="translate(0 0)"/><path class="cls-118" d="M13,19.73a2.18,2.18,0,0,1-.87.09,2.18,2.18,0,0,1-.87-.09,2.18,2.18,0,0,1,.87-.09A2.18,2.18,0,0,1,13,19.73Z" transform="translate(0 0)"/><path class="cls-119" d="M13,19.73a2.18,2.18,0,0,1-.87.09,2.18,2.18,0,0,1-.87-.09,2.18,2.18,0,0,1,.87-.09A2.18,2.18,0,0,1,13,19.73Z" transform="translate(0 0)"/><path class="cls-120" d="M13,19.73a2.18,2.18,0,0,1-.87.09,2.18,2.18,0,0,1-.87-.09,2.18,2.18,0,0,1,.87-.09A2.18,2.18,0,0,1,13,19.73Z" transform="translate(0 0)"/><path class="cls-120" d="M13,19.73a2.11,2.11,0,0,1-.86.09,2.11,2.11,0,0,1-.86-.09,2.11,2.11,0,0,1,.86-.09A2.11,2.11,0,0,1,13,19.73Z" transform="translate(0 0)"/><path class="cls-121" d="M13,19.73a2.15,2.15,0,0,1-.86.09,2.15,2.15,0,0,1-.86-.09,2.15,2.15,0,0,1,.86-.09A2.15,2.15,0,0,1,13,19.73Z" transform="translate(0 0)"/><path class="cls-121" d="M13,19.73a2.08,2.08,0,0,1-.85.09,2.08,2.08,0,0,1-.85-.09,2.08,2.08,0,0,1,.85-.09A2.08,2.08,0,0,1,13,19.73Z" transform="translate(0 0)"/><ellipse class="cls-122" cx="12.15" cy="19.73" rx="0.85" ry="0.09"/><path class="cls-123" d="M13,19.73a2.08,2.08,0,0,1-.85.09,2.08,2.08,0,0,1-.85-.09,2.08,2.08,0,0,1,.85-.09A2.08,2.08,0,0,1,13,19.73Z" transform="translate(0 0)"/><path class="cls-124" d="M13,19.73a2,2,0,0,1-.84.09,2,2,0,0,1-.84-.09,2,2,0,0,1,.84-.09A2,2,0,0,1,13,19.73Z" transform="translate(0 0)"/><path class="cls-125" d="M13,19.73a2,2,0,0,1-.84.09,2,2,0,0,1-.84-.09,2,2,0,0,1,.84-.09A2,2,0,0,1,13,19.73Z" transform="translate(0 0)"/><path class="cls-126" d="M13,19.73a2,2,0,0,1-.83.09,2,2,0,0,1-.83-.09,2,2,0,0,1,.83-.09A2,2,0,0,1,13,19.73Z" transform="translate(0 0)"/><path class="cls-127" d="M13,19.73a2,2,0,0,1-.83.09,2,2,0,0,1-.83-.09,2.08,2.08,0,0,1,.83-.08A2.08,2.08,0,0,1,13,19.73Z" transform="translate(0 0)"/><path class="cls-128" d="M13,19.73a1.91,1.91,0,0,1-.82.09,1.91,1.91,0,0,1-.82-.09,2,2,0,0,1,.82-.08A2,2,0,0,1,13,19.73Z" transform="translate(0 0)"/><path class="cls-129" d="M13,19.73a2,2,0,0,1-.82.09,2,2,0,0,1-.82-.09,2.05,2.05,0,0,1,.82-.08A2.05,2.05,0,0,1,13,19.73Z" transform="translate(0 0)"/><path class="cls-130" d="M13,19.73a2,2,0,0,1-.82.09,2,2,0,0,1-.82-.09,2.29,2.29,0,0,1,.82-.08A2.29,2.29,0,0,1,13,19.73Z" transform="translate(0 0)"/><path class="cls-131" d="M13,19.73a1.89,1.89,0,0,1-.81.09,1.89,1.89,0,0,1-.81-.09,2.21,2.21,0,0,1,.81-.08A2.21,2.21,0,0,1,13,19.73Z" transform="translate(0 0)"/><path class="cls-132" d="M13,19.73a1.89,1.89,0,0,1-.81.09,1.89,1.89,0,0,1-.81-.09,2.21,2.21,0,0,1,.81-.08A2.21,2.21,0,0,1,13,19.73Z" transform="translate(0 0)"/><path class="cls-133" d="M13,19.73a1.86,1.86,0,0,1-.8.09,1.86,1.86,0,0,1-.8-.09,2.18,2.18,0,0,1,.8-.08A2.18,2.18,0,0,1,13,19.73Z" transform="translate(0 0)"/><path class="cls-134" d="M13,19.73a1.86,1.86,0,0,1-.8.09,1.86,1.86,0,0,1-.8-.09,2.18,2.18,0,0,1,.8-.08A2.18,2.18,0,0,1,13,19.73Z" transform="translate(0 0)"/><path class="cls-135" d="M13,19.73a1.86,1.86,0,0,1-.8.09,1.86,1.86,0,0,1-.8-.09,2.18,2.18,0,0,1,.8-.08A2.18,2.18,0,0,1,13,19.73Z" transform="translate(0 0)"/><path class="cls-136" d="M12.94,19.73a1.79,1.79,0,0,1-.79.09,1.79,1.79,0,0,1-.79-.09,2.1,2.1,0,0,1,.79-.08A2.1,2.1,0,0,1,12.94,19.73Z" transform="translate(0 0)"/><path class="cls-137" d="M12.94,19.73a1.92,1.92,0,0,1-.79.08,1.92,1.92,0,0,1-.79-.08,2.14,2.14,0,0,1,.79-.08A2.14,2.14,0,0,1,12.94,19.73Z" transform="translate(0 0)"/><path class="cls-138" d="M12.93,19.73a1.86,1.86,0,0,1-.78.08,1.86,1.86,0,0,1-.78-.08,2.07,2.07,0,0,1,.78-.08A2.07,2.07,0,0,1,12.93,19.73Z" transform="translate(0 0)"/><path class="cls-139" d="M12.93,19.73a1.86,1.86,0,0,1-.78.08,1.86,1.86,0,0,1-.78-.08,2.07,2.07,0,0,1,.78-.08A2.07,2.07,0,0,1,12.93,19.73Z" transform="translate(0 0)"/><path class="cls-140" d="M12.92,19.73a1.79,1.79,0,0,1-.77.08,1.79,1.79,0,0,1-.77-.08,2,2,0,0,1,.77-.08A2,2,0,0,1,12.92,19.73Z" transform="translate(0 0)"/><path class="cls-141" d="M12.92,19.73a1.79,1.79,0,0,1-.77.08,1.79,1.79,0,0,1-.77-.08,2,2,0,0,1,.77-.08A2,2,0,0,1,12.92,19.73Z" transform="translate(0 0)"/><path class="cls-142" d="M12.92,19.73a1.83,1.83,0,0,1-.77.08,1.83,1.83,0,0,1-.77-.08,2,2,0,0,1,.77-.08A2,2,0,0,1,12.92,19.73Z" transform="translate(0 0)"/><path class="cls-143" d="M12.91,19.73a1.76,1.76,0,0,1-.76.08,1.76,1.76,0,0,1-.76-.08,2,2,0,0,1,.76-.08A2,2,0,0,1,12.91,19.73Z" transform="translate(0 0)"/><path class="cls-144" d="M12.91,19.73a1.76,1.76,0,0,1-.76.08,1.76,1.76,0,0,1-.76-.08,2,2,0,0,1,.76-.08A2,2,0,0,1,12.91,19.73Z" transform="translate(0 0)"/><path class="cls-145" d="M12.9,19.73a1.7,1.7,0,0,1-.75.08,1.7,1.7,0,0,1-.75-.08,1.89,1.89,0,0,1,.75-.08A1.89,1.89,0,0,1,12.9,19.73Z" transform="translate(0 0)"/><path class="cls-146" d="M12.9,19.73a1.73,1.73,0,0,1-.75.08,1.73,1.73,0,0,1-.75-.08,1.93,1.93,0,0,1,.75-.08A1.93,1.93,0,0,1,12.9,19.73Z" transform="translate(0 0)"/><path class="cls-146" d="M12.89,19.73a1.67,1.67,0,0,1-.74.08,1.67,1.67,0,0,1-.74-.08,1.86,1.86,0,0,1,.74-.08A1.86,1.86,0,0,1,12.89,19.73Z" transform="translate(0 0)"/><path class="cls-147" d="M12.89,19.73a1.67,1.67,0,0,1-.74.08,1.67,1.67,0,0,1-.74-.08,1.86,1.86,0,0,1,.74-.08A1.86,1.86,0,0,1,12.89,19.73Z" transform="translate(0 0)"/><path class="cls-148" d="M12.89,19.73a1.67,1.67,0,0,1-.74.08,1.67,1.67,0,0,1-.74-.08,2,2,0,0,1,.74-.07A2,2,0,0,1,12.89,19.73Z" transform="translate(0 0)"/><path class="cls-148" d="M12.88,19.73a1.83,1.83,0,0,1-.73.08,1.83,1.83,0,0,1-.73-.08,1.94,1.94,0,0,1,.73-.07A1.94,1.94,0,0,1,12.88,19.73Z" transform="translate(0 0)"/><path class="cls-149" d="M12.88,19.73a1.83,1.83,0,0,1-.73.08,1.83,1.83,0,0,1-.73-.08,1.94,1.94,0,0,1,.73-.07A1.94,1.94,0,0,1,12.88,19.73Z" transform="translate(0 0)"/><path class="cls-150" d="M12.87,19.73a1.76,1.76,0,0,1-.72.08,1.76,1.76,0,0,1-.72-.08,1.87,1.87,0,0,1,.72-.07A1.87,1.87,0,0,1,12.87,19.73Z" transform="translate(0 0)"/><path class="cls-151" d="M12.87,19.73a1.76,1.76,0,0,1-.72.08,1.76,1.76,0,0,1-.72-.08,1.87,1.87,0,0,1,.72-.07A1.87,1.87,0,0,1,12.87,19.73Z" transform="translate(0 0)"/><path class="cls-152" d="M12.87,19.73a1.76,1.76,0,0,1-.72.08,1.76,1.76,0,0,1-.72-.08,1.87,1.87,0,0,1,.72-.07A1.87,1.87,0,0,1,12.87,19.73Z" transform="translate(0 0)"/><path class="cls-153" d="M12.86,19.73a1.73,1.73,0,0,1-.71.08,1.73,1.73,0,0,1-.71-.08,1.84,1.84,0,0,1,.71-.07A1.84,1.84,0,0,1,12.86,19.73Z" transform="translate(0 0)"/><path class="cls-154" d="M12.86,19.73a1.73,1.73,0,0,1-.71.08,1.73,1.73,0,0,1-.71-.08,1.84,1.84,0,0,1,.71-.07A1.84,1.84,0,0,1,12.86,19.73Z" transform="translate(0 0)"/><path class="cls-155" d="M12.85,19.73a1.66,1.66,0,0,1-.7.08,1.66,1.66,0,0,1-.7-.08,1.77,1.77,0,0,1,.7-.07A1.77,1.77,0,0,1,12.85,19.73Z" transform="translate(0 0)"/><path class="cls-156" d="M12.85,19.73a1.66,1.66,0,0,1-.7.08,1.66,1.66,0,0,1-.7-.08,1.77,1.77,0,0,1,.7-.07A1.77,1.77,0,0,1,12.85,19.73Z" transform="translate(0 0)"/><path class="cls-157" d="M12.84,19.73a1.64,1.64,0,0,1-.69.08,1.64,1.64,0,0,1-.69-.08,1.74,1.74,0,0,1,.69-.07A1.74,1.74,0,0,1,12.84,19.73Z" transform="translate(0 0)"/><path class="cls-158" d="M12.84,19.73a1.74,1.74,0,0,1-.69.07,1.74,1.74,0,0,1-.69-.07,1.74,1.74,0,0,1,.69-.07A1.74,1.74,0,0,1,12.84,19.73Z" transform="translate(0 0)"/><path class="cls-159" d="M12.84,19.73a1.74,1.74,0,0,1-.69.07,1.74,1.74,0,0,1-.69-.07,1.74,1.74,0,0,1,.69-.07A1.74,1.74,0,0,1,12.84,19.73Z" transform="translate(0 0)"/><path class="cls-159" d="M12.83,19.73a1.67,1.67,0,0,1-.68.07,1.67,1.67,0,0,1-.68-.07,1.67,1.67,0,0,1,.68-.07A1.67,1.67,0,0,1,12.83,19.73Z" transform="translate(0 0)"/><path class="cls-160" d="M12.83,19.73a1.71,1.71,0,0,1-.68.07,1.71,1.71,0,0,1-.68-.07,1.71,1.71,0,0,1,.68-.07A1.71,1.71,0,0,1,12.83,19.73Z" transform="translate(0 0)"/><path class="cls-161" d="M12.82,19.73a1.64,1.64,0,0,1-.67.07,1.64,1.64,0,0,1-.67-.07,1.64,1.64,0,0,1,.67-.07A1.64,1.64,0,0,1,12.82,19.73Z" transform="translate(0 0)"/><path class="cls-162" d="M12.82,19.73a1.64,1.64,0,0,1-.67.07,1.64,1.64,0,0,1-.67-.07,1.64,1.64,0,0,1,.67-.07A1.64,1.64,0,0,1,12.82,19.73Z" transform="translate(0 0)"/><path class="cls-163" d="M12.82,19.73a1.64,1.64,0,0,1-.67.07,1.64,1.64,0,0,1-.67-.07,1.64,1.64,0,0,1,.67-.07A1.64,1.64,0,0,1,12.82,19.73Z" transform="translate(0 0)"/><path class="cls-164" d="M12.81,19.73a1.57,1.57,0,0,1-.66.07,1.57,1.57,0,0,1-.66-.07,1.57,1.57,0,0,1,.66-.07A1.57,1.57,0,0,1,12.81,19.73Z" transform="translate(0 0)"/><path class="cls-165" d="M12.81,19.73a1.61,1.61,0,0,1-.66.07,1.61,1.61,0,0,1-.66-.07,1.61,1.61,0,0,1,.66-.07A1.61,1.61,0,0,1,12.81,19.73Z" transform="translate(0 0)"/><path class="cls-166" d="M12.8,19.73a1.54,1.54,0,0,1-.65.07,1.54,1.54,0,0,1-.65-.07,1.54,1.54,0,0,1,.65-.07A1.54,1.54,0,0,1,12.8,19.73Z" transform="translate(0 0)"/><path class="cls-167" d="M12.8,19.73a1.54,1.54,0,0,1-.65.07,1.54,1.54,0,0,1-.65-.07,1.54,1.54,0,0,1,.65-.07A1.54,1.54,0,0,1,12.8,19.73Z" transform="translate(0 0)"/><path class="cls-168" d="M12.79,19.73a1.47,1.47,0,0,1-.64.07,1.47,1.47,0,0,1-.64-.07,1.68,1.68,0,0,1,.64-.07A1.68,1.68,0,0,1,12.79,19.73Z" transform="translate(0 0)"/><path class="cls-169" d="M12.79,19.73a1.51,1.51,0,0,1-.64.07,1.51,1.51,0,0,1-.64-.07,1.86,1.86,0,0,1,.64-.06A1.86,1.86,0,0,1,12.79,19.73Z" transform="translate(0 0)"/><path class="cls-170" d="M12.79,19.73a1.51,1.51,0,0,1-.64.07,1.51,1.51,0,0,1-.64-.07,1.86,1.86,0,0,1,.64-.06A1.86,1.86,0,0,1,12.79,19.73Z" transform="translate(0 0)"/><path class="cls-171" d="M12.78,19.73a1.45,1.45,0,0,1-.63.07,1.45,1.45,0,0,1-.63-.07,1.78,1.78,0,0,1,.63-.06A1.78,1.78,0,0,1,12.78,19.73Z" transform="translate(0 0)"/><path class="cls-172" d="M12.78,19.73a1.45,1.45,0,0,1-.63.07,1.45,1.45,0,0,1-.63-.07,1.78,1.78,0,0,1,.63-.06A1.78,1.78,0,0,1,12.78,19.73Z" transform="translate(0 0)"/><path class="cls-173" d="M12.77,19.73a1.42,1.42,0,0,1-.62.07,1.42,1.42,0,0,1-.62-.07,1.74,1.74,0,0,1,.62-.06A1.74,1.74,0,0,1,12.77,19.73Z" transform="translate(0 0)"/><path class="cls-174" d="M12.77,19.73a1.42,1.42,0,0,1-.62.07,1.42,1.42,0,0,1-.62-.07,1.74,1.74,0,0,1,.62-.06A1.74,1.74,0,0,1,12.77,19.73Z" transform="translate(0 0)"/><path class="cls-175" d="M12.77,19.73a1.42,1.42,0,0,1-.62.07,1.42,1.42,0,0,1-.62-.07,1.74,1.74,0,0,1,.62-.06A1.74,1.74,0,0,1,12.77,19.73Z" transform="translate(0 0)"/><path class="cls-176" d="M12.76,19.73a1.36,1.36,0,0,1-.61.07,1.36,1.36,0,0,1-.61-.07,1.67,1.67,0,0,1,.61-.06A1.67,1.67,0,0,1,12.76,19.73Z" transform="translate(0 0)"/><path class="cls-177" d="M12.76,19.73a1.36,1.36,0,0,1-.61.07,1.36,1.36,0,0,1-.61-.07,1.67,1.67,0,0,1,.61-.06A1.67,1.67,0,0,1,12.76,19.73Z" transform="translate(0 0)"/><path class="cls-178" d="M12.75,19.73a1.33,1.33,0,0,1-.6.07,1.33,1.33,0,0,1-.6-.07,1.63,1.63,0,0,1,.6-.06A1.63,1.63,0,0,1,12.75,19.73Z" transform="translate(0 0)"/><path class="cls-179" d="M12.75,19.73a1.33,1.33,0,0,1-.6.07,1.33,1.33,0,0,1-.6-.07,1.63,1.63,0,0,1,.6-.06A1.63,1.63,0,0,1,12.75,19.73Z" transform="translate(0 0)"/><path class="cls-180" d="M12.74,19.73s-.26.06-.59.06-.59,0-.59-.06a1.56,1.56,0,0,1,.59-.06A1.56,1.56,0,0,1,12.74,19.73Z" transform="translate(0 0)"/><path class="cls-180" d="M12.74,19.73s-.26.06-.59.06-.59,0-.59-.06a1.56,1.56,0,0,1,.59-.06A1.56,1.56,0,0,1,12.74,19.73Z" transform="translate(0 0)"/><path class="cls-181" d="M12.74,19.73a1.39,1.39,0,0,1-.59.06,1.39,1.39,0,0,1-.59-.06,1.6,1.6,0,0,1,.59-.06A1.6,1.6,0,0,1,12.74,19.73Z" transform="translate(0 0)"/><path class="cls-182" d="M12.73,19.73a1.32,1.32,0,0,1-.58.06,1.32,1.32,0,0,1-.58-.06,1.53,1.53,0,0,1,.58-.06A1.53,1.53,0,0,1,12.73,19.73Z" transform="translate(0 0)"/><path class="cls-183" d="M12.73,19.73a1.32,1.32,0,0,1-.58.06,1.32,1.32,0,0,1-.58-.06,1.53,1.53,0,0,1,.58-.06A1.53,1.53,0,0,1,12.73,19.73Z" transform="translate(0 0)"/><path class="cls-184" d="M12.72,19.73s-.25.06-.57.06-.57,0-.57-.06a1.45,1.45,0,0,1,.57-.06A1.45,1.45,0,0,1,12.72,19.73Z" transform="translate(0 0)"/><path class="cls-185" d="M12.72,19.73s-.26.06-.57.06-.57,0-.57-.06a1.49,1.49,0,0,1,.57-.06A1.49,1.49,0,0,1,12.72,19.73Z" transform="translate(0 0)"/><path class="cls-186" d="M12.71,19.73s-.25.06-.56.06-.56,0-.56-.06a1.42,1.42,0,0,1,.56-.06A1.42,1.42,0,0,1,12.71,19.73Z" transform="translate(0 0)"/><path class="cls-187" d="M12.71,19.73a1.42,1.42,0,0,1-.56.06,1.42,1.42,0,0,1-.56-.06,1.42,1.42,0,0,1,.56-.06A1.42,1.42,0,0,1,12.71,19.73Z" transform="translate(0 0)"/><path class="cls-188" d="M12.71,19.73a1.42,1.42,0,0,1-.56.06,1.42,1.42,0,0,1-.56-.06,1.42,1.42,0,0,1,.56-.06A1.42,1.42,0,0,1,12.71,19.73Z" transform="translate(0 0)"/><path class="cls-189" d="M12.7,19.73a1.35,1.35,0,0,1-.55.06,1.35,1.35,0,0,1-.55-.06,1.35,1.35,0,0,1,.55-.06A1.35,1.35,0,0,1,12.7,19.73Z" transform="translate(0 0)"/><path class="cls-190" d="M12.7,19.73a1.39,1.39,0,0,1-.55.06,1.39,1.39,0,0,1-.55-.06,1.39,1.39,0,0,1,.55-.06A1.39,1.39,0,0,1,12.7,19.73Z" transform="translate(0 0)"/><path class="cls-191" d="M12.69,19.73a1.32,1.32,0,0,1-.54.06,1.32,1.32,0,0,1-.54-.06,1.43,1.43,0,0,1,.54-.05A1.43,1.43,0,0,1,12.69,19.73Z" transform="translate(0 0)"/><path class="cls-192" d="M12.69,19.73a1.32,1.32,0,0,1-.54.06,1.32,1.32,0,0,1-.54-.06,1.43,1.43,0,0,1,.54-.05A1.43,1.43,0,0,1,12.69,19.73Z" transform="translate(0 0)"/><path class="cls-193" d="M12.69,19.73a1.32,1.32,0,0,1-.54.06,1.32,1.32,0,0,1-.54-.06,1.43,1.43,0,0,1,.54-.05A1.43,1.43,0,0,1,12.69,19.73Z" transform="translate(0 0)"/><path class="cls-194" d="M12.68,19.73a1.29,1.29,0,0,1-.53.06,1.29,1.29,0,0,1-.53-.06,1.4,1.4,0,0,1,.53-.05A1.4,1.4,0,0,1,12.68,19.73Z" transform="translate(0 0)"/><path class="cls-195" d="M12.68,19.73a1.29,1.29,0,0,1-.53.06,1.29,1.29,0,0,1-.53-.06,1.4,1.4,0,0,1,.53-.05A1.4,1.4,0,0,1,12.68,19.73Z" transform="translate(0 0)"/><path class="cls-196" d="M12.67,19.73a1.22,1.22,0,0,1-.52.06,1.22,1.22,0,0,1-.52-.06,1.33,1.33,0,0,1,.52-.05A1.33,1.33,0,0,1,12.67,19.73Z" transform="translate(0 0)"/><path class="cls-197" d="M12.67,19.73a1.22,1.22,0,0,1-.52.06,1.22,1.22,0,0,1-.52-.06,1.33,1.33,0,0,1,.52-.05A1.33,1.33,0,0,1,12.67,19.73Z" transform="translate(0 0)"/><path class="cls-198" d="M12.66,19.73a1.2,1.2,0,0,1-.51.06,1.2,1.2,0,0,1-.51-.06,1.3,1.3,0,0,1,.51-.05A1.3,1.3,0,0,1,12.66,19.73Z" transform="translate(0 0)"/><path class="cls-199" d="M12.66,19.73a1.2,1.2,0,0,1-.51.06,1.2,1.2,0,0,1-.51-.06,1.3,1.3,0,0,1,.51-.05A1.3,1.3,0,0,1,12.66,19.73Z" transform="translate(0 0)"/><path class="cls-200" d="M12.66,19.73a1.2,1.2,0,0,1-.51.06,1.2,1.2,0,0,1-.51-.06,1.3,1.3,0,0,1,.51-.05A1.3,1.3,0,0,1,12.66,19.73Z" transform="translate(0 0)"/><path class="cls-201" d="M12.65,19.73a1.13,1.13,0,0,1-.5.06,1.13,1.13,0,0,1-.5-.06,1.23,1.23,0,0,1,.5-.05A1.23,1.23,0,0,1,12.65,19.73Z" transform="translate(0 0)"/><path class="cls-202" d="M12.65,19.73a1.23,1.23,0,0,1-.5.05,1.23,1.23,0,0,1-.5-.05,1.23,1.23,0,0,1,.5-.05A1.23,1.23,0,0,1,12.65,19.73Z" transform="translate(0 0)"/><path class="cls-203" d="M12.64,19.73a1.2,1.2,0,0,1-.49.05,1.2,1.2,0,0,1-.49-.05,1.2,1.2,0,0,1,.49-.05A1.2,1.2,0,0,1,12.64,19.73Z" transform="translate(0 0)"/><path class="cls-204" d="M12.64,19.73a1.2,1.2,0,0,1-.49.05,1.2,1.2,0,0,1-.49-.05,1.2,1.2,0,0,1,.49-.05A1.2,1.2,0,0,1,12.64,19.73Z" transform="translate(0 0)"/><path class="cls-205" d="M12.64,19.73a1.2,1.2,0,0,1-.49.05,1.2,1.2,0,0,1-.49-.05,1.2,1.2,0,0,1,.49-.05A1.2,1.2,0,0,1,12.64,19.73Z" transform="translate(0 0)"/><path class="cls-206" d="M12.63,19.73a1.13,1.13,0,0,1-.48.05,1.13,1.13,0,0,1-.48-.05,1.13,1.13,0,0,1,.48-.05A1.13,1.13,0,0,1,12.63,19.73Z" transform="translate(0 0)"/><path class="cls-207" d="M12.63,19.73a1.17,1.17,0,0,1-.48.05,1.17,1.17,0,0,1-.48-.05,1.17,1.17,0,0,1,.48-.05A1.17,1.17,0,0,1,12.63,19.73Z" transform="translate(0 0)"/><path class="cls-208" d="M12.62,19.73a1.1,1.1,0,0,1-.47.05,1.1,1.1,0,0,1-.47-.05,1.1,1.1,0,0,1,.47-.05A1.1,1.1,0,0,1,12.62,19.73Z" transform="translate(0 0)"/><path class="cls-209" d="M12.62,19.73a1.1,1.1,0,0,1-.47.05,1.1,1.1,0,0,1-.47-.05,1.32,1.32,0,0,1,.47-.05A1.32,1.32,0,0,1,12.62,19.73Z" transform="translate(0 0)"/><path class="cls-210" d="M12.61,19.73a1,1,0,0,1-.46.05,1,1,0,0,1-.46-.05,1.24,1.24,0,0,1,.46-.05A1.24,1.24,0,0,1,12.61,19.73Z" transform="translate(0 0)"/><path class="cls-210" d="M12.61,19.73a1.07,1.07,0,0,1-.46.05,1.07,1.07,0,0,1-.46-.05,1.29,1.29,0,0,1,.46-.05A1.29,1.29,0,0,1,12.61,19.73Z" transform="translate(0 0)"/><path class="cls-211" d="M12.61,19.73a1.07,1.07,0,0,1-.46.05,1.07,1.07,0,0,1-.46-.05,1.29,1.29,0,0,1,.46-.05A1.29,1.29,0,0,1,12.61,19.73Z" transform="translate(0 0)"/><path class="cls-212" d="M12.6,19.73a1,1,0,0,1-.45.05,1,1,0,0,1-.45-.05,1.21,1.21,0,0,1,.45-.05A1.21,1.21,0,0,1,12.6,19.73Z" transform="translate(0 0)"/><path class="cls-213" d="M12.6,19.73a1,1,0,0,1-.45.05,1,1,0,0,1-.45-.05,1.36,1.36,0,0,1,.45,0A1.36,1.36,0,0,1,12.6,19.73Z" transform="translate(0 0)"/><path class="cls-214" d="M12.59,19.73s-.19.05-.44.05-.44,0-.44-.05a1.27,1.27,0,0,1,.44,0A1.27,1.27,0,0,1,12.59,19.73Z" transform="translate(0 0)"/><path class="cls-215" d="M12.59,19.73a1,1,0,0,1-.44.05,1,1,0,0,1-.44-.05,1.32,1.32,0,0,1,.44,0A1.32,1.32,0,0,1,12.59,19.73Z" transform="translate(0 0)"/><path class="cls-216" d="M12.59,19.73a1,1,0,0,1-.44.05,1,1,0,0,1-.44-.05,1.32,1.32,0,0,1,.44,0A1.32,1.32,0,0,1,12.59,19.73Z" transform="translate(0 0)"/><path class="cls-217" d="M12.58,19.73s-.19.05-.43.05-.43,0-.43-.05a1.24,1.24,0,0,1,.43,0A1.24,1.24,0,0,1,12.58,19.73Z" transform="translate(0 0)"/><path class="cls-218" d="M12.58,19.73s-.19.05-.43.05-.43,0-.43-.05a1.24,1.24,0,0,1,.43,0A1.24,1.24,0,0,1,12.58,19.73Z" transform="translate(0 0)"/><path class="cls-219" d="M12.57,19.73s-.19.05-.42.05-.42,0-.42-.05a1.2,1.2,0,0,1,.42,0A1.2,1.2,0,0,1,12.57,19.73Z" transform="translate(0 0)"/><path class="cls-220" d="M12.57,19.73s-.19.05-.42.05-.42,0-.42-.05a1.2,1.2,0,0,1,.42,0A1.2,1.2,0,0,1,12.57,19.73Z" transform="translate(0 0)"/><path class="cls-221" d="M12.56,19.73s-.18.05-.41.05-.41,0-.41-.05a1.12,1.12,0,0,1,.41,0A1.12,1.12,0,0,1,12.56,19.73Z" transform="translate(0 0)"/><path class="cls-222" d="M12.56,19.73s-.18.05-.41.05-.41,0-.41-.05a1.12,1.12,0,0,1,.41,0A1.12,1.12,0,0,1,12.56,19.73Z" transform="translate(0 0)"/><path class="cls-223" d="M12.56,19.73s-.19,0-.41,0-.41,0-.41,0a1.17,1.17,0,0,1,.41,0A1.17,1.17,0,0,1,12.56,19.73Z" transform="translate(0 0)"/><path class="cls-224" d="M12.55,19.73s-.18,0-.4,0-.4,0-.4,0a1.09,1.09,0,0,1,.4,0A1.09,1.09,0,0,1,12.55,19.73Z" transform="translate(0 0)"/><path class="cls-225" d="M12.55,19.73s-.18,0-.4,0-.4,0-.4,0a1.09,1.09,0,0,1,.4,0A1.09,1.09,0,0,1,12.55,19.73Z" transform="translate(0 0)"/><path class="cls-226" d="M12.54,19.73s-.17,0-.39,0-.39,0-.39,0a1,1,0,0,1,.39,0A1,1,0,0,1,12.54,19.73Z" transform="translate(0 0)"/><path class="cls-227" d="M12.54,19.73a1.06,1.06,0,0,1-.39,0,1.06,1.06,0,0,1-.39,0,1.06,1.06,0,0,1,.39,0A1.06,1.06,0,0,1,12.54,19.73Z" transform="translate(0 0)"/><path class="cls-228" d="M12.54,19.73a1.06,1.06,0,0,1-.39,0,1.06,1.06,0,0,1-.39,0,1.06,1.06,0,0,1,.39,0A1.06,1.06,0,0,1,12.54,19.73Z" transform="translate(0 0)"/><path class="cls-229" d="M12.53,19.73a1,1,0,0,1-.38,0,1,1,0,0,1-.38,0,1,1,0,0,1,.38,0A1,1,0,0,1,12.53,19.73Z" transform="translate(0 0)"/><ellipse class="cls-230" cx="12.15" cy="19.73" rx="0.38" ry="0.04"/><path class="cls-231" d="M12.52,19.73a.91.91,0,0,1-.37,0,.91.91,0,0,1-.37,0,.91.91,0,0,1,.37,0A.91.91,0,0,1,12.52,19.73Z" transform="translate(0 0)"/><path class="cls-232" d="M12.52,19.73a1,1,0,0,1-.37,0,1,1,0,0,1-.37,0,1,1,0,0,1,.37,0A1,1,0,0,1,12.52,19.73Z" transform="translate(0 0)"/><path class="cls-233" d="M12.51,19.73a.88.88,0,0,1-.36,0,.88.88,0,0,1-.36,0,.88.88,0,0,1,.36,0A.88.88,0,0,1,12.51,19.73Z" transform="translate(0 0)"/><path class="cls-234" d="M12.51,19.73a.88.88,0,0,1-.36,0,.88.88,0,0,1-.36,0,.88.88,0,0,1,.36,0A.88.88,0,0,1,12.51,19.73Z" transform="translate(0 0)"/><path class="cls-235" d="M12.51,19.73a.88.88,0,0,1-.36,0,.88.88,0,0,1-.36,0,1,1,0,0,1,.36,0A1,1,0,0,1,12.51,19.73Z" transform="translate(0 0)"/><path class="cls-236" d="M12.5,19.73a.85.85,0,0,1-.35,0,.85.85,0,0,1-.35,0,1,1,0,0,1,.35,0A1,1,0,0,1,12.5,19.73Z" transform="translate(0 0)"/><path class="cls-237" d="M12.5,19.73a.85.85,0,0,1-.35,0,.85.85,0,0,1-.35,0,1,1,0,0,1,.35,0A1,1,0,0,1,12.5,19.73Z" transform="translate(0 0)"/><path class="cls-238" d="M12.49,19.73a.78.78,0,0,1-.34,0,.78.78,0,0,1-.34,0,.89.89,0,0,1,.34,0A.89.89,0,0,1,12.49,19.73Z" transform="translate(0 0)"/><path class="cls-238" d="M12.49,19.73a.78.78,0,0,1-.34,0,.78.78,0,0,1-.34,0,.89.89,0,0,1,.34,0A.89.89,0,0,1,12.49,19.73Z" transform="translate(0 0)"/><path class="cls-239" d="M12.48,19.73a.76.76,0,0,1-.33,0,.76.76,0,0,1-.33,0,.86.86,0,0,1,.33,0A.86.86,0,0,1,12.48,19.73Z" transform="translate(0 0)"/><path class="cls-240" d="M12.48,19.73a.76.76,0,0,1-.33,0,.76.76,0,0,1-.33,0,.86.86,0,0,1,.33,0A.86.86,0,0,1,12.48,19.73Z" transform="translate(0 0)"/><path class="cls-241" d="M12.48,19.73a.76.76,0,0,1-.33,0,.76.76,0,0,1-.33,0,.86.86,0,0,1,.33,0A.86.86,0,0,1,12.48,19.73Z" transform="translate(0 0)"/><path class="cls-242" d="M12.47,19.73a.7.7,0,0,1-.32,0,.7.7,0,0,1-.32,0,.79.79,0,0,1,.32,0A.79.79,0,0,1,12.47,19.73Z" transform="translate(0 0)"/><path class="cls-243" d="M12.47,19.73a.7.7,0,0,1-.32,0,.7.7,0,0,1-.32,0,.79.79,0,0,1,.32,0A.79.79,0,0,1,12.47,19.73Z" transform="translate(0 0)"/><ellipse class="cls-244" cx="12.15" cy="19.73" rx="0.31" ry="0.03"/><path class="cls-245" d="M12.46,19.73a.76.76,0,0,1-.31,0,.76.76,0,0,1-.31,0,.76.76,0,0,1,.31,0A.76.76,0,0,1,12.46,19.73Z" transform="translate(0 0)"/><path class="cls-246" d="M12.46,19.73a.76.76,0,0,1-.31,0,.76.76,0,0,1-.31,0,.76.76,0,0,1,.31,0A.76.76,0,0,1,12.46,19.73Z" transform="translate(0 0)"/><path class="cls-247" d="M12.45,19.73s-.13,0-.3,0-.3,0-.3,0,.13,0,.3,0S12.45,19.71,12.45,19.73Z" transform="translate(0 0)"/><path class="cls-248" d="M12.45,19.73a.73.73,0,0,1-.3,0,.73.73,0,0,1-.3,0,1.52,1.52,0,0,1,.6,0Z" transform="translate(0 0)"/><path class="cls-249" d="M12.44,19.73a.66.66,0,0,1-.29,0,.66.66,0,0,1-.29,0,1.42,1.42,0,0,1,.58,0Z" transform="translate(0 0)"/><path class="cls-250" d="M12.44,19.73a.66.66,0,0,1-.29,0,.66.66,0,0,1-.29,0,1.42,1.42,0,0,1,.58,0Z" transform="translate(0 0)"/><path class="cls-251" d="M12.43,19.73s-.12,0-.28,0-.28,0-.28,0a1.32,1.32,0,0,1,.56,0Z" transform="translate(0 0)"/><path class="cls-252" d="M12.43,19.73s-.13,0-.28,0-.28,0-.28,0a1.32,1.32,0,0,1,.56,0Z" transform="translate(0 0)"/><path class="cls-253" d="M12.43,19.73s-.13,0-.28,0-.28,0-.28,0a1.32,1.32,0,0,1,.56,0Z" transform="translate(0 0)"/><path class="cls-254" d="M12.42,19.73s-.12,0-.27,0-.27,0-.27,0a1.23,1.23,0,0,1,.54,0Z" transform="translate(0 0)"/><path class="cls-255" d="M12.42,19.73s-.12,0-.27,0-.27,0-.27,0a1.23,1.23,0,0,1,.54,0Z" transform="translate(0 0)"/><path class="cls-256" d="M12.41,19.73s-.11,0-.26,0-.26,0-.26,0a1.14,1.14,0,0,1,.52,0Z" transform="translate(0 0)"/><path class="cls-257" d="M12.41,19.73s-.12,0-.26,0-.26,0-.26,0a1.7,1.7,0,0,1,.52,0Z" transform="translate(0 0)"/><path class="cls-258" d="M12.41,19.73s-.12,0-.26,0-.26,0-.26,0a1.7,1.7,0,0,1,.52,0Z" transform="translate(0 0)"/><ellipse class="cls-259" cx="12.15" cy="19.73" rx="0.25" ry="0.03"/><path class="cls-260" d="M12.4,19.73s-.11,0-.25,0-.25,0-.25,0a1.57,1.57,0,0,1,.5,0Z" transform="translate(0 0)"/><path class="cls-261" d="M12.39,19.73s-.11,0-.24,0-.24,0-.24,0a1.45,1.45,0,0,1,.48,0Z" transform="translate(0 0)"/><path class="cls-262" d="M12.39,19.73s-.11,0-.24,0-.24,0-.24,0a1.45,1.45,0,0,1,.48,0Z" transform="translate(0 0)"/><path class="cls-263" d="M12.38,19.73s-.1,0-.23,0-.23,0-.23,0a1.33,1.33,0,0,1,.46,0Z" transform="translate(0 0)"/><path class="cls-264" d="M12.38,19.73s-.1,0-.23,0-.23,0-.23,0a1.33,1.33,0,0,1,.46,0Z" transform="translate(0 0)"/><path class="cls-265" d="M12.38,19.73s-.11,0-.23,0-.23,0-.23,0a1.33,1.33,0,0,1,.46,0Z" transform="translate(0 0)"/><path class="cls-266" d="M12.37,19.73s-.1,0-.22,0-.22,0-.22,0a1.22,1.22,0,0,1,.44,0Z" transform="translate(0 0)"/><path class="cls-267" d="M12.37,19.73s-.1,0-.22,0-.22,0-.22,0a1.22,1.22,0,0,1,.44,0Z" transform="translate(0 0)"/><path class="cls-268" d="M12.36,19.73a1.11,1.11,0,0,1-.42,0,1.11,1.11,0,0,1,.42,0Z" transform="translate(0 0)"/><path class="cls-269" d="M12.36,19.73a1.11,1.11,0,0,1-.42,0,1.11,1.11,0,0,1,.42,0Z" transform="translate(0 0)"/><path class="cls-270" d="M12.36,19.73a1.11,1.11,0,0,1-.42,0,1.11,1.11,0,0,1,.42,0Z" transform="translate(0 0)"/><path class="cls-271" d="M12.35,19.73a1,1,0,0,1-.4,0,1,1,0,0,1,.4,0Z" transform="translate(0 0)"/><path class="cls-272" d="M12.35,19.73a1,1,0,0,1-.4,0,1,1,0,0,1,.4,0Z" transform="translate(0 0)"/><path class="cls-273" d="M12.34,19.73a.91.91,0,0,1-.38,0,.91.91,0,0,1,.38,0Z" transform="translate(0 0)"/><ellipse class="cls-274" cx="12.15" cy="19.73" rx="0.19" ry="0.02"/><path class="cls-275" d="M12.33,19.73a.82.82,0,0,1-.36,0,.82.82,0,0,1,.36,0Z" transform="translate(0 0)"/><path class="cls-276" d="M12.33,19.73a.82.82,0,0,1-.36,0,.82.82,0,0,1,.36,0Z" transform="translate(0 0)"/><path class="cls-277" d="M12.33,19.73a.82.82,0,0,1-.36,0,.82.82,0,0,1,.36,0Z" transform="translate(0 0)"/><path class="cls-278" d="M12.32,19.73a.73.73,0,0,1-.34,0,.73.73,0,0,1,.34,0Z" transform="translate(0 0)"/><path class="cls-279" d="M12.32,19.73a.73.73,0,0,1-.34,0,.73.73,0,0,1,.34,0Z" transform="translate(0 0)"/><path class="cls-280" d="M12.31,19.73a.65.65,0,0,1-.32,0,1.28,1.28,0,0,1,.32,0Z" transform="translate(0 0)"/><path class="cls-281" d="M12.31,19.73a.65.65,0,0,1-.32,0,1.28,1.28,0,0,1,.32,0Z" transform="translate(0 0)"/><path class="cls-282" d="M12.3,19.73s-.06,0-.15,0-.15,0-.15,0,.06,0,.15,0S12.3,19.72,12.3,19.73Z" transform="translate(0 0)"/><path class="cls-283" d="M12.3,19.73a.57.57,0,0,1-.3,0,1.13,1.13,0,0,1,.3,0Z" transform="translate(0 0)"/><path class="cls-284" d="M12.3,19.73a.57.57,0,0,1-.3,0,1.13,1.13,0,0,1,.3,0Z" transform="translate(0 0)"/><path class="cls-285" d="M12.29,19.73s-.06,0-.14,0-.14,0-.14,0,.06,0,.14,0S12.29,19.72,12.29,19.73Z" transform="translate(0 0)"/><path class="cls-286" d="M12.29,19.73s-.06,0-.14,0-.14,0-.14,0,.06,0,.14,0S12.29,19.72,12.29,19.73Z" transform="translate(0 0)"/><path class="cls-287" d="M12.28,19.73s-.06,0-.13,0-.13,0-.13,0,.06,0,.13,0S12.28,19.72,12.28,19.73Z" transform="translate(0 0)"/><path class="cls-288" d="M12.28,19.73s-.06,0-.13,0-.13,0-.13,0,.06,0,.13,0S12.28,19.72,12.28,19.73Z" transform="translate(0 0)"/><ellipse class="cls-289" cx="12.15" cy="19.73" rx="0.13" ry="0.01"/><path class="cls-290" d="M12.27,19.73s0,0-.12,0-.12,0-.12,0h.24Z" transform="translate(0 0)"/><path class="cls-291" d="M12.27,19.73h0Z" transform="translate(0 0)"/><path class="cls-292" d="M12.26,19.73h0Z" transform="translate(0 0)"/><path class="cls-293" d="M12.26,19.73h0Z" transform="translate(0 0)"/><path class="cls-294" d="M12.25,19.73h0Z" transform="translate(0 0)"/><path class="cls-295" d="M12.25,19.73h0Z" transform="translate(0 0)"/><path class="cls-296" d="M12.25,19.73h0Z" transform="translate(0 0)"/><path class="cls-297" d="M12.24,19.73h0Z" transform="translate(0 0)"/><path class="cls-298" d="M12.24,19.73h0Z" transform="translate(0 0)"/><path class="cls-299" d="M12.23,19.73h0Z" transform="translate(0 0)"/><path class="cls-300" d="M12.23,19.73h0Z" transform="translate(0 0)"/><path class="cls-301" d="M12.23,19.73h0Z" transform="translate(0 0)"/><path class="cls-302" d="M12.22,19.73h0Z" transform="translate(0 0)"/><path class="cls-303" d="M12.22,19.73h0Z" transform="translate(0 0)"/><ellipse class="cls-304" cx="12.15" cy="19.73" rx="0.06" ry="0.01"/><path class="cls-305" d="M12.21,19.73h0Z" transform="translate(0 0)"/><path class="cls-306" d="M12.2,19.73h0Z" transform="translate(0 0)"/><path class="cls-307" d="M12.2,19.73h0Z" transform="translate(0 0)"/><path class="cls-308" d="M12.2,19.73h0Z" transform="translate(0 0)"/><path class="cls-309" d="M12.19,19.73h0Z" transform="translate(0 0)"/><path class="cls-310" d="M12.19,19.73h0Z" transform="translate(0 0)"/><path class="cls-311" d="M12.18,19.73h0Z" transform="translate(0 0)"/><path class="cls-312" d="M12.18,19.73h0Z" transform="translate(0 0)"/><path class="cls-313" d="M12.18,19.73h0Z" transform="translate(0 0)"/><path class="cls-314" d="M12.17,19.73h0Z" transform="translate(0 0)"/><path class="cls-315" d="M12.17,19.73h0Z" transform="translate(0 0)"/><path class="cls-316" d="M12.16,19.73h0Z" transform="translate(0 0)"/><path class="cls-317" d="M12.16,19.73h0Z" transform="translate(0 0)"/><polygon class="cls-318" points="12.15 19.73 12.15 19.73 12.15 19.73 12.15 19.73 12.15 19.73"/></g></g><path class="cls-319" d="M19,9.42a6.83,6.83,0,0,0-13.66.07v.08c0,5.32,6.83,10.16,6.83,10.16S19,14.89,19,9.57Zm-6.83,4.1A4.23,4.23,0,0,1,8,10.27a4.46,4.46,0,0,1-.11-1,4.22,4.22,0,0,1,8.44,0,4.17,4.17,0,0,1-.1.94A4.23,4.23,0,0,1,12.15,13.52Z" transform="translate(0 0)"/><path class="cls-6" d="M7.53,9.39a4.65,4.65,0,1,0,4.65-4.65A4.65,4.65,0,0,0,7.53,9.39Zm8.7,0a4.05,4.05,0,1,1-4.05-4.05A4,4,0,0,1,16.23,9.39Z" transform="translate(0 0)"/><path class="cls-6" d="M6.94,9.39a5.24,5.24,0,1,0,5.24-5.24A5.25,5.25,0,0,0,6.94,9.39Zm10.26,0a5,5,0,1,1-5-5A5,5,0,0,1,17.2,9.39Z" transform="translate(0 0)"/><circle class="cls-320" cx="12.15" cy="9.28" r="3.9" transform="translate(0.86 19.59) rotate(-79.76)"/><circle class="cls-3" cx="12.15" cy="9.29" r="3.91" transform="translate(-0.26 18.23) rotate(-73.16)"/><path class="cls-6" d="M8.9,7.88h.61a2,2,0,0,1,.71.09.66.66,0,0,1,.34.3.93.93,0,0,1,0,1,.82.82,0,0,1-.44.29,2.57,2.57,0,0,1-.6,0v1.27H8.9Zm.58,1.18h.18A1.05,1.05,0,0,0,10,9a.32.32,0,0,0,.13-.1.35.35,0,0,0,.05-.18A.27.27,0,0,0,10,8.5a.75.75,0,0,0-.36-.06H9.48Z" transform="translate(0 0)"/><path class="cls-6" d="M12.31,7.81a1.49,1.49,0,0,1,1.1.46,1.56,1.56,0,0,1,.46,1.12,1.52,1.52,0,0,1-.46,1.12,1.58,1.58,0,0,1-2.22,0,1.58,1.58,0,0,1-.45-1.12A1.56,1.56,0,0,1,11.52,8,1.58,1.58,0,0,1,12.31,7.81Zm0,.56a.93.93,0,0,0-.7.29,1,1,0,0,0-.28.73,1,1,0,0,0,.36.79.91.91,0,0,0,.63.23,1,1,0,0,0,.7-.29,1.09,1.09,0,0,0,0-1.46A1,1,0,0,0,12.3,8.37Z" transform="translate(0 0)"/><path class="cls-6" d="M13.8,7.88h1.66v.57h-.55v2.44h-.58V8.45H13.8Z" transform="translate(0 0)"/></g></g></svg>