<svg xmlns="http://www.w3.org/2000/svg" viewBox="0 0 25 25"><defs><style>.cls-1{fill:#034b86;}.cls-2{fill:#032040;}.cls-3,.cls-4{fill:#fff;}.cls-3{opacity:0.64;}</style></defs><g id="Capa_3" data-name="Capa 3"><circle class="cls-1" cx="12.74" cy="12.65" r="11.65"/></g><g id="Capa_1" data-name="Capa 1"><path class="cls-2" d="M12.71,24.65A12.15,12.15,0,1,1,24.85,12.5,12.16,12.16,0,0,1,12.71,24.65Zm0-23.3A11.15,11.15,0,1,0,23.85,12.5,11.16,11.16,0,0,0,12.71,1.35Z"/><path class="cls-3" d="M8.06,17.49v3.33h8.88V15.27H8.06Zm1.11-1.11h6.66v1.11H9.17Zm0,2.22h6.66v1.11H9.17Z"/><polygon class="cls-3" points="16.94 7.51 16.94 4.18 8.06 4.18 8.06 7.51 8.06 9.73 16.94 9.73 16.94 7.51"/><path class="cls-4" d="M19.15,7.51H18v3.33H7V7.51H5.85A2.39,2.39,0,0,0,3.63,9.73v5.54a2.39,2.39,0,0,0,2.22,2.22H7V14.16H18v3.33h1.11a2.39,2.39,0,0,0,2.22-2.22V9.73A2.39,2.39,0,0,0,19.15,7.51Z"/></g></svg>