<svg id="Capa_1" data-name="Capa 1" xmlns="http://www.w3.org/2000/svg" viewBox="0 0 24.25 24.3"><g id="Capa_3" data-name="Capa 3"><circle cx="12.1" cy="12.3" r="11.7" style="fill:#032040"/></g><g id="Capa_1-2" data-name="Capa 1-2"><path d="M12.1,24.3A12.15,12.15,0,1,1,24.2,12.1v.1h0A12,12,0,0,1,12.3,24.3ZM12.1,1A11.15,11.15,0,1,0,23.2,12.2h0A11,11,0,0,0,12.4,1Z" transform="translate(0.05 0)" style="fill:#034b86"/></g><path d="M13.8,3.6Z" transform="translate(0.05 0)" style="fill:#c33"/><path d="M13.8,3.6" transform="translate(0.05 0)" style="fill:#c33"/><path d="M13.9,3.6" transform="translate(0.05 0)" style="fill:#c33"/><path d="M1.14,12A.82.82,0,0,1,2,11.45c.77,0,1.54,0,2.31,0,.18,0,.25-.05.27-.24A7.48,7.48,0,0,1,6.44,7.06a7.3,7.3,0,0,1,4.7-2.51c.19,0,.26-.08.26-.3,0-.82,0-1.63,0-2.45a.69.69,0,1,1,1.37,0c0,.83,0,1.65,0,2.48,0,.19.05.25.23.27a7.25,7.25,0,0,1,4,1.83,7.57,7.57,0,0,1,2.53,4.85c0,.18.07.24.26.24.82,0,1.63,0,2.44,0a.69.69,0,1,1,0,1.38H19.8c-.17,0-.22.05-.24.22a7.55,7.55,0,0,1-2.34,4.69,7.2,7.2,0,0,1-4.21,2c-.2,0-.26.09-.26.3,0,.78,0,1.55,0,2.33a.85.85,0,0,1-.52.89h-.34a.68.68,0,0,1-.57-.74c0-.79,0-1.58,0-2.37,0-.31,0-.31-.29-.35A7.54,7.54,0,0,1,5.47,16a7.57,7.57,0,0,1-.93-2.77c0-.27,0-.28-.32-.28H1.91a.85.85,0,0,1-.55-.18.67.67,0,0,1-.22-.41Z" transform="translate(0.05 0)" style="fill:#fff"/><path d="M11.38,15.33A3.17,3.17,0,0,1,9,12.86c.67-.06,1-.27,1-.71s-.27-.64-1-.71A3.27,3.27,0,0,1,11.26,9c.11,0,.14,0,.14.1a1,1,0,0,0,0,.3.68.68,0,0,0,.72.55.69.69,0,0,0,.63-.67V9a3.16,3.16,0,0,1,2.46,2.48.85.85,0,0,0-.8.24.66.66,0,0,0-.16.46c0,.44.28.65.94.7a3.17,3.17,0,0,1-2.43,2.48c-.06-.7-.26-1-.69-1S11.44,14.64,11.38,15.33Z" transform="translate(0.05 0)" style="fill:#032040"/><path d="M12.76,5.91a6.21,6.21,0,0,1,5.36,4.94c0,.14,0,.29.07.43s0,.18-.16.18c-.41,0-.83,0-1.24,0-.12,0-.17,0-.2-.16A4.58,4.58,0,0,0,12.9,7.56c-.08,0-.14,0-.14-.14Z" transform="translate(0.05 0)" style="fill:#032040"/><path d="M5.94,11.46A6.25,6.25,0,0,1,10.82,6c.15,0,.31,0,.46-.08s.11,0,.11.11c0,.46,0,.93,0,1.39,0,.14-.08.12-.16.14A4.6,4.6,0,0,0,7.78,10.5a4.07,4.07,0,0,0-.22.83c0,.11-.06.13-.15.13C6.93,11.45,6.44,11.46,5.94,11.46Z" transform="translate(0.05 0)" style="fill:#032040"/><path d="M5.93,12.85H7.45c.12,0,.1.09.11.15a4.66,4.66,0,0,0,1.75,2.88,4.42,4.42,0,0,0,1.95.87c.11,0,.14.06.14.16q0,.68,0,1.35c0,.14-.05.13-.16.12a6.23,6.23,0,0,1-5.18-4.82C6,13.32,6,13.09,5.93,12.85Z" transform="translate(0.05 0)" style="fill:#032040"/><path d="M18.21,12.84a6.22,6.22,0,0,1-4.86,5.45c-.15,0-.31,0-.46.09s-.13,0-.13-.13V16.9c0-.11,0-.13.14-.16A4.58,4.58,0,0,0,16.59,13c0-.08,0-.15.13-.15Z" transform="translate(0.05 0)" style="fill:#032040"/></svg>