<svg xmlns="http://www.w3.org/2000/svg" viewBox="0 0 25 25"><defs><style>.cls-1{fill:#ededed;}.cls-2{fill:#034b86;}.cls-3{fill:#036db2;}.cls-4{fill:#032040;}</style></defs><g id="Capa_1" data-name="Capa 1"><circle class="cls-1" cx="12.85" cy="12.65" r="11.65"/><path class="cls-2" d="M13.74,20.52c-6.54,0-11.84-4.91-11.84-11A8.62,8.62,0,0,1,2,8.41,10.27,10.27,0,0,0,.71,13.32c0,6.06,5.3,11,11.83,11,6.13,0,11.17-4.31,11.78-9.84A11.94,11.94,0,0,1,13.74,20.52Z"/><path class="cls-3" d="M13.74,20.52a11.94,11.94,0,0,0,10.58-6.07c0-.29,0-.58.05-.88a12.13,12.13,0,0,1-9.55,4.52C8.28,18.09,3,13.17,3,7.11,3,7,3,6.94,3,6.85A10,10,0,0,0,2,8.41,8.62,8.62,0,0,0,1.9,9.55C1.9,15.61,7.2,20.52,13.74,20.52Z"/><path class="cls-4" d="M12.71,24.65A12.15,12.15,0,1,1,24.85,12.5,12.16,12.16,0,0,1,12.71,24.65Zm0-23.3A11.15,11.15,0,1,0,23.85,12.5,11.16,11.16,0,0,0,12.71,1.35Z"/></g></svg>