<svg xmlns="http://www.w3.org/2000/svg" viewBox="0 0 25 25"><defs><style>.cls-1{fill:#032040;}.cls-2{fill:#036db2;}</style></defs><g id="Capa_1" data-name="Capa 1"><path class="cls-1" d="M12.71,24.65A12.15,12.15,0,1,1,24.85,12.5,12.16,12.16,0,0,1,12.71,24.65Zm0-23.3A11.15,11.15,0,1,0,23.85,12.5,11.16,11.16,0,0,0,12.71,1.35Z"/><path class="cls-2" d="M15.51,16.76,21.29,11a.79.79,0,0,0,0-1.12l-2.05-2a.79.79,0,0,0-1.12,0L12.89,13a.81.81,0,0,1-1.12,0L6.71,8A.79.79,0,0,0,5.59,8L3.71,9.85a.79.79,0,0,0,0,1.12l5.62,5.62,2.61,2.62a.81.81,0,0,0,1.12,0Z"/></g></svg>