<svg id="Capa_1" data-name="Capa 1" xmlns="http://www.w3.org/2000/svg" viewBox="0 0 24.25 24.3"><defs><style>.cls-1{fill:#032040;}.cls-2{fill:#034b86;}.cls-3{fill:#c33;}.cls-4{fill:#fff;}</style></defs><g id="Capa_3" data-name="Capa 3"><circle class="cls-1" cx="12.1" cy="12.3" r="11.7"/></g><g id="Capa_1-2" data-name="Capa 1-2"><path class="cls-2" d="M12.1,24.3A12.15,12.15,0,1,1,24.2,12.1v.1h0A12,12,0,0,1,12.3,24.3ZM12.1,1A11.15,11.15,0,1,0,23.2,12.2h0A11,11,0,0,0,12.4,1Z" transform="translate(0.05 0)"/></g><path class="cls-3" d="M13.8,3.6Z" transform="translate(0.05 0)"/><path class="cls-3" d="M13.8,3.6" transform="translate(0.05 0)"/><path class="cls-3" d="M13.9,3.6" transform="translate(0.05 0)"/><path class="cls-1" d="M12.15,5.22l2.53,6.71H13.9c-.1,0-.1-.08-.12-.14a1.76,1.76,0,0,0-2.24-1.09A1.69,1.69,0,0,0,11,11a1.56,1.56,0,0,0-.52.77c0,.08,0,.15-.17.15H9.57Z" transform="translate(0.05 0)"/><path class="cls-4" d="M12.16,5.27a.17.17,0,0,0,0,.05l5.84,13a.27.27,0,0,1,0,.23.29.29,0,0,1,0,.08l-4.54-4A2,2,0,0,0,12.13,14a2,2,0,0,0-1.31.51l-4.56,4a.16.16,0,0,1,0-.07.29.29,0,0,1,0-.24l5.9-12.92,0-.05m0-1a1,1,0,0,0-.94.64L5.32,17.83a1.2,1.2,0,0,0,.94,1.74,1,1,0,0,0,.65-.26l4.57-4a.94.94,0,0,1,1.3,0l4.56,4.06a1,1,0,0,0,.65.26,1.2,1.2,0,0,0,.94-1.74L13.09,4.91a1,1,0,0,0-.93-.65Z" transform="translate(0.05 0)"/></svg>