<svg id="Capa_1" data-name="Capa 1" xmlns="http://www.w3.org/2000/svg" viewBox="0 0 24.3 24.3"><g id="Capa_3" data-name="Capa 3"><circle cx="12.15" cy="12.3" r="11.7" style="fill:#032040"/></g><g id="Capa_1-2" data-name="Capa 1-2"><path d="M12.15,24.3a12.15,12.15,0,1,1,12.1-12.2v.1h0a12,12,0,0,1-11.9,12.1h-.2Zm0-23.3a11.15,11.15,0,1,0,11.1,11.2h0A11,11,0,0,0,12.45,1h-.3Z" transform="translate(0.05 0)" style="fill:#034b86"/></g><path d="M13.85,3.6" transform="translate(0.05 0)" style="fill:#c33"/><path d="M13.85,3.6" transform="translate(0.05 0)" style="fill:#c33"/><path d="M14,3.6" transform="translate(0.05 0)" style="fill:#c33"/><rect x="4.63" y="11.21" width="15.42" height="2.18" rx="1.09" style="fill:#fff;stroke:#fff;stroke-miterlimit:10;stroke-width:0.75px"/><rect x="4.58" y="11.21" width="15.42" height="2.18" rx="1.09" transform="translate(0.04 24.59) rotate(-90)" style="fill:#fff;stroke:#fff;stroke-miterlimit:10;stroke-width:0.75px"/></svg>