<svg id="Capa_1" data-name="Capa 1" xmlns="http://www.w3.org/2000/svg" viewBox="0 0 24.25 24.3"><g id="Capa_3" data-name="Capa 3"><circle cx="12.1" cy="12.3" r="11.7" style="fill:#032040"/></g><g id="Capa_1-2" data-name="Capa 1-2"><path d="M37.35,26.8a12.15,12.15,0,1,1,12.1-12.2v.1h0a12,12,0,0,1-11.9,12.1Zm0-23.3a11.15,11.15,0,1,0,11.1,11.2h0A11,11,0,0,0,37.65,3.5Z" transform="translate(-25.2 -2.5)" style="fill:#034b86"/></g><path d="M39.05,6.1Z" transform="translate(-25.2 -2.5)" style="fill:#c33"/><path d="M39.05,6.1" transform="translate(-25.2 -2.5)" style="fill:#c33"/><path d="M39.15,6.1" transform="translate(-25.2 -2.5)" style="fill:#c33"/><path d="M46.25,13.47c-.07,0-.09.08-.12.13-.55.71-1.11,1.42-1.65,2.14-.08.11-.13.12-.23,0l-.79-.61v6.18c0,.13,0,.17-.16.17H38.54c-.14,0-.17,0-.17-.17,0-1.44,0-2.88,0-4.31,0-.14,0-.18-.18-.17H36.63c-.15,0-.19,0-.19.19v4.28c0,.15,0,.19-.18.19H31.33c-.16,0-.19,0-.19-.19,0-2,0-4,0-6v-.2c-.28.22-.55.41-.79.61s-.15.08-.23,0l-1.68-2.18c-.09-.11-.08-.15,0-.23,1.64-1.25,3.26-2.5,4.89-3.76l3.71-2.85c.23-.18.23-.18.45,0L40.45,9l.15.11v-1c0-.42,0-.42.41-.42h2.54c.14,0,.17,0,.17.18,0,1.14,0,2.28,0,3.42a.33.33,0,0,0,.15.29l2.39,1.84Z" transform="translate(-25.2 -2.5)" style="fill:#fff"/><path d="M42.41,17.41v2.9c0,.13,0,.15-.15.15H39.6c-.14,0-.18,0-.18-.17,0-1.44,0-2.87,0-4.3,0-.15,0-.19-.18-.18H35.56c-.14,0-.17,0-.17.17v4.31c0,.14,0,.17-.17.17H32.35c-.12,0-.16,0-.16-.16,0-1.93,0-3.87,0-5.8a.26.26,0,0,1,.11-.23l4.88-3.75c.09-.07.14-.09.24,0l4.89,3.76a.24.24,0,0,1,.1.22Z" transform="translate(-25.2 -2.5)" style="fill:#032040"/><path d="M41.65,11.21c0-.78,0-1.53,0-2.27,0-.16,0-.2.2-.19h.64c.15,0,.19,0,.19.18,0,1,0,1.9,0,2.85a.4.4,0,0,0,.17.35c.61.45,1.21.93,1.82,1.39.12.09.12.14,0,.24a5.85,5.85,0,0,0-.38.49c-.08.12-.13.14-.26,0L37.44,9.2a.18.18,0,0,0-.27,0l-6.62,5.1c-.11.08-.16.08-.24,0s-.27-.36-.41-.54-.06-.12,0-.18L33,11.18,37.17,8a.17.17,0,0,1,.27,0l4,3.09Z" transform="translate(-25.2 -2.5)" style="fill:#032040"/></svg>