<svg xmlns="http://www.w3.org/2000/svg" viewBox="0 0 25 25"><defs><style>.cls-1{fill:#032040;}.cls-2{fill:#036db2;}</style></defs><g id="Capa_1" data-name="Capa 1"><path class="cls-1" d="M12.71,24.65A12.15,12.15,0,1,1,24.85,12.5,12.16,12.16,0,0,1,12.71,24.65Zm0-23.3A11.15,11.15,0,1,0,23.85,12.5,11.16,11.16,0,0,0,12.71,1.35Z"/><path class="cls-2" d="M17.17,9.76,11.38,4a.79.79,0,0,0-1.12,0L8.21,6a.79.79,0,0,0,0,1.12l5.23,5.22a.79.79,0,0,1,0,1.12L8.38,18.55a.79.79,0,0,0,0,1.12l1.88,1.89a.79.79,0,0,0,1.12,0L17,15.94l2.62-2.62a.8.8,0,0,0,0-1.11Z"/></g></svg>