<svg xmlns="http://www.w3.org/2000/svg" viewBox="0 0 25 25"><defs><style>.cls-1{fill:#fff;}.cls-2{fill:#cc7619;}.cls-3{fill:#f3921b;}</style></defs><g id="Capa_1" data-name="Capa 1"><ellipse class="cls-1" cx="12.97" cy="8.49" rx="7.06" ry="6.84"/><path class="cls-2" d="M12.53,4.84a3.77,3.77,0,1,0,3.73,3.75A3.8,3.8,0,0,0,12.53,4.84Z"/><path class="cls-3" d="M22.06,8.57A9.74,9.74,0,0,0,10.8.39C4.8,1.5,1,8.07,3.86,13.84a41.87,41.87,0,0,0,8.58,10.92.65.65,0,0,0,.16-.07,41.87,41.87,0,0,0,8-9.81A10,10,0,0,0,22.06,8.57Zm-9.61,6.31a6.28,6.28,0,1,1,6.33-6.23A6.28,6.28,0,0,1,12.45,14.88Z"/></g></svg>