<svg xmlns="http://www.w3.org/2000/svg" viewBox="0 0 25 25"><defs><style>.cls-1{fill:#fff;}.cls-2{fill:#034b86;}.cls-3{fill:#036db2;}</style></defs><g id="Capa_1" data-name="Capa 1"><ellipse class="cls-1" cx="12.26" cy="8.75" rx="7.06" ry="6.84"/><path class="cls-2" d="M12.52,5.2a3.59,3.59,0,1,0,3.57,3.58A3.61,3.61,0,0,0,12.52,5.2Z"/><path class="cls-3" d="M21.61,8.75A9.27,9.27,0,0,0,10.88,1,9,9,0,0,0,4.27,13.78a40.2,40.2,0,0,0,8.17,10.41l.16-.07a40.1,40.1,0,0,0,7.61-9.35A9.58,9.58,0,0,0,21.61,8.75Zm-9.16,6a6,6,0,1,1,6-5.94A6,6,0,0,1,12.45,14.77Z"/></g></svg>