<svg xmlns="http://www.w3.org/2000/svg" viewBox="0 0 25 25"><defs><style>.cls-1{fill:#034b86;}.cls-2{fill:#032040;}.cls-3,.cls-4{fill:#fff;}.cls-3,.cls-6{opacity:0.26;}.cls-5{fill:#036db2;}</style></defs><g id="Capa_3" data-name="Capa 3"><circle class="cls-1" cx="12.74" cy="12.65" r="11.65"/></g><g id="Capa_1" data-name="Capa 1"><path class="cls-2" d="M12.71,24.65A12.15,12.15,0,1,1,24.85,12.5,12.16,12.16,0,0,1,12.71,24.65Zm0-23.3A11.15,11.15,0,1,0,23.85,12.5,11.16,11.16,0,0,0,12.71,1.35Z"/><circle class="cls-3" cx="10.32" cy="9.59" r="5.03"/><path class="cls-4" d="M14.49,14a6.17,6.17,0,1,1,.34-8.73A6.19,6.19,0,0,1,14.49,14ZM7.1,6a4.7,4.7,0,1,0,6.64.26A4.71,4.71,0,0,0,7.1,6Z"/><path class="cls-5" d="M16.42,14.07c-.12-.12-.23-.24-.35-.35a7.51,7.51,0,0,1-.89,1,7.24,7.24,0,0,1-1.49,1.06l.32.4A10.68,10.68,0,0,0,15.52,15,9,9,0,0,0,16.42,14.07Z"/><path class="cls-4" d="M19.47,19.71c.66-.61,1.17-1.14-2.44-5-.2-.22-.4-.41-.61-.6a9,9,0,0,1-.9,1A10.68,10.68,0,0,1,14,16.17c.2.24.4.48.62.72C18.3,20.86,18.81,20.33,19.47,19.71Z"/><g class="cls-6"><path class="cls-4" d="M10.05,6.29s2.19,0,2.57,1.26"/><path class="cls-4" d="M12.62,8.3a.74.74,0,0,1-.72-.54C11.74,7.22,10.56,7,10.05,7a.76.76,0,0,1-.75-.75.74.74,0,0,1,.75-.75c.3,0,2.77,0,3.29,1.8a.75.75,0,0,1-.51.93Z"/></g></g></svg>