<svg xmlns="http://www.w3.org/2000/svg" viewBox="0 0 25 25"><defs><style>.cls-1{fill:#034b86;}.cls-2{fill:#032040;}.cls-3{fill:#fff;}</style></defs><g id="Capa_3" data-name="Capa 3"><circle class="cls-1" cx="12.74" cy="12.65" r="11.65"/></g><g id="Capa_1" data-name="Capa 1"><path class="cls-2" d="M12.71,24.65A12.15,12.15,0,1,1,24.85,12.5,12.16,12.16,0,0,1,12.71,24.65Zm0-23.3A11.15,11.15,0,1,0,23.85,12.5,11.16,11.16,0,0,0,12.71,1.35Z"/><path class="cls-3" d="M15.35,18.85H13.18a.5.5,0,0,1-.5-.5.5.5,0,0,1,.5-.5h2.17a.5.5,0,0,1,.5.5A.5.5,0,0,1,15.35,18.85Zm-4.35,0H8.82a.5.5,0,0,1-.5-.5.51.51,0,0,1,.5-.5H11a.5.5,0,0,1,.5.5A.5.5,0,0,1,11,18.85Z"/><path class="cls-3" d="M6.65,18.85h-1a.5.5,0,0,1-.5-.5v-1a.5.5,0,0,1,.5-.5.51.51,0,0,1,.5.5v.5h.5a.51.51,0,0,1,.5.5A.5.5,0,0,1,6.65,18.85Z"/><path class="cls-3" d="M5.65,15.68a.5.5,0,0,1-.5-.5V13a.5.5,0,0,1,.5-.5.5.5,0,0,1,.5.5v2.18A.51.51,0,0,1,5.65,15.68Zm0-4.36a.5.5,0,0,1-.5-.5V8.65a.5.5,0,0,1,.5-.5.5.5,0,0,1,.5.5v2.17A.5.5,0,0,1,5.65,11.32Z"/><path class="cls-3" d="M5.65,7a.5.5,0,0,1-.5-.5v-1a.5.5,0,0,1,.5-.5h1a.5.5,0,0,1,0,1h-.5v.5A.5.5,0,0,1,5.65,7Z"/><path class="cls-3" d="M15.35,6H13.18a.5.5,0,0,1,0-1h2.17a.5.5,0,0,1,0,1ZM11,6H8.82a.5.5,0,0,1,0-1H11a.5.5,0,0,1,0,1Z"/><path class="cls-3" d="M18.53,7a.5.5,0,0,1-.5-.5V6h-.5a.5.5,0,0,1,0-1h1a.5.5,0,0,1,.5.5v1A.5.5,0,0,1,18.53,7Z"/><path class="cls-3" d="M18.53,11.32a.5.5,0,0,1-.5-.5V8.65a.5.5,0,1,1,1,0v2.17A.5.5,0,0,1,18.53,11.32Z"/><path class="cls-2" d="M15.66,11.82c.05,0,.17,0,.27.08l6.74,2.53a.52.52,0,0,1,.15.06c.14.15.39.32.38.47s-.25.37-.43.42c-1,.27-2,.51-2.95.74a.48.48,0,0,0-.41.41c-.2.92-.44,1.84-.67,2.77a.29.29,0,0,1,0,.09c-.06.24-.15.5-.44.52s-.41-.23-.5-.47l-2.31-6.07c-.12-.31-.25-.62-.34-.93S15.22,11.82,15.66,11.82Zm2.53,6.77c0-.17.08-.27.1-.37.19-.75.39-1.5.56-2.26a.47.47,0,0,1,.39-.4l.32-.08,2.37-.59-6-2.25Z"/><path class="cls-3" d="M18.19,18.59l-2.26-5.95,6,2.25-2.37.59-.32.08a.47.47,0,0,0-.39.4c-.17.76-.37,1.51-.56,2.26C18.27,18.32,18.24,18.42,18.19,18.59Z"/></g></svg>