<svg xmlns="http://www.w3.org/2000/svg" viewBox="0 0 25 25"><defs><style>.cls-1{fill:#034b86;}.cls-2,.cls-3{fill:#fff;}.cls-2{opacity:0.26;}.cls-4{fill:#032040;}</style></defs><g id="Capa_3" data-name="Capa 3"><circle class="cls-1" cx="12.74" cy="12.65" r="11.65"/></g><g id="Capa_1" data-name="Capa 1"><rect class="cls-2" x="5.02" y="6.61" width="4.3" height="4.3"/><rect class="cls-3" x="5.02" y="11.59" width="4.3" height="1.54"/><rect class="cls-2" x="9.87" y="6.61" width="3.24" height="4.3"/><rect class="cls-3" x="9.87" y="11.59" width="3.24" height="1.54"/><rect class="cls-2" x="13.72" y="6.61" width="3.24" height="4.3"/><rect class="cls-3" x="13.72" y="11.59" width="3.24" height="1.54"/><rect class="cls-3" x="5.02" y="13.41" width="4.3" height="1.54"/><rect class="cls-3" x="9.87" y="13.41" width="3.24" height="1.54"/><rect class="cls-3" x="13.72" y="13.41" width="3.24" height="1.54"/><rect class="cls-3" x="5.02" y="15.2" width="4.3" height="1.54"/><rect class="cls-3" x="9.87" y="15.2" width="3.24" height="1.54"/><rect class="cls-3" x="13.72" y="15.2" width="3.24" height="1.54"/><rect class="cls-3" x="5.02" y="17.02" width="4.3" height="1.54"/><rect class="cls-3" x="9.87" y="17.02" width="3.24" height="1.54"/><rect class="cls-3" x="13.72" y="17.02" width="3.24" height="1.54"/><rect class="cls-2" x="17.47" y="6.61" width="3.24" height="4.3"/><rect class="cls-3" x="17.47" y="11.59" width="3.24" height="1.54"/><rect class="cls-3" x="17.47" y="13.41" width="3.24" height="1.54"/><rect class="cls-3" x="17.47" y="15.2" width="3.24" height="1.54"/><rect class="cls-3" x="17.47" y="17.02" width="3.24" height="1.54"/><path class="cls-4" d="M12.5,24.65A12.15,12.15,0,1,1,24.65,12.5,12.16,12.16,0,0,1,12.5,24.65Zm0-23.3A11.15,11.15,0,1,0,23.65,12.5,11.16,11.16,0,0,0,12.5,1.35Z"/></g></svg>