<svg id="Capa_1" data-name="Capa 1" xmlns="http://www.w3.org/2000/svg" viewBox="0 0 24.53 20.97"><path d="M48.22,25.74a.46.46,0,0,1,.48-.29.45.45,0,0,1,.34.3v7.48a1.93,1.93,0,0,0,.35,1.17,2.08,2.08,0,0,0,1.3.84l19.32,0a2.08,2.08,0,0,0,1.49-.77,1.93,1.93,0,0,0,.4-1.09V25.74a.44.44,0,0,1,.42-.31.43.43,0,0,1,.41.31v7.67A2.79,2.79,0,0,1,72.17,35,3,3,0,0,1,70,36.05l-19.32,0a2.82,2.82,0,0,1-1.9-1,2.7,2.7,0,0,1-.57-1.84Z" transform="translate(-48.21 -15.11)" style="fill:#fff"/><path d="M59.87,15.44a.43.43,0,0,1,.84,0V30.52l3.14-2.66a.42.42,0,0,1,.46,0,.44.44,0,0,1,.12.53l-3.76,3.24a.56.56,0,0,1-.39.16.54.54,0,0,1-.43-.19l-3.62-3.12a.43.43,0,0,1,.05-.62.43.43,0,0,1,.52.05l3.06,2.61Z" transform="translate(-48.21 -15.11)" style="fill:#fff"/></svg>