<svg id="Capa_1" data-name="Capa 1" xmlns="http://www.w3.org/2000/svg" viewBox="0 0 45.01 16.17"><rect x="0.5" y="0.5" width="44.01" height="15.17" rx="0.58" style="fill:none;stroke:#fff;stroke-miterlimit:10"/><rect x="34.77" y="23.66" width="6.04" height="1.31" rx="0.66" transform="translate(-19.72 41.12) rotate(-90)" style="fill:#fff"/><rect x="42.84" y="23.66" width="6.04" height="1.31" rx="0.66" transform="translate(-11.65 49.19) rotate(-90)" style="fill:#fff"/><rect x="50.74" y="23.64" width="6.04" height="1.31" rx="0.66" transform="translate(-3.73 57.07) rotate(-90)" style="fill:#fff"/><rect x="58.6" y="23.64" width="6.04" height="1.31" rx="0.66" transform="translate(4.12 64.92) rotate(-90)" style="fill:#fff"/><rect x="66.44" y="23.64" width="6.04" height="1.31" rx="0.66" transform="translate(11.97 72.77) rotate(-90)" style="fill:#fff"/><rect x="37.81" y="24.75" width="8.2" height="1.31" rx="0.66" transform="translate(-16.68 46.32) rotate(-90)" style="fill:#fff"/><rect x="45.71" y="24.75" width="8.2" height="1.31" rx="0.66" transform="translate(-8.78 54.23) rotate(-90)" style="fill:#fff"/><rect x="53.53" y="24.72" width="8.2" height="1.31" rx="0.66" transform="translate(-0.94 62.02) rotate(-90)" style="fill:#fff"/><rect x="61.45" y="24.75" width="8.2" height="1.31" rx="0.66" transform="translate(6.96 69.97) rotate(-90)" style="fill:#fff"/><rect x="69.35" y="24.75" width="8.2" height="1.31" rx="0.66" transform="translate(14.86 77.87) rotate(-90)" style="fill:#fff"/></svg>