<svg id="Capa_1" data-name="Capa 1" xmlns="http://www.w3.org/2000/svg" viewBox="0 0 58.1 58.1"><path d="M-.61-27.65H-42a6.32,6.32,0,0,1-6.17-3.79,7,7,0,0,1-.54-3V-75.59l-.16-.1-1.86,2a1.58,1.58,0,0,1-1.68.49,1.48,1.48,0,0,1-.64-2.46c1.58-1.64,3.19-3.24,4.82-4.82a1.47,1.47,0,0,1,2.17,0c1.59,1.56,3.16,3.13,4.72,4.73a1.48,1.48,0,0,1,0,2.12,1.54,1.54,0,0,1-2.18,0c-.7-.66-1.34-1.38-2-2.09a.72.72,0,0,0-.15.6q0,20.4,0,40.81a3.28,3.28,0,0,0,3.6,3.59q20.45,0,40.88,0h.46a6.31,6.31,0,0,0-1-1.14c-.32-.34-.67-.65-1-1A1.53,1.53,0,0,1-2.8-35,1.53,1.53,0,0,1-.62-35c.79.74,1.54,1.52,2.3,2.28S3.25-31.17,4-30.38A1.53,1.53,0,0,1,4-28q-2.23,2.25-4.5,4.5a1.54,1.54,0,0,1-2.31.12,1.58,1.58,0,0,1,.18-2.31Z" transform="translate(53.5 80.99)" style="fill:#fff"/><path d="M-18.77-81H-2.08a6.3,6.3,0,0,1,6.67,6.65v34c0,1.15-.61,1.84-1.58,1.81A1.5,1.5,0,0,1,1.54-39.9c0-.23,0-.47,0-.7V-74.23c0-2.41-1.27-3.69-3.68-3.69H-36c-1,0-1.64-.39-1.82-1.15A1.52,1.52,0,0,1-36.47-81c.21,0,.42,0,.63,0Z" transform="translate(53.5 80.99)" style="fill:#fff"/><path d="M-36.39-53v-9.36a4.84,4.84,0,0,1,0-.76A1.51,1.51,0,0,1-35-64.41a1.46,1.46,0,0,1,1.6,1c.11.32.17.41.53.26a5.63,5.63,0,0,1,6.36,1.07c.26.22.37.26.65,0a5.59,5.59,0,0,1,6.37-1.1A5.55,5.55,0,0,1-16-57.74c0,4.8,0,9.6,0,14.39a1.57,1.57,0,0,1-1,1.67,1.51,1.51,0,0,1-2-1.44c0-1,0-2.08,0-3.12,0-3.86,0-7.73,0-11.59a2.78,2.78,0,0,0-2.13-2.74,2.8,2.8,0,0,0-3.15,1.48,3.43,3.43,0,0,0-.31,1.54q0,7,0,14a3.82,3.82,0,0,1-.05.83,1.48,1.48,0,0,1-1.38,1.11,1.5,1.5,0,0,1-1.5-1,2.67,2.67,0,0,1-.12-1q0-7.12,0-14.26a2.74,2.74,0,0,0-2.07-2.72,2.82,2.82,0,0,0-3.09,1.25,3.43,3.43,0,0,0-.42,1.83c0,4.61,0,9.22,0,13.82a5.46,5.46,0,0,1,0,.7,1.45,1.45,0,0,1-1.37,1.35,1.47,1.47,0,0,1-1.59-1.16,3.79,3.79,0,0,1-.07-.82Z" transform="translate(53.5 80.99)" style="fill:#fff"/><path d="M-8.6-59.67c.86,0,1.58,0,2.29,0a1.51,1.51,0,0,1,1.53,1.19,1.51,1.51,0,0,1-.69,1.64,1.66,1.66,0,0,1-.92.21c-1.57,0-3.14,0-4.71,0A1.88,1.88,0,0,1-13-57.76,1.92,1.92,0,0,1-12.52-60c1.43-1.51,2.84-3,4.26-4.56a1.45,1.45,0,0,0,.37-1.83,1.47,1.47,0,0,0-1.57-.71,1.48,1.48,0,0,0-1.15,1.41,1.54,1.54,0,0,1-1.12,1.47,1.46,1.46,0,0,1-1.6-.51,2.09,2.09,0,0,1-.24-1.89,4.53,4.53,0,0,1,3.79-3.54,4.53,4.53,0,0,1,4.62,2.38,4.5,4.5,0,0,1-.67,5.14C-6.7-61.66-7.6-60.74-8.6-59.67Z" transform="translate(53.5 80.99)" style="fill:#fff"/></svg>